P3
100 50
255
0 0 0 0 0 0 0 0 0 0 0 0 0 0 0 0 0 0 0 0 0 0 0 0 0 0 0 0 0 0 0 0 0 0
0 0 0 0 0 0 0 0 0 0 0 0 0 0 0 0 0 0 0 0 0 0 0 0 0 0 0 0 0 0 0 0 0 0
0 0 0 0 0 0 0 0 0 0 0 0 0 0 0 0 0 0 0 0 0 0 0 0 0 0 0 0 0 0 0 0 0 0
0 0 0 0 0 0 0 0 0 0 0 0 0 0 0 0 0 0 0 0 0 0 0 0 0 0 0 0 0 0 0 0 0 0
0 0 0 0 0 0 0 0 0 0 0 0 0 0 0 0 0 0 0 0 0 0 0 0 0 0 0 0 0 0 0 0 0 0
0 0 0 0 0 0 0 0 0 0 0 0 0 0 0 0 0 0 0 0 0 0 0 0 0 0 0 0 0 0 0 0 0 0
0 0 0 0 0 0 0 0 0 0 0 0 0 0 0 0 0 0 0 0 0 0 0 0 0 0 0 0 0 0 0 0 0 0
0 0 0 0 0 0 0 0 0 0 0 0 0 0 0 0 0 0 0 0 0 0 0 0 0 0 0 0 0 0 0 0 0 0
0 0 0 0 0 0 0 0 0 0 0 0 0 0 0 0 0 0 0 0 0 0 0 0 0 0 0 0
0 0 0 0 0 0 0 0 0 0 0 0 0 0 0 0 0 0 0 0 0 0 0 0 0 0 0 0 0 0 0 0 0 0
0 0 0 0 0 0 0 0 0 0 0 0 0 0 0 0 0 0 0 0 0 0 0 0 0 0 0 0 0 0 0 0 0 0
0 0 0 0 0 0 0 0 0 0 0 0 0 0 0 0 0 0 0 0 0 0 0 0 0 0 0 0 0 0 0 0 0 0
0 0 0 0 0 0 0 0 0 0 0 0 0 0 0 0 0 0 0 0 0 0 0 0 0 0 0 0 0 0 0 0 0 0
0 0 0 0 0 0 0 0 0 0 0 0 0 0 0 0 0 0 0 0 0 0 0 0 0 0 0 0 0 0 0 0 0 0
0 0 0 0 0 0 0 0 0 0 0 0 0 0 0 0 0 0 0 0 0 0 0 0 0 0 0 0 0 0 0 0 0 0
0 0 0 0 0 0 0 0 0 0 0 0 0 0 0 0 0 0 0 0 0 0 0 0 0 0 0 0 0 0 0 0 0 0
0 0 0 0 0 0 0 0 0 0 0 0 0 0 0 0 0 0 0 0 0 0 0 0 0 0 0 0 0 0 0 0 0 0
0 0 0 0 0 0 0 0 0 0 0 0 0 0 0 0 0 0 0 0 0 0 0 0 0 0 0 0
0 0 0 0 0 0 0 0 0 0 0 0 0 0 0 0 0 0 0 0 0 0 0 0 0 0 0 0 0 0 0 0 0 0
0 0 0 0 0 0 0 0 0 0 0 0 0 0 0 0 0 0 0 0 0 0 0 0 0 0 0 0 0 0 0 0 0 0
0 0 0 0 0 0 0 0 0 0 0 0 0 0 0 0 0 0 0 0 0 0 0 0 0 0 0 0 0 0 0 0 0 0
0 0 0 0 0 0 0 0 0 0 0 0 0 0 0 0 0 0 0 0 0 0 0 0 0 0 0 0 0 0 0 0 0 0
0 0 0 0 0 0 0 0 0 0 0 0 0 0 0 0 0 0 0 0 0 0 0 0 0 0 0 0 0 0 0 0 0 0
0 0 0 0 0 0 0 0 0 0 0 0 0 0 0 0 0 0 0 0 0 0 0 0 0 0 0 0 0 0 0 0 0 0
0 0 0 0 0 0 0 0 0 0 0 0 0 0 0 0 0 0 0 0 0 0 0 0 0 0 0 0 0 0 0 0 0 0
0 0 0 0 0 0 0 0 0 0 0 0 0 0 0 0 0 0 0 0 0 0 0 0 0 0 0 0 0 0 0 0 0 0
0 0 0 0 0 0 0 0 0 0 0 0 0 0 0 0 0 0 0 0 0 0 0 0 0 0 0 0
0 0 0 0 0 0 0 0 0 0 0 0 0 0 0 0 0 0 0 0 0 0 0 0 0 0 0 0 0 0 0 0 0 0
0 0 0 0 0 0 0 0 0 0 0 0 0 0 0 0 0 0 0 0 0 0 0 0 0 0 0 0 0 0 0 0 0 0
0 0 0 0 0 0 0 0 0 0 0 0 0 0 0 0 0 0 0 0 0 0 0 0 0 0 0 0 0 0 0 0 0 0
0 0 0 0 0 0 0 0 0 0 0 0 0 0 0 0 0 0 0 0 0 0 0 0 0 0 0 0 0 0 0 0 0 0
0 0 0 0 0 0 0 0 0 0 0 0 0 0 0 0 0 0 0 0 0 0 0 0 0 0 0 0 0 0 0 0 0 0
0 0 0 0 0 0 0 0 0 0 0 0 0 0 0 0 0 0 0 0 0 0 0 0 0 0 0 0 0 0 0 0 0 0
0 0 0 0 0 0 0 0 0 0 0 0 0 0 0 0 0 0 0 0 0 0 0 0 0 0 0 0 0 0 0 0 0 0
0 0 0 0 0 0 0 0 0 0 0 0 0 0 0 0 0 0 0 0 0 0 0 0 0 0 0 0 0 0 0 0 0 0
0 0 0 0 0 0 0 0 0 0 0 0 0 0 0 0 0 0 0 0 0 0 0 0 0 0 0 0
0 0 0 0 0 0 0 0 0 0 0 0 0 0 0 0 0 0 0 0 0 0 0 0 0 0 0 0 0 0 0 0 0 0
0 0 0 0 0 0 0 0 0 0 0 0 0 0 0 0 0 0 0 0 0 0 0 0 0 0 0 0 0 0 0 0 0 0
0 0 0 0 0 0 0 0 0 0 0 0 0 0 0 0 0 0 0 0 0 0 0 0 0 0 0 0 0 0 0 0 0 0
0 0 0 0 0 0 0 0 0 0 0 0 0 0 0 0 0 0 0 0 0 0 0 0 0 0 0 0 0 0 0 0 0 0
0 0 0 0 0 0 0 0 0 0 0 0 0 0 0 0 0 0 0 0 0 0 0 0 0 0 0 0 0 0 0 0 0 0
0 0 0 0 0 0 0 0 0 0 0 0 0 0 0 0 0 0 0 0 0 0 0 0 0 0 0 0 0 0 0 0 0 0
0 0 0 0 0 0 0 0 0 0 0 0 0 0 0 0 0 0 0 0 0 0 0 0 0 0 0 0 0 0 0 0 0 0
0 0 0 0 0 0 0 0 0 0 0 0 0 0 0 0 0 0 0 0 0 0 0 0 0 0 0 0 0 0 0 0 0 0
0 0 0 0 0 0 0 0 0 0 0 0 0 0 0 0 0 0 0 0 0 0 0 0 0 0 0 0
0 0 0 0 0 0 0 0 0 0 0 0 0 0 0 0 0 0 0 0 0 0 0 0 0 0 0 0 0 0 0 0 0 0
0 0 0 0 0 0 0 0 0 0 0 0 0 0 0 0 0 0 0 0 0 0 0 0 0 0 0 0 0 0 0 0 0 0
0 0 0 0 0 0 0 0 0 0 0 0 0 0 0 0 0 0 0 0 0 0 0 0 0 0 0 0 0 0 0 0 0 0
0 0 0 0 0 0 0 0 0 0 0 0 0 0 0 0 0 0 0 0 0 0 0 0 0 0 0 0 0 0 0 0 0 0
0 0 0 0 0 0 0 0 0 0 0 0 0 0 0 0 0 0 0 0 0 0 0 0 0 0 0 0 0 0 0 0 0 0
0 0 0 0 0 0 0 0 0 0 0 0 0 0 0 0 0 0 0 0 0 0 0 0 0 0 0 0 0 0 0 0 0 0
0 0 0 0 0 0 0 0 0 0 0 0 0 0 0 0 0 0 0 0 0 0 0 0 0 0 0 0 0 0 0 0 0 0
0 0 0 0 0 0 0 0 0 0 0 0 0 0 0 0 0 0 0 0 0 0 0 0 0 0 0 0 0 0 0 0 0 0
0 0 0 0 0 0 0 0 0 0 0 0 0 0 0 0 0 0 0 0 0 0 0 0 0 0 0 0
0 0 0 0 0 0 0 0 0 0 0 0 0 0 0 0 0 0 0 0 0 0 0 0 0 0 0 0 0 0 0 0 0 0
0 0 0 0 0 0 0 0 0 0 0 0 0 0 0 0 0 0 0 0 0 0 0 0 0 0 0 0 0 0 0 0 0 0
0 0 0 0 0 0 0 0 0 0 0 0 0 0 0 0 0 0 0 0 0 0 0 0 0 0 0 0 0 0 0 0 0 0
0 0 0 0 0 0 0 0 0 0 0 0 0 0 0 0 0 0 0 0 0 0 0 0 0 0 0 0 0 0 0 0 0 0
0 0 0 0 0 0 0 0 0 0 0 0 0 0 0 0 0 0 0 0 0 0 0 0 0 0 0 0 0 0 0 0 0 0
0 0 0 0 0 0 0 0 0 0 0 0 0 0 0 0 0 0 0 0 0 0 0 0 0 0 0 0 0 0 0 0 0 0
0 0 0 0 0 0 0 0 0 0 0 0 0 0 0 0 0 0 0 0 0 0 0 0 0 0 0 0 0 0 0 0 0 0
0 0 0 0 0 0 0 0 0 0 0 0 0 0 0 0 0 0 0 0 0 0 0 0 0 0 0 0 0 0 0 0 0 0
0 0 0 0 0 0 0 0 0 0 0 0 0 0 0 0 0 0 0 0 0 0 0 0 0 0 0 0
0 0 0 0 0 0 0 0 0 0 0 0 0 0 0 0 0 0 0 0 0 0 0 0 0 0 0 0 0 0 0 0 0 0
0 0 0 0 0 0 0 0 0 0 0 0 0 0 0 0 0 0 0 0 0 0 0 0 0 0 0 0 0 0 0 0 0 0
0 0 0 0 0 0 0 0 0 0 0 0 0 0 0 0 0 0 0 0 0 0 0 0 0 0 0 0 0 0 0 0 0 0
0 0 0 0 0 0 0 0 0 0 0 0 0 0 0 0 0 0 0 0 0 0 0 0 0 0 0 0 0 0 0 0 0 0
0 0 0 0 0 0 0 0 0 0 0 0 0 0 0 0 0 0 0 0 0 0 0 0 0 0 0 0 0 0 0 0 0 0
0 0 0 0 0 0 0 0 0 0 0 0 0 0 0 0 0 0 0 0 0 0 0 0 0 0 0 0 0 0 0 0 0 0
0 0 0 0 0 0 0 0 0 0 0 0 0 0 0 0 0 0 0 0 0 0 0 0 0 0 0 0 0 0 0 0 0 0
0 0 0 0 0 0 0 0 0 0 0 0 0 0 0 0 0 0 0 0 0 0 0 0 0 0 0 0 0 0 0 0 0 0
0 0 0 0 0 0 0 0 0 0 0 0 0 0 0 0 0 0 0 0 0 0 0 0 0 0 0 0
0 0 0 0 0 0 0 0 0 0 0 0 0 0 0 0 0 0 0 0 0 0 0 0 0 0 0 0 0 0 0 0 0 0
0 0 0 0 0 0 0 0 0 0 0 0 0 0 0 0 0 0 0 0 0 0 0 0 0 0 0 0 0 0 0 0 0 0
0 0 0 0 0 0 0 0 0 0 0 0 0 0 0 0 0 0 0 0 0 0 0 0 0 0 0 0 0 0 0 0 0 0
0 0 0 0 0 0 0 0 0 0 0 0 0 0 0 0 0 0 14 144 14 13 139 13 13 132 13 12
121 12 0 0 0 0 0 0 0 0 0 0 0 0 0 0 0 0 0 0 0 0 0 0 0 0 0 0 0 0 0 0 0
0 0 0 0 0 0 0 0 0 0 0 0 0 0 0 0 0 0 0 0 0 0 0 0 0 0 0 0 0 0 0 0 0 0
0 0 0 0 0 0 0 0 0 0 0 0 0 0 0 0 0 0 0 0 0 0 0 0 0 0 0 0 0 0 0 0 0 0
0 0 0 0 0 0 0 0 0 0 0 0 0 0 0 0 0 0 0 0 0 0 0 0 0 0 0 0 0 0 0 0 0 0
0 0 0 0 0 0 0 0 0 0 0 0 0 0 0 0 0 0 0 0 0 0 0 0 0 0 0 0 0 0 0 0 0 0
0
0 0 0 0 0 0 0 0 0 0 0 0 0 0 0 0 0 0 0 0 0 0 0 0 0 0 0 0 0 0 0 0 0 0
0 0 0 0 0 0 0 0 0 0 0 0 0 0 0 0 0 0 0 0 0 0 0 0 0 0 0 0 0 0 0 0 0 0
0 0 0 0 0 0 0 0 0 0 0 0 0 0 0 0 0 0 0 0 0 0 0 0 0 0 0 0 0 0 0 0 0 0
0 0 0 0 0 0 17 171 17 17 172 17 17 170 17 16 166 16 16 161 16 15 155
15 14 148 14 14 140 14 118 131 118 108 120 108 97 108 97 82 91 82 0
0 0 0 0 0 0 0 0 0 0 0 0 0 0 0 0 0 0 0 0 0 0 0 0 0 0 0 0 0 0 0 0 0 0
0 0 0 0 0 0 0 0 0 0 0 0 0 0 0 0 0 0 0 0 0 0 0 0 0 0 0 0 0 0 0 0 0 0
0 0 0 0 0 0 0 0 0 0 0 0 0 0 0 0 0 0 0 0 0 0 0 0 0 0 0 0 0 0 0 0 0 0
0 0 0 0 0 0 0 0 0 0 0 0 0 0 0 0 0 0 0 0 0 0 0 0 0 0 0 0 0 0 0 0 0 0
0 0 0 0 0 0 0 0 0 0 0 0 0 0 0 0 0 0 0
0 0 0 0 0 0 0 0 0 0 0 0 0 0 0 0 0 0 0 0 0 0 0 0 0 0 0 0 0 0 0 0 0 0
0 0 0 0 0 0 0 0 0 0 0 0 0 0 0 0 0 0 0 0 0 0 0 0 0 0 0 0 0 0 0 0 0 0
0 0 0 0 0 0 0 0 0 0 0 0 0 0 0 0 0 0 0 0 0 0 0 0 0 0 0 0 0 0 0 0 0 0
164 183 164 166 185 166 165 184 165 163 181 163 17 177 17 17 172 17
16 167 16 16 160 16 15 154 15 131 146 131 124 138 124 116 129 116 107
119 107 10 107 10 9 93 9 7 74 7 0 0 0 0 0 0 0 0 0 0 0 0 0 0 0 0 0 0
0 0 0 0 0 0 0 0 0 0 0 0 0 0 0 0 0 0 0 0 0 0 0 0 0 0 0 0 0 0 0 0 0 0
0 0 0 0 0 0 0 0 0 0 0 0 0 0 0 0 0 0 0 0 0 0 0 0 0 0 0 0 0 0 0 0 0 0
0 0 0 0 0 0 0 0 0 0 0 0 0 0 0 0 0 0 0 0 0 0 0 0 0 0 0 0 0 0 0 0 0 0
0 0 0 0 0 0 0 0 0 0 0 0 0 0 0 0 0 0 0 0 0 0 0 0 0 0 0 0 0 0
0 0 0 0 0 0 0 0 0 0 0 0 0 0 0 0 0 0 0 0 0 0 0 0 0 0 0 0 0 0 0 0 0 0
0 0 0 0 0 0 0 0 0 0 0 0 0 0 0 0 0 0 0 0 0 0 0 0 0 0 0 0 0 0 0 0 0 0
0 0 0 0 0 0 0 0 0 0 0 0 0 0 0 0 0 0 0 0 0 0 0 0 0 0 0 0 18 183 18 173
192 173 19 193 19 19 191 19 18 188 18 166 185 166 162 180 162 157 175
157 16 169 16 16 163 16 141 156 141 134 149 134 127 141 127 119 133
119 111 123 111 102 113 102 10 102 10 8 88 8 65 72 65 0 0 0 0 0 0 0
0 0 0 0 0 0 0 0 0 0 0 0 0 0 0 0 0 0 0 0 0 0 0 0 0 0 0 0 0 0 0 0 0 0
0 0 0 0 0 0 0 0 0 0 0 0 0 0 0 0 0 0 0 0 0 0 0 0 0 0 0 0 0 0 0 0 0 0
0 0 0 0 0 0 0 0 0 0 0 0 0 0 0 0 0 0 0 0 0 0 0 0 0 0 0 0 0 0 0 0 0 0
0 0 0 0 0 0 0 0 0 0 0 0 0 0 0 0 0 0 0 0 0 0 0 0 0 0 0 0 0 0 0 0 0 0
0 0 0 0
0 0 0 0 0 0 0 0 0 0 0 0 0 0 0 0 0 0 0 0 0 0 0 0 0 0 0 0 0 0 0 0 0 0
0 0 0 0 0 0 0 0 0 0 0 0 0 0 0 0 0 0 0 0 0 0 0 0 0 0 0 0 0 0 0 0 0 0
0 0 0 0 0 0 0 0 0 0 0 0 0 0 0 0 0 0 0 0 0 0 0 0 0 19 191 19 19 197 19
19 198 19 19 196 19 19 194 19 171 190 171 168 186 168 163 181 163 159
176 159 153 171 153 148 164 148 15 158 15 135 151 135 129 143 129 121
135 121 113 126 113 105 116 105 95 106 95 85 94 85 73 81 73 58 64 58
3 39 3 0 0 0 0 0 0 0 0 0 0 0 0 0 0 0 0 0 0 0 0 0 0 0 0 0 0 0 0 0 0 0
0 0 0 0 0 0 0 0 0 0 0 0 0 0 0 0 0 0 0 0 0 0 0 0 0 0 0 0 0 0 0 0 0 0
0 0 0 0 0 0 0 0 0 0 0 0 0 0 0 0 0 0 0 0 0 0 0 0 0 0 0 0 0 0 0 0 0 0
0 0 0 0 0 0 0 0 0 0 0 0 0 0 0 0 0 0 0 0 0 0 0 0 0 0 0 0 0 0 0 0 0 0
0 0 0 0 0 0 0 0
0 0 0 0 0 0 0 0 0 0 0 0 0 0 0 0 0 0 0 0 0 0 0 0 0 0 0 0 0 0 0 0 0 0
0 0 0 0 0 0 0 0 0 0 0 0 0 0 0 0 0 0 0 0 0 0 0 0 0 0 0 0 0 0 0 0 0 0
0 0 0 0 0 0 0 0 0 0 0 0 0 0 0 0 0 0 0 0 0 0 19 193 19 180 200 180 20
201 20 20 200 20 19 198 19 19 195 19 172 191 172 168 186 168 163 182
163 159 176 159 153 171 153 16 164 16 15 158 15 15 151 15 129 143 129
122 135 122 114 127 114 106 118 106 10 108 10 9 97 9 76 85 76 64 71
64 48 54 48 2 27 2 0 0 0 0 0 0 0 0 0 0 0 0 0 0 0 0 0 0 0 0 0 0 0 0 0
0 0 0 0 0 0 0 0 0 0 0 0 0 0 0 0 0 0 0 0 0 0 0 0 0 0 0 0 0 0 0 0 0 0
0 0 0 0 0 0 0 0 0 0 0 0 0 0 0 0 0 0 0 0 0 0 0 0 0 0 0 0 0 0 0 0 0 0
0 0 0 0 0 0 0 0 0 0 0 0 0 0 0 0 0 0 0 0 0 0 0 0 0 0 0 0 0 0 0 0 0 0
0 0 0 0 0 0 0 0 0 0 0
0 0 0 0 0 0 0 0 0 0 0 0 0 0 0 0 0 0 0 0 0 0 0 0 0 0 0 0 0 0 0 0 0 0
0 0 0 0 0 0 0 0 0 0 0 0 0 0 0 0 0 0 0 0 0 0 0 0 0 0 0 0 0 0 0 0 0 0
0 0 0 0 0 0 0 0 0 0 0 0 0 0 0 0 0 0 0 19 191 19 181 201 181 20 203 20
20 202 20 20 200 20 19 198 19 175 194 175 171 190 171 167 186 167 163
181 163 158 175 158 153 170 153 16 164 16 15 157 15 15 150 15 14 143
14 13 135 13 114 127 114 11 118 11 10 108 10 9 98 9 8 87 8 67 74 67
53 59 53 37 41 37 2 25 2 0 0 0 0 0 0 0 0 0 0 0 0 0 0 0 0 0 0 0 0 0 0
0 0 0 0 0 0 0 0 0 0 0 0 0 0 0 0 0 0 0 0 0 0 0 0 0 0 0 0 0 0 0 0 0 0
0 0 0 0 0 0 0 0 0 0 0 0 0 0 0 0 0 0 0 0 0 0 0 0 0 0 0 0 0 0 0 0 0 0
0 0 0 0 0 0 0 0 0 0 0 0 0 0 0 0 0 0 0 0 0 0 0 0 0 0 0 0 0 0 0 0 0 0
0 0 0 0 0 0 0 0 0 0 0
0 0 0 0 0 0 0 0 0 0 0 0 0 0 0 0 0 0 0 0 0 0 0 0 0 0 0 0 0 0 0 0 0 0
0 0 0 0 0 0 0 0 0 0 0 0 0 0 0 0 0 0 0 0 0 0 0 0 0 0 0 0 0 0 0 0 0 0
0 0 0 0 0 0 0 0 0 0 0 0 0 0 0 0 0 0 0 20 200 20 20 203 20 183 203 183
182 202 182 180 200 180 177 197 177 19 193 19 18 189 18 18 184 18 17
179 17 17 174 17 151 168 151 146 162 146 140 156 140 134 149 134 127
142 127 121 134 121 12 126 12 105 117 105 97 108 97 88 98 88 79 87 79
68 75 68 6 62 6 4 46 4 2 26 2 0 0 0 0 0 0 0 0 0 0 0 0 0 0 0 0 0 0 0
0 0 0 0 0 0 0 0 0 0 0 0 0 0 0 0 0 0 0 0 0 0 0 0 0 0 0 0 0 0 0 0 0 0
0 0 0 0 0 0 0 0 0 0 0 0 0 0 0 0 0 0 0 0 0 0 0 0 0 0 0 0 0 0 0 0 0 0
0 0 0 0 0 0 0 0 0 0 0 0 0 0 0 0 0 0 0 0 0 0 0 0 0 0 0 0 0 0 0 0 0 0
0 0 0 0 0 0 0 0 0 0 0 0 0 0
5 5 5 13 13 13 5 5 5 13 13 13 5 5 5 5 5 5 13 13 13 5 5 5 13 13 13 5
5 5 13 13 13 5 5 5 13 13 13 5 5 5 13 13 13 5 5 5 13 13 13 13 13 13 5
5 5 13 13 13 5 5 5 13 13 13 5 5 5 13 13 13 5 5 5 13 13 13 5 5 5 13 13
13 19 195 19 20 202 20 20 203 20 182 203 182 181 201 181 179 198 179
176 195 176 19 191 19 18 187 18 18 183 18 17 177 17 17 172 17 150 166
150 144 160 144 138 154 138 132 147 132 126 140 126 119 132 119 112
124 112 104 116 104 96 107 96 88 97 88 78 87 78 68 75 68 6 63 6 4 48
4 3 31 3 22 25 22 13 13 13 5 5 5 13 13 13 5 5 5 13 13 13 13 13 13 5
5 5 13 13 13 5 5 5 13 13 13 5 5 5 13 13 13 5 5 5 13 13 13 5 5 5 13 13
13 5 5 5 5 5 5 13 13 13 5 5 5 13 13 13 5 5 5 13 13 13 5 5 5 13 13 13
5 5 5 13 13 13 5 5 5 5 5 5 13 13 13 5 5 5 13 13 13 5 5 5 13 13 13 5
5 5 13 13 13 5 5 5 13 13 13 5 5 5 5 5 5 13 13 13 5 5 5 13 13 13 5 5
5
17 17 17 7 7 7 17 17 17 7 7 7 17 17 17 7 7 7 17 17 17 7 7 7 17 17 17
7 7 7 17 17 17 7 7 7 17 17 17 7 7 7 17 17 17 7 7 7 17 17 17 7 7 7 7
7 7 17 17 17 7 7 7 17 17 17 7 7 7 17 17 17 7 7 7 17 17 17 7 7 7 18 180
18 19 198 19 20 202 20 182 202 182 181 201 181 179 199 179 177 196 177
19 193 19 18 189 18 18 185 18 18 180 18 17 175 17 17 170 17 147 164
147 142 158 142 136 152 136 130 145 130 124 138 124 117 130 117 12 122
12 11 114 11 95 105 95 86 96 86 77 86 77 67 75 67 56 63 56 4 49 4 3
33 3 22 25 22 17 17 17 7 7 7 17 17 17 7 7 7 17 17 17 17 17 17 7 7 7
17 17 17 7 7 7 17 17 17 7 7 7 17 17 17 7 7 7 17 17 17 7 7 7 17 17 17
7 7 7 17 17 17 7 7 7 17 17 17 7 7 7 17 17 17 7 7 7 17 17 17 7 7 7 17
17 17 7 7 7 7 7 7 17 17 17 6 6 6 17 17 17 6 6 6 17 17 17 6 6 6 17 17
17 6 6 6 17 17 17 6 6 6 17 17 17 6 6 6 17 17 17 6 6 6 17 17 17 6 6 6

21 21 21 21 21 21 8 8 8 8 8 8 21 21 21 21 21 21 8 8 8 8 8 8 21 21 21
21 21 21 8 8 8 8 8 8 21 21 21 21 21 21 8 8 8 8 8 8 22 22 22 22 22 22
8 8 8 8 8 8 22 22 22 22 22 22 8 8 8 8 8 8 22 22 22 22 22 22 8 8 8 19
191 19 19 198 19 20 200 20 180 200 180 19 199 19 19 197 19 19 194 19
171 190 171 168 186 168 164 182 164 159 177 159 17 172 17 16 167 16
145 161 145 140 155 140 134 149 134 128 142 128 122 135 122 115 128
115 12 120 12 11 112 11 93 103 93 84 94 84 75 84 75 66 73 66 55 61 55
4 48 4 30 33 30 22 25 22 2 25 2 21 21 21 8 8 8 8 8 8 21 21 21 21 21
21 8 8 8 8 8 8 21 21 21 21 21 21 8 8 8 8 8 8 21 21 21 21 21 21 8 8 8
8 8 8 21 21 21 21 21 21 8 8 8 8 8 8 21 21 21 21 21 21 8 8 8 8 8 8 21
21 21 21 21 21 8 8 8 8 8 8 21 21 21 21 21 21 8 8 8 8 8 8 21 21 21 20
20 20 8 8 8 8 8 8 20 20 20 20 20 20 8 8 8 8 8 8 20 20 20 20 20 20 8
8 8 8 8 8
25 25 25 25 25 25 25 25 25 10 10 10 10 10 10 10 10 10 25 25 25 25 25
25 25 25 25 10 10 10 10 10 10 10 10 10 25 25 25 25 25 25 25 25 25 10
10 10 10 10 10 10 10 10 26 26 26 26 26 26 26 26 26 10 10 10 10 10 10
10 10 10 26 26 26 26 26 26 26 26 26 19 192 19 19 197 19 19 198 19 19
198 19 19 196 19 19 194 19 19 191 19 168 187 168 172 190 172 177 195
177 157 174 157 152 169 152 147 164 147 142 158 142 137 152 137 131
146 131 125 139 125 119 132 119 112 125 112 11 117 11 10 109 10 10 100
10 82 91 82 73 81 73 64 71 64 53 59 53 42 47 42 29 32 29 22 25 22 2
25 2 10 10 10 10 10 10 25 25 25 25 25 25 25 25 25 10 10 10 10 10 10
10 10 10 25 25 25 25 25 25 10 10 10 10 10 10 10 10 10 25 25 25 25 25
25 24 24 24 9 9 9 9 9 9 9 9 9 24 24 24 24 24 24 24 24 24 9 9 9 9 9 9
9 9 9 24 24 24 24 24 24 24 24 24 9 9 9 9 9 9 9 9 9 24 24 24 24 24 24
24 24 24 9 9 9 9 9 9 9 9 9 23 23 23 23 23 23 23 23 23 9 9 9 9 9 9 9
9 9
11 11 11 11 11 11 11 11 11 29 29 29 29 29 29 29 29 29 29 29 29 11 11
11 11 11 11 11 11 11 11 11 11 29 29 29 29 29 29 29 29 29 11 11 11 11
11 11 11 11 11 11 11 11 29 29 29 29 29 29 29 29 29 29 29 29 11 11 11
11 11 11 11 11 11 11 11 11 17 175 17 171 190 171 175 194 175 19 195
19 175 194 175 173 193 173 171 190 171 168 187 168 18 184 18 18 180
18 17 175 17 17 171 17 16 165 16 144 160 144 15 154 15 14 148 14 14
142 14 13 136 13 12 129 12 12 121 12 102 114 102 95 106 95 87 97 87
8 88 8 7 78 7 6 68 6 5 57 5 4 44 4 3 30 3 2 25 2 2 25 2 28 28 28 28
28 28 28 28 28 28 28 28 11 11 11 11 11 11 11 11 11 11 11 11 28 28 28
28 28 28 28 28 28 11 11 11 11 11 11 11 11 11 11 11 11 27 27 27 27 27
27 27 27 27 27 27 27 11 11 11 11 11 11 11 11 11 10 10 10 27 27 27 27
27 27 27 27 27 27 27 27 10 10 10 10 10 10 10 10 10 10 10 10 26 26 26
26 26 26 26 26 26 26 26 26 10 10 10 10 10 10 10 10 10 26 26 26 26 26
26 26 26 26 26 26 26 10 10 10
32 32 32 32 32 32 32 32 32 32 32 32 13 13 13 13 13 13 13 13 13 13 13
13 13 13 13 32 32 32 32 32 32 32 32 32 32 32 32 32 32 32 13 13 13 13
13 13 13 13 13 13 13 13 32 32 32 32 32 32 32 32 32 32 32 32 32 32 32
13 13 13 13 13 13 13 13 13 17 177 17 169 188 169 172 191 172 19 192
19 172 191 172 170 189 170 168 186 168 165 183 165 18 180 18 17 176
17 17 171 17 16 167 16 16 162 16 141 156 141 15 151 15 14 145 14 13
138 13 13 132 13 12 125 12 106 118 106 99 110 99 92 102 92 84 94 84
76 85 76 7 75 7 6 65 6 5 54 5 37 41 37 2 28 2 2 25 2 2 25 2 22 25 22
31 31 31 31 31 31 31 31 31 31 31 31 12 12 12 12 12 12 12 12 12 12 12
12 30 30 30 30 30 30 30 30 30 30 30 30 30 30 30 12 12 12 12 12 12 12
12 12 12 12 12 12 12 12 30 30 30 30 30 30 30 30 30 29 29 29 29 29 29
11 11 11 11 11 11 11 11 11 11 11 11 11 11 11 29 29 29 29 29 29 29 29
29 29 29 29 11 11 11 11 11 11 11 11 11 11 11 11 11 11 11 28 28 28 28
28 28 28 28 28 28 28 28 28 28 28
35 35 35 14 14 14 14 14 14 14 14 14 14 14 14 14 14 14 14 14 14 35 35
35 35 35 35 35 35 35 35 35 35 35 35 35 14 14 14 14 14 14 14 14 14 14
14 14 14 14 14 14 14 14 35 35 35 35 35 35 35 35 35 35 35 35 35 35 35
35 35 35 14 14 14 14 14 14 17 175 17 166 184 166 18 187 18 169 187 169
168 187 168 166 185 166 164 182 164 161 179 161 17 175 17 17 171 17
16 167 16 16 162 16 15 157 15 137 152 137 132 146 132 14 141 14 13 134
13 12 128 12 12 121 12 102 114 102 95 106 95 88 98 88 81 90 81 73 81
73 7 71 7 6 61 6 5 50 5 34 38 34 22 25 22 2 25 2 2 25 2 22 25 22 13
13 13 13 13 13 13 13 13 13 13 13 13 13 13 13 13 13 33 33 33 33 33 33
33 33 33 33 33 33 32 32 32 32 32 32 13 13 13 13 13 13 13 13 13 13 13
13 12 12 12 12 12 12 32 32 32 32 32 32 32 32 32 32 32 32 32 32 32 12
12 12 12 12 12 12 12 12 12 12 12 12 12 12 12 12 12 31 31 31 31 31 31
31 31 31 31 31 31 31 31 31 31 31 31 12 12 12 12 12 12 12 12 12 12 12
12 12 12 12 30 30 30 30 30 30
37 37 37 37 37 37 37 37 37 37 37 37 37 37 37 15 15 15 15 15 15 15 15
15 15 15 15 15 15 15 15 15 15 15 15 15 37 37 37 37 37 37 37 37 37 37
37 37 37 37 37 37 37 37 37 37 37 15 15 15 15 15 15 15 15 15 15 15 15
15 15 15 15 15 15 37 37 37 17 172 17 162 180 162 18 182 18 164 183 164
164 182 164 162 180 162 160 178 160 157 174 157 17 171 17 16 167 16
16 163 16 15 158 15 15 153 15 133 148 133 128 142 128 13 136 13 13 130
13 12 123 12 11 116 11 98 109 98 91 102 91 84 94 84 77 85 77 69 76 69
6 67 6 5 57 5 4 46 4 30 34 30 22 25 22 2 25 2 2 25 2 22 25 22 35 35
35 14 14 14 14 14 14 14 14 14 14 14 14 14 14 14 14 14 14 14 14 14 35
35 35 34 34 34 34 34 34 34 34 34 34 34 34 34 34 34 13 13 13 13 13 13
13 13 13 13 13 13 13 13 13 13 13 13 13 13 13 33 33 33 33 33 33 33 33
33 33 33 33 33 33 33 33 33 33 33 33 33 13 13 13 13 13 13 13 13 13 13
13 13 13 13 13 13 13 13 32 32 32 32 32 32 32 32 32 32 32 32 32 32 32
32 32 32 32 32 32 12 12 12
40 40 40 40 40 40 16 16 16 16 16 16 16 16 16 16 16 16 16 16 16 16 16
16 16 16 16 16 16 16 40 40 40 40 40 40 39 39 39 39 39 39 39 39 39 39
39 39 39 39 39 15 15 15 15 15 15 15 15 15 15 15 15 15 15 15 15 15 15
15 15 15 15 15 15 39 39 39 16 166 16 157 175 157 17 177 17 160 178 160
159 177 159 157 175 157 155 173 155 17 170 17 16 166 16 16 162 16 15
158 15 15 153 15 14 148 14 128 143 128 123 137 123 13 131 13 12 125
12 11 119 11 11 112 11 94 105 94 87 97 87 80 89 80 73 81 73 65 72 65
6 62 6 5 52 5 4 41 4 26 29 26 22 25 22 2 25 2 2 25 2 22 25 22 37 37
37 37 37 37 37 37 37 37 37 37 37 37 37 14 14 14 14 14 14 14 14 14 14
14 14 14 14 14 14 14 14 14 14 14 14 14 14 36 36 36 36 36 36 36 36 36
36 36 36 35 35 35 35 35 35 35 35 35 14 14 14 14 14 14 14 14 14 14 14
14 14 14 14 14 14 14 14 14 14 14 14 14 35 35 35 34 34 34 34 34 34 34
34 34 34 34 34 34 34 34 34 34 34 34 34 34 13 13 13 13 13 13 13 13 13
13 13 13 13 13 13 13 13 13
42 42 42 42 42 42 42 42 42 16 16 16 16 16 16 16 16 16 16 16 16 16 16
16 16 16 16 16 16 16 16 16 16 41 41 41 41 41 41 41 41 41 41 41 41 41
41 41 41 41 41 41 41 41 41 41 41 41 41 41 16 16 16 16 16 16 16 16 16
16 16 16 16 16 16 16 16 16 144 160 144 16 169 16 154 171 154 17 172
17 154 171 154 153 170 153 150 167 150 16 164 16 16 161 16 15 157 15
15 153 15 14 148 14 14 143 14 124 138 124 119 132 119 114 126 114 12
120 12 11 114 11 10 107 10 90 100 90 83 92 83 76 84 76 68 76 68 60 67
60 5 57 5 4 47 4 32 36 32 2 25 2 2 25 2 22 25 22 22 25 22 2 25 2 15
15 15 15 15 15 15 15 15 15 15 15 15 15 15 38 38 38 38 38 38 38 38 38
38 38 38 38 38 38 37 37 37 37 37 37 37 37 37 15 15 15 15 15 15 15 15
15 14 14 14 14 14 14 14 14 14 14 14 14 14 14 14 14 14 14 36 36 36 36
36 36 36 36 36 36 36 36 36 36 36 36 36 36 36 36 36 36 36 36 14 14 14
14 14 14 14 14 14 14 14 14 14 14 14 14 14 14 14 14 14 14 14 14 14 14
14 35 35 35 35 35 35 35 35 35
43 43 43 43 43 43 43 43 43 43 43 43 43 43 43 43 43 43 43 43 43 17 17
17 17 17 17 17 17 17 17 17 17 17 17 17 17 17 17 17 17 17 17 17 17 17
17 17 17 17 17 43 43 43 43 43 43 42 42 42 42 42 42 42 42 42 42 42 42
42 42 42 42 42 42 42 42 42 136 151 136 16 162 16 149 165 149 16 166
16 16 165 16 16 164 16 16 161 16 143 159 143 140 155 140 136 151 136
132 147 132 128 142 128 124 138 124 13 132 13 12 127 12 12 121 12 103
115 103 97 108 97 91 101 91 9 94 9 8 87 8 7 79 7 7 70 7 6 61 6 46 52
46 37 41 37 27 30 27 2 25 2 2 25 2 22 25 22 22 25 22 2 25 2 40 40 40
40 40 40 39 39 39 39 39 39 39 39 39 39 39 39 15 15 15 15 15 15 15 15
15 15 15 15 15 15 15 15 15 15 15 15 15 15 15 15 15 15 15 15 15 15 38
38 38 38 38 38 38 38 38 38 38 38 38 38 38 38 38 38 38 38 38 38 38 38
38 38 38 15 15 15 14 14 147 15 15 155 77 77 155 75 75 151 71 71 143
65 65 131 56 56 112 14 14 14 14 14 14 37 37 37 36 36 36 36 36 36 36
36 36 36 36 36 36 36 36 36 36 36
18 18 18 18 18 18 18 18 18 18 18 18 18 18 18 44 44 44 44 44 44 44 44
44 44 44 44 44 44 44 44 44 44 44 44 44 44 44 44 44 44 44 44 44 44 17
17 17 17 17 17 17 17 17 17 17 17 17 17 17 17 17 17 17 17 17 17 17 17
17 17 17 17 17 17 17 17 17 126 140 126 15 154 15 142 158 142 15 159
15 15 159 15 15 157 15 15 155 15 15 152 15 134 149 134 131 145 131 127
141 127 123 137 123 119 132 119 12 127 12 12 121 12 104 115 104 98 109
98 92 102 92 86 96 86 8 88 8 8 81 8 7 73 7 6 64 6 5 55 5 41 46 41 32
35 32 22 25 22 2 25 2 2 25 2 22 25 22 22 25 22 2 25 2 16 16 16 16 16
16 16 16 16 16 16 16 16 16 16 16 16 16 16 16 16 16 16 16 16 16 16 40
40 40 40 40 40 40 40 40 40 40 40 40 40 40 40 40 40 39 39 39 39 39 39
39 39 39 39 39 39 39 39 39 15 15 15 15 15 15 15 15 15 15 15 15 16 16
162 17 17 175 18 18 180 18 18 180 17 17 177 17 17 172 82 82 164 77 77
155 71 71 142 63 63 126 52 52 104 38 38 38 38 38 38 38 38 38 37 37 37
37 37 37 37 37 37 15 15 15
46 46 46 46 46 46 46 46 46 46 46 46 18 18 18 18 18 18 18 18 18 18 18
18 18 18 18 18 18 18 18 18 18 18 18 18 18 18 18 18 18 18 18 18 18 18
18 18 45 45 45 45 45 45 45 45 45 45 45 45 45 45 45 45 45 45 45 45 45
45 45 45 45 45 45 44 44 44 44 44 44 14 145 14 15 150 15 137 152 137
15 152 15 15 151 15 14 149 14 14 146 14 128 143 128 125 139 125 121
135 121 117 130 117 113 126 113 12 120 12 11 115 11 98 109 98 93 103
93 87 96 87 81 90 81 8 82 8 7 75 7 6 67 6 5 58 5 4 49 4 35 39 35 26
29 26 22 25 22 2 25 2 22 25 22 22 25 22 22 25 22 16 16 16 16 16 16 16
16 16 16 16 16 42 42 42 41 41 41 41 41 41 41 41 41 41 41 41 41 41 41
41 41 41 41 41 41 41 41 41 41 41 41 41 41 41 16 16 16 16 16 16 16 16
16 16 16 16 16 16 16 16 16 16 16 16 16 16 16 16 16 16 16 17 17 174 18
18 186 19 19 191 19 19 193 19 19 191 18 18 188 18 18 182 17 17 175 16
16 166 77 77 155 71 71 142 63 63 126 52 52 104 36 36 72 15 15 15 15
15 15 15 15 15 15 15 15 15 15 15
18 18 18 18 18 18 18 18 18 18 18 18 18 18 18 18 18 18 47 47 47 47 47
47 46 46 46 46 46 46 46 46 46 46 46 46 46 46 46 46 46 46 46 46 46 46
46 46 46 46 46 46 46 46 18 18 18 18 18 18 18 18 18 18 18 18 18 18 18
18 18 18 18 18 18 18 18 18 18 18 18 13 133 13 14 141 14 129 144 129
14 144 14 14 143 14 14 142 14 13 139 13 122 136 122 119 132 119 115
128 115 111 124 111 107 119 107 11 114 11 10 108 10 92 103 92 87 96
87 81 90 81 75 83 75 7 76 7 6 68 6 6 60 6 5 51 5 4 42 4 29 32 29 22
25 22 22 25 22 2 25 2 22 25 22 22 25 22 2 25 2 43 43 43 43 43 43 43
43 43 42 42 42 42 42 42 42 42 42 42 42 42 42 42 42 42 42 42 42 42 42
16 16 16 16 16 16 16 16 16 16 16 16 16 16 16 16 16 16 16 16 16 16 16
16 16 16 16 16 16 16 16 16 16 16 16 16 41 41 41 87 87 175 95 95 190
98 98 197 19 19 199 19 19 199 19 19 197 19 19 193 18 18 188 18 18 181
17 17 172 16 16 162 75 75 150 68 68 136 59 59 118 48 48 96 31 31 63
15 15 15 15 15 15 15 15 15 15 15 15
48 48 48 48 48 48 48 48 48 48 48 48 48 48 48 48 48 48 47 47 47 47 47
47 47 47 47 19 19 19 19 19 19 19 19 19 19 19 19 19 19 19 18 18 18 18
18 18 18 18 18 18 18 18 18 18 18 18 18 18 18 18 18 18 18 18 46 46 46
46 46 46 46 46 46 46 46 46 46 46 46 11 117 11 117 131 117 13 135 13
13 136 13 13 135 13 13 134 13 13 131 13 116 129 116 113 125 113 109
121 109 105 117 105 101 112 101 10 107 10 91 102 91 86 96 86 81 90 81
75 83 75 68 76 68 62 69 62 6 61 6 5 53 5 4 44 4 31 35 31 22 25 22 22
25 22 22 25 22 22 25 22 2 25 2 2 25 2 22 25 22 44 44 44 43 43 43 43
43 43 43 43 43 43 43 43 17 17 17 17 17 17 17 17 17 17 17 17 17 17 17
17 17 17 17 17 17 17 17 17 17 17 17 17 17 17 17 17 17 17 17 17 17 17
17 42 42 42 42 42 42 42 42 42 42 42 42 83 83 167 93 93 187 98 98 197
100 100 201 101 101 203 20 20 202 20 20 200 19 19 196 19 19 190 18 18
183 17 17 175 16 16 165 15 15 154 70 70 141 62 62 125 53 53 106 41 41
82 20 20 41 16 16 16 16 16 16 16 16 16
19 19 19 19 19 19 19 19 19 19 19 19 19 19 19 19 19 19 19 19 19 19 19
19 19 19 19 19 19 19 19 19 19 19 19 19 19 19 19 19 19 19 48 48 48 48
48 48 48 48 48 47 47 47 47 47 47 47 47 47 47 47 47 47 47 47 47 47 47
47 47 47 47 47 47 47 47 47 47 47 47 47 47 47 106 118 106 112 124 112
12 126 12 114 126 114 113 125 113 111 123 111 12 121 12 11 117 11 11
114 11 10 109 10 10 105 10 90 100 90 9 94 9 8 88 8 8 82 8 7 76 7 6 69
6 6 61 6 48 53 48 41 45 41 33 36 33 2 27 2 2 25 2 2 25 2 2 25 2 22 25
22 2 25 2 2 25 2 44 44 44 17 17 17 17 17 17 17 17 17 17 17 17 17 17
17 5 5 5 5 5 5 5 5 5 5 5 5 5 5 5 5 5 5 5 5 5 17 17 17 17 17 17 43 43
43 43 43 43 43 43 43 43 43 43 43 43 43 43 43 43 42 42 42 65 65 131 88
88 177 96 96 192 99 99 199 101 101 202 101 101 203 101 101 202 20 20
200 19 19 196 19 19 190 18 18 183 17 17 175 16 16 166 15 15 155 14 14
143 64 64 128 55 55 111 45 45 90 30 30 61 16 16 16 16 16 16 41 41 41

19 19 19 19 19 19 19 19 19 19 19 19 19 19 19 19 19 19 49 49 49 49 49
49 49 49 49 49 49 49 49 49 49 49 49 49 48 48 48 48 48 48 48 48 48 48
48 48 48 48 48 48 48 48 48 48 48 48 48 48 48 48 48 19 19 19 19 19 19
19 19 19 19 19 19 19 19 19 19 19 19 19 19 19 88 97 88 100 112 100 11
116 11 11 117 11 104 116 104 103 115 103 11 112 11 10 109 10 10 105
10 10 101 10 87 97 87 82 92 82 8 86 8 8 80 8 7 74 7 6 68 6 6 61 6 5
53 5 41 45 41 33 37 33 25 28 25 2 25 2 2 25 2 2 25 2 2 25 2 22 25 22
22 25 22 2 25 2 5 5 5 5 5 5 5 5 5 5 5 5 5 5 5 5 5 5 5 5 5 5 5 5 5 5
5 5 5 5 12 12 12 12 12 12 12 12 12 12 12 12 12 12 12 12 12 12 12 12
12 12 12 12 12 12 12 43 43 43 43 43 43 43 43 43 77 77 155 90 90 180
96 96 192 99 99 198 100 100 201 101 101 202 100 100 201 106 106 205
97 97 194 18 18 188 18 18 182 17 17 174 16 16 165 15 15 154 14 14 142
12 12 128 56 56 112 46 46 93 34 34 68 14 14 28 41 41 41 41 41 41
50 50 50 50 50 50 50 50 50 50 50 50 50 50 50 50 50 50 49 49 49 49 49
49 158 79 79 149 74 74 133 66 66 112 56 56 84 42 42 49 49 49 19 19 19
19 19 19 19 19 19 19 19 19 19 19 19 19 19 19 19 19 19 19 19 19 19 19
19 19 19 19 19 19 19 19 19 19 19 19 19 19 19 19 19 19 19 85 94 85 92
103 92 10 105 10 10 106 10 10 105 10 10 103 10 10 100 10 87 96 87 83
92 83 79 88 79 75 83 75 7 78 7 7 72 7 6 66 6 5 59 5 5 52 5 4 44 4 33
36 33 25 28 25 2 25 2 2 25 2 2 25 2 2 25 2 22 25 22 22 25 22 22 25 22
5 5 5 5 5 5 5 5 5 5 5 5 5 5 5 5 5 5 5 5 5 12 12 12 12 12 12 12 12 12
12 12 12 12 12 12 12 12 12 12 12 12 12 12 12 12 12 12 12 12 12 12 12
12 12 12 12 12 12 12 12 12 12 44 44 44 44 44 44 15 15 158 17 17 179
94 94 189 97 97 195 99 99 198 99 99 198 99 99 198 152 152 249 96 96
192 92 92 185 17 17 178 17 17 171 16 16 162 15 15 151 14 14 140 12 12
126 11 11 111 46 46 93 35 35 70 18 18 37 42 42 42 42 42 42
50 50 50 50 50 50 50 50 50 50 50 50 50 50 50 50 50 50 188 94 94 184
92 92 172 86 86 157 78 78 140 70 70 120 60 60 98 49 49 72 36 36 37 18
18 19 19 19 19 19 19 19 19 19 19 19 19 19 19 19 19 19 19 19 19 19 19
19 19 19 19 19 49 49 49 49 49 49 48 48 48 48 48 48 48 48 48 48 48 48
77 86 77 9 92 9 9 94 9 9 94 9 9 92 9 81 90 81 78 87 78 75 83 75 71 79
71 66 74 66 6 68 6 6 63 6 5 56 5 5 50 5 4 43 4 3 35 3 2 27 2 2 25 2
2 25 2 2 25 2 2 25 2 2 25 2 22 25 22 22 25 22 5 5 5 5 5 5 5 5 5 5 5
5 12 12 12 12 12 12 12 12 12 12 12 12 12 12 12 12 12 12 12 12 12 12
12 12 12 12 12 12 12 12 12 12 12 12 12 12 12 12 12 12 12 12 12 12 12
12 12 12 12 12 12 5 5 5 17 17 17 17 17 17 15 15 155 17 17 174 18 18
184 95 95 190 96 96 193 96 96 193 96 96 192 94 94 189 92 92 185 90 90
180 86 86 173 16 16 166 15 15 157 14 14 147 13 13 136 12 12 123 10 10
107 9 9 90 34 34 68 19 19 38 43 43 43 42 42 42
20 20 20 20 20 20 20 20 20 20 20 20 20 20 20 200 100 100 195 97 97 185
92 92 171 85 85 156 78 78 138 69 69 119 59 59 97 9 9 73 7 7 45 4 4 25
2 2 20 20 20 50 50 50 50 50 50 49 49 49 49 49 49 49 49 49 49 49 49 49
49 49 49 49 49 49 49 49 49 49 49 49 49 49 49 49 49 49 49 49 49 49 49
7 74 7 7 79 7 8 81 8 8 80 8 70 78 70 68 76 68 65 72 65 61 68 61 57 63
57 52 58 52 5 52 5 4 46 4 3 39 3 3 32 3 2 25 2 22 25 22 2 25 2 2 25
2 2 25 2 22 25 22 2 25 2 2 25 2 12 12 12 12 12 12 12 12 12 12 12 12
12 12 12 12 12 12 12 12 12 12 12 12 12 12 12 12 12 12 12 12 12 12 12
12 12 12 12 12 12 12 12 12 12 12 12 12 12 12 12 12 12 12 5 5 5 5 5 5
5 5 5 5 5 5 18 18 18 18 18 18 18 18 18 14 14 148 16 16 167 17 17 177
18 18 183 93 93 186 93 93 186 92 92 185 91 91 182 89 89 179 86 86 173
83 83 167 80 80 160 15 15 151 14 14 141 13 13 130 11 11 117 10 10 102
8 8 85 6 6 63 17 17 35 43 43 43 43 43 43
20 20 20 20 20 20 20 20 20 20 20 20 203 20 20 201 20 20 192 19 19 180
18 18 166 16 16 150 15 15 133 13 13 114 11 11 92 9 9 69 6 6 43 4 4 25
2 2 25 12 12 50 50 50 50 50 50 50 50 50 50 50 50 50 50 50 50 50 50 50
50 50 49 49 49 49 49 49 49 49 49 49 49 49 49 49 49 49 49 49 19 19 19
19 19 19 5 59 5 58 64 58 59 66 59 59 65 59 6 63 6 6 60 6 5 56 5 5 52
5 4 47 4 37 41 37 31 35 31 25 28 25 22 25 22 2 25 2 2 25 2 2 25 2 22
25 22 22 25 22 2 25 2 2 25 2 12 12 12 12 12 12 12 12 12 12 12 12 12
12 12 12 12 12 12 12 12 12 12 12 12 12 12 12 12 12 12 12 12 12 12 12
12 12 12 12 12 12 12 12 12 12 12 12 5 5 5 5 5 5 5 5 5 5 5 5 5 5 5 18
18 18 18 18 18 18 18 18 18 18 18 18 18 18 13 13 136 15 15 157 16 16
168 17 17 174 17 17 177 89 89 178 88 88 177 87 87 174 85 85 171 83 83
166 79 79 159 76 76 152 72 72 144 13 13 134 12 12 122 11 11 110 9 9
95 7 7 77 5 5 56 2 2 28 44 44 44 43 43 43
20 20 20 20 20 20 20 20 20 20 20 20 201 20 20 196 19 19 186 18 18 184
28 28 158 15 15 142 14 14 125 12 12 106 10 10 85 42 42 62 31 31 36 18
18 25 12 12 25 12 12 50 50 50 50 50 50 50 50 50 50 50 50 50 50 50 50
50 50 50 50 50 50 50 50 20 20 20 20 20 20 20 20 20 19 19 19 19 19 19
19 19 19 19 19 19 19 19 19 3 38 3 42 47 42 44 48 44 43 48 43 4 46 4
4 42 4 3 38 3 3 33 3 2 28 2 22 25 22 22 25 22 2 25 2 2 25 2 2 25 2 2
25 2 2 25 2 2 25 2 2 25 2 12 12 12 12 12 12 12 12 12 12 12 12 12 12
12 12 12 12 12 12 12 12 12 12 12 12 12 12 12 12 12 12 12 12 12 12 12
12 12 5 5 5 5 5 5 5 5 5 5 5 5 5 5 5 5 5 5 5 5 5 18 18 18 18 18 18 18
18 18 18 18 18 18 18 18 18 18 18 18 18 18 11 11 117 14 14 144 15 15
156 16 16 163 16 16 166 16 16 168 83 83 167 82 82 165 80 80 161 78 78
156 75 75 150 71 71 143 67 67 135 62 62 125 11 11 114 10 10 101 8 8
86 6 6 68 4 4 46 2 2 25 44 44 44 44 44 44
52 52 52 52 52 52 52 52 52 194 97 97 194 97 97 187 93 93 178 90 90 164
82 82 149 74 74 133 66 66 115 57 57 96 48 48 75 37 37 52 26 26 27 13
13 25 12 12 25 2 2 51 51 51 51 51 51 50 50 50 20 20 20 20 20 20 20 20
20 20 20 20 20 20 20 20 20 20 20 20 20 20 20 20 20 20 20 20 20 20 20
20 20 20 20 20 19 19 19 19 19 19 19 19 19 2 25 2 24 27 24 2 27 2 2 25
2 2 25 2 2 25 2 22 25 22 2 25 2 2 25 2 2 25 2 2 25 2 2 25 2 22 25 22
22 25 22 12 12 12 12 12 12 12 12 12 12 12 12 12 12 12 12 12 12 12 12
12 12 12 12 12 12 12 12 12 12 12 12 12 12 12 12 5 5 5 5 5 5 5 5 5 5
5 5 5 5 5 5 5 5 5 5 5 18 18 18 18 18 18 18 18 18 18 18 18 18 18 18 18
18 18 18 18 18 18 18 18 18 18 18 18 18 18 7 7 78 12 12 126 14 14 141
15 15 150 15 15 154 15 15 156 15 15 156 77 77 154 75 75 150 73 73 146
70 70 140 66 66 132 62 62 124 57 57 114 51 51 103 9 9 90 7 7 75 5 5
56 3 3 34 2 2 25 44 44 44 44 44 44
52 52 52 52 52 52 52 52 52 186 18 18 184 92 92 176 88 88 165 82 82 152
76 76 137 68 68 121 60 60 103 51 51 84 8 8 63 6 6 41 4 4 25 2 2 25 2
2 25 2 2 20 20 20 20 20 20 20 20 20 20 20 20 20 20 20 20 20 20 20 20
20 20 20 20 20 20 20 20 20 20 20 20 20 20 20 20 20 20 20 20 20 20 20
20 20 20 20 20 20 20 20 20 20 20 20 20 20 49 49 49 12 12 12 2 25 2 22
25 22 22 25 22 22 25 22 22 25 22 22 25 22 2 25 2 22 25 22 12 12 12 12
12 12 12 12 12 12 12 12 12 12 12 12 12 12 12 12 12 12 12 12 12 12 12
12 12 12 12 12 12 12 12 12 5 5 5 5 5 5 5 5 5 5 5 5 5 5 5 19 19 19 19
19 19 19 19 19 19 19 19 19 19 19 19 19 19 18 18 18 18 18 18 18 18 18
18 18 18 18 18 18 18 18 18 18 18 18 18 18 18 18 18 18 18 18 18 10 10
101 12 12 123 13 13 133 13 13 139 14 14 142 14 14 142 14 14 141 68 68
137 66 66 133 63 63 127 60 60 120 56 56 112 51 51 102 45 45 90 38 38
77 6 6 61 4 4 42 2 2 25 2 2 25 12 12 12 12 12 12
52 52 52 52 52 52 52 52 52 174 17 17 172 17 17 163 16 16 152 15 15 139
13 13 124 12 12 108 10 10 90 9 9 71 7 7 50 5 5 27 2 2 25 2 2 25 12 12
25 12 12 20 20 20 20 20 20 20 20 20 20 20 20 20 20 20 20 20 20 20 20
20 20 20 20 20 20 20 20 20 20 20 20 20 20 20 20 20 20 20 20 20 20 20
20 20 50 50 50 50 50 50 50 50 50 50 50 50 50 50 50 50 50 50 12 12 12
12 12 12 12 12 12 12 12 12 12 12 12 12 12 12 12 12 12 12 12 12 12 12
12 12 12 12 12 12 12 12 12 12 12 12 12 12 12 12 12 12 12 12 12 12 5
5 5 5 5 5 5 5 5 5 5 5 19 19 19 19 19 19 19 19 19 19 19 19 19 19 19 19
19 19 19 19 19 19 19 19 19 19 19 19 19 19 19 19 19 19 19 19 19 19 19
19 19 19 19 19 19 18 18 18 18 18 18 18 18 18 18 18 18 47 47 47 47 47
47 47 47 47 9 9 97 11 11 113 12 12 121 12 12 125 12 12 126 12 12 125
12 12 123 59 59 118 56 56 113 53 53 106 48 48 97 43 43 87 37 37 75 30
30 61 22 22 45 2 2 25 2 2 25 12 12 12 12 12 12 5 5 5
53 53 53 52 52 52 52 52 52 157 78 78 156 78 78 149 14 14 138 13 13 125
12 12 110 11 11 93 9 9 76 38 38 56 28 28 35 17 17 25 12 12 25 12 12
25 12 12 25 2 2 20 20 20 20 20 20 20 20 20 20 20 20 20 20 20 20 20 20
20 20 20 5 5 5 20 20 20 20 20 20 51 51 51 51 51 51 50 50 50 50 50 50
50 50 50 50 50 50 50 50 50 50 50 50 50 50 50 50 50 50 50 50 50 50 50
50 50 50 50 50 50 50 50 50 50 50 50 50 49 49 49 49 49 49 49 49 49 49
49 49 49 49 49 49 49 49 49 49 49 49 49 49 19 19 19 19 19 19 19 19 19
19 19 19 19 19 19 19 19 19 19 19 19 19 19 19 19 19 19 19 19 19 19 19
19 19 19 19 19 19 19 19 19 19 19 19 19 19 19 19 19 19 19 19 19 19 19
19 19 19 19 19 19 19 19 19 19 19 19 19 19 47 47 47 47 47 47 47 47 47
47 47 47 47 47 47 47 47 47 4 4 47 8 8 85 9 9 98 10 10 104 10 10 107
10 10 107 10 10 105 10 10 101 48 48 96 44 44 89 40 40 80 35 35 70 28
28 57 21 21 42 12 12 25 2 2 25 12 12 12 12 12 12 5 5 5 5 5 5
21 21 21 21 21 21 21 21 21 134 67 67 138 69 69 131 65 65 121 60 60 108
54 54 93 46 46 77 38 38 59 29 29 39 19 19 25 12 12 25 12 12 25 2 2 25
2 2 20 20 20 5 5 5 5 5 5 5 5 5 5 5 5 5 5 5 5 5 5 12 12 12 12 12 12 12
12 12 12 12 12 12 12 12 51 51 51 51 51 51 51 51 51 51 51 51 50 50 50
50 50 50 50 50 50 50 50 50 50 50 50 50 50 50 50 50 50 50 50 50 50 50
50 50 50 50 50 50 50 50 50 50 50 50 50 50 50 50 49 49 49 19 19 19 19
19 19 19 19 19 19 19 19 19 19 19 19 19 19 19 19 19 19 19 19 19 19 19
19 19 19 19 19 19 19 19 19 19 19 19 19 19 19 19 19 19 19 19 19 19 19
19 19 19 19 19 19 19 19 19 19 19 19 19 19 19 19 19 19 19 19 19 19 19
19 19 48 48 48 48 48 48 47 47 47 47 47 47 47 47 47 47 47 47 47 47 47
47 47 47 47 47 47 47 47 47 6 6 66 7 7 78 8 8 83 8 8 85 8 8 84 8 8 81
7 7 76 34 34 69 30 30 60 24 24 49 17 17 35 12 12 25 12 12 25 12 12 12
5 5 5 5 5 5 5 5 5 5 5 5
21 21 21 21 21 21 21 21 21 21 21 21 115 11 11 111 11 11 102 10 10 89
8 8 75 7 7 58 5 5 40 4 4 25 2 2 25 2 2 25 2 2 25 2 2 25 12 12 5 5 5
5 5 5 5 5 5 12 12 12 12 12 12 12 12 12 12 12 12 12 12 12 12 12 12 12
12 12 12 12 12 51 51 51 51 51 51 51 51 51 51 51 51 51 51 51 51 51 51
51 51 51 51 51 51 50 50 50 50 50 50 50 50 50 50 50 50 50 50 50 50 50
50 50 50 50 50 50 50 50 50 50 20 20 20 20 20 20 20 20 20 20 20 20 20
20 20 20 20 20 19 19 19 19 19 19 19 19 19 19 19 19 19 19 19 19 19 19
19 19 19 19 19 19 19 19 19 19 19 19 19 19 19 19 19 19 19 19 19 19 19
19 19 19 19 19 19 19 19 19 19 19 19 19 19 19 19 48 48 48 48 48 48 48
48 48 48 48 48 48 48 48 48 48 48 48 48 48 48 48 48 48 48 48 47 47 47
47 47 47 47 47 47 47 47 47 47 47 47 3 3 35 5 5 50 5 5 55 5 5 56 5 5
54 5 5 50 4 4 43 16 16 33 12 12 25 12 12 25 12 12 25 12 12 12 5 5 5
5 5 5 5 5 5 5 5 5 5 5 5
21 21 21 21 21 21 21 21 21 21 21 21 21 21 21 85 8 8 78 7 7 67 6 6 53
5 5 36 3 3 25 2 2 25 12 12 25 12 12 25 12 12 25 12 12 12 12 12 12 12
12 12 12 12 12 12 12 12 12 12 12 12 12 12 12 12 12 12 12 12 12 12 12
12 12 51 51 51 51 51 51 51 51 51 51 51 51 51 51 51 51 51 51 51 51 51
51 51 51 51 51 51 51 51 51 51 51 51 51 51 51 51 51 51 50 50 50 50 50
50 50 50 50 20 20 20 20 20 20 20 20 20 20 20 20 20 20 20 20 20 20 20
20 20 20 20 20 20 20 20 20 20 20 20 20 20 20 20 20 19 19 19 19 19 19
19 19 19 19 19 19 19 19 19 19 19 19 19 19 19 19 19 19 19 19 19 19 19
19 19 19 19 19 19 19 19 19 19 19 19 19 48 48 48 48 48 48 48 48 48 48
48 48 48 48 48 48 48 48 48 48 48 48 48 48 48 48 48 48 48 48 48 48 48
48 48 48 48 48 48 48 48 48 48 48 48 47 47 47 47 47 47 12 12 12 2 2 25
2 2 25 2 2 25 2 2 25 2 2 25 2 2 25 12 12 25 12 12 12 5 5 5 5 5 5 5 5
5 5 5 5 5 5 5 5 5 5 5 5 5
21 21 21 21 21 21 21 21 21 21 21 21 21 21 21 21 21 21 44 22 22 38 19
19 25 12 12 25 12 12 25 12 12 25 12 12 25 2 2 12 12 12 12 12 12 12 12
12 12 12 12 12 12 12 12 12 12 12 12 12 12 12 12 52 52 52 52 52 52 52
52 52 52 52 52 52 52 52 51 51 51 51 51 51 51 51 51 51 51 51 51 51 51
51 51 51 51 51 51 51 51 51 51 51 51 51 51 51 51 51 51 20 20 20 20 20
20 20 20 20 20 20 20 20 20 20 20 20 20 20 20 20 20 20 20 20 20 20 20
20 20 20 20 20 20 20 20 20 20 20 20 20 20 20 20 20 20 20 20 20 20 20
20 20 20 19 19 19 19 19 19 19 19 19 19 19 19 19 19 19 19 19 19 19 19
19 19 19 19 19 19 19 49 49 49 49 49 49 49 49 49 49 49 49 49 49 49 49
49 49 48 48 48 48 48 48 48 48 48 48 48 48 48 48 48 48 48 48 48 48 48
48 48 48 48 48 48 48 48 48 48 48 48 48 48 48 48 48 48 48 48 48 48 48
48 47 47 47 47 47 47 47 47 47 12 12 12 12 12 12 12 12 12 12 12 12 5
5 5 5 5 5 5 5 5 5 5 5 5 5 5 5 5 5 18 18 18 18 18 18
21 21 21 21 21 21 21 21 21 21 21 21 21 21 21 53 53 53 53 53 53 53 53
53 12 12 12 12 12 12 12 12 12 12 12 12 12 12 12 12 12 12 12 12 12 12
12 12 12 12 12 52 52 52 52 52 52 52 52 52 52 52 52 52 52 52 52 52 52
52 52 52 52 52 52 52 52 52 52 52 52 52 52 52 51 51 51 51 51 51 51 51
51 51 51 51 51 51 51 51 51 51 20 20 20 20 20 20 20 20 20 20 20 20 20
20 20 20 20 20 20 20 20 20 20 20 20 20 20 20 20 20 20 20 20 20 20 20
20 20 20 20 20 20 20 20 20 20 20 20 20 20 20 20 20 20 20 20 20 20 20
20 20 20 20 20 20 20 20 20 20 20 20 20 19 19 19 19 19 19 19 19 19 19
19 19 49 49 49 49 49 49 49 49 49 49 49 49 49 49 49 49 49 49 49 49 49
49 49 49 49 49 49 49 49 49 49 49 49 49 49 49 48 48 48 48 48 48 48 48
48 48 48 48 48 48 48 48 48 48 48 48 48 48 48 48 48 48 48 48 48 48 48
48 48 48 48 48 48 48 48 48 48 48 48 48 48 47 47 47 19 19 19 19 19 19
19 19 19 19 19 19 19 19 19 19 19 19 19 19 19 18 18 18 18 18 18 18 18
18
21 21 21 53 53 53 53 53 53 53 53 53 53 53 53 53 53 53 53 53 53 53 53
53 53 53 53 53 53 53 53 53 53 53 53 53 53 53 53 53 53 53 53 53 53 52
52 52 52 52 52 52 52 52 52 52 52 52 52 52 52 52 52 52 52 52 52 52 52
52 52 52 52 52 52 52 52 52 52 52 52 52 52 52 52 52 52 52 52 52 20 20
20 20 20 20 20 20 20 20 20 20 20 20 20 20 20 20 20 20 20 20 20 20 20
20 20 20 20 20 20 20 20 20 20 20 20 20 20 20 20 20 20 20 20 20 20 20
20 20 20 20 20 20 20 20 20 20 20 20 20 20 20 20 20 20 20 20 20 20 20
20 20 20 20 20 20 20 20 20 20 20 20 20 20 20 20 50 50 50 50 50 50 49
49 49 49 49 49 49 49 49 49 49 49 49 49 49 49 49 49 49 49 49 49 49 49
49 49 49 49 49 49 49 49 49 49 49 49 49 49 49 49 49 49 49 49 49 49 49
49 48 48 48 48 48 48 48 48 48 48 48 48 48 48 48 48 48 48 48 48 48 48
48 48 48 48 48 48 48 48 48 48 48 48 48 48 19 19 19 19 19 19 19 19 19
19 19 19 19 19 19 19 19 19 19 19 19 19 19 19 19 19 19 19 19 19 19 19
19
54 54 54 53 53 53 53 53 53 53 53 53 53 53 53 53 53 53 53 53 53 53 53
53 53 53 53 53 53 53 53 53 53 53 53 53 53 53 53 53 53 53 53 53 53 53
53 53 53 53 53 52 52 52 52 52 52 52 52 52 52 52 52 52 52 52 52 52 52
52 52 52 52 52 52 52 52 52 52 52 52 20 20 20 20 20 20 20 20 20 20 20
20 20 20 20 20 20 20 20 20 20 20 20 20 20 20 20 20 20 20 20 20 20 20
20 20 20 20 20 20 20 20 20 20 20 20 20 20 20 20 20 20 20 20 20 20 20
20 20 20 20 20 20 20 20 20 20 20 20 20 20 20 20 20 20 20 20 20 20 20
20 20 20 20 20 20 20 20 20 20 50 50 50 50 50 50 50 50 50 50 50 50 50
50 50 50 50 50 50 50 50 49 49 49 49 49 49 49 49 49 49 49 49 49 49 49
49 49 49 49 49 49 49 49 49 49 49 49 49 49 49 49 49 49 49 49 49 49 49
49 49 49 49 49 49 49 49 49 49 48 48 48 48 48 48 48 48 48 48 48 48 48
48 48 48 48 48 48 48 48 19 19 19 19 19 19 19 19 19 19 19 19 19 19 19
19 19 19 19 19 19 19 19 19 19 19 19 19 19 19 19 19 19 19 19 19 19 19
19
54 54 54 54 54 54 54 54 54 53 53 53 53 53 53 53 53 53 53 53 53 53 53
53 53 53 53 53 53 53 53 53 53 53 53 53 53 53 53 53 53 53 53 53 53 53
53 53 53 53 53 53 53 53 53 53 53 52 52 52 52 52 52 52 52 52 52 52 52
21 21 21 21 21 21 21 21 21 21 21 21 20 20 20 20 20 20 20 20 20 20 20
20 20 20 20 20 20 20 20 20 20 20 20 20 20 20 20 20 20 20 20 20 20 20
20 20 20 20 20 20 20 20 20 20 20 20 20 20 20 20 20 20 20 20 20 20 20
20 20 20 20 20 20 20 20 20 20 20 20 20 20 20 20 20 20 20 20 20 20 20
20 20 20 20 50 50 50 50 50 50 50 50 50 50 50 50 50 50 50 50 50 50 50
50 50 50 50 50 50 50 50 50 50 50 50 50 50 50 50 50 49 49 49 49 49 49
49 49 49 49 49 49 49 49 49 49 49 49 49 49 49 49 49 49 49 49 49 49 49
49 49 49 49 49 49 49 49 49 49 49 49 49 49 49 49 49 49 49 48 48 48 48
48 48 48 48 48 19 19 19 19 19 19 19 19 19 19 19 19 19 19 19 19 19 19
19 19 19 19 19 19 19 19 19 19 19 19 19 19 19 19 19 19 19 19 19 19 19
19

