P3
100 50
255
0 0 0 0 0 0 0 0 0 0 0 0 0 0 0 0 0 0 0 0 0 0 0 0 0 0 0 0 0 0 0 0 0 0
0 0 0 0 0 0 0 0 0 0 0 0 0 0 0 0 0 0 0 0 0 0 0 0 0 0 0 0 0 0 0 0 0 0
0 0 0 0 0 0 0 0 0 0 0 0 0 0 0 0 0 0 0 0 0 0 0 0 0 0 0 0 0 0 0 0 0 0
0 0 0 0 0 0 0 0 0 0 0 0 0 0 0 0 0 0 0 0 0 0 0 0 0 0 0 0 0 0 0 0 0 0
0 0 0 0 0 0 0 0 0 0 0 0 0 0 0 0 0 0 0 0 0 0 0 0 0 0 0 0 0 0 0 0 0 0
0 0 0 0 0 0 0 0 0 0 0 0 0 0 0 0 0 0 0 0 0 0 0 0 0 0 0 0 0 0 0 0 0 0
0 0 0 0 0 0 0 0 0 0 0 0 0 0 0 0 0 0 0 0 0 0 0 0 0 0 0 0 0 0 0 0 0 0
0 0 0 0 0 0 0 0 0 0 0 0 0 0 0 0 0 0 0 0 0 0 0 0 0 0 0 0 0 0 0 0 0 0
0 0 0 0 0 0 0 0 0 0 0 0 0 0 0 0 0 0 0 0 0 0 0 0 0 0 0 0
0 0 0 0 0 0 0 0 0 0 0 0 0 0 0 0 0 0 0 0 0 0 0 0 0 0 0 0 0 0 0 0 0 0
0 0 0 0 0 0 0 0 0 0 0 0 0 0 0 0 0 0 0 0 0 0 0 0 0 0 0 0 0 0 0 0 0 0
0 0 0 0 0 0 0 0 0 0 0 0 0 0 0 0 0 0 0 0 0 0 0 0 0 0 0 0 0 0 0 0 0 0
0 0 0 0 0 0 0 0 0 0 0 0 0 0 0 0 0 0 0 0 0 0 0 0 0 0 0 0 0 0 0 0 0 0
0 0 0 0 0 0 0 0 0 0 0 0 0 0 0 0 0 0 0 0 0 0 0 0 0 0 0 0 0 0 0 0 0 0
0 0 0 0 0 0 0 0 0 0 0 0 0 0 0 0 0 0 0 0 0 0 0 0 0 0 0 0 0 0 0 0 0 0
0 0 0 0 0 0 0 0 0 0 0 0 0 0 0 0 0 0 0 0 0 0 0 0 0 0 0 0 0 0 0 0 0 0
0 0 0 0 0 0 0 0 0 0 0 0 0 0 0 0 0 0 0 0 0 0 0 0 0 0 0 0 0 0 0 0 0 0
0 0 0 0 0 0 0 0 0 0 0 0 0 0 0 0 0 0 0 0 0 0 0 0 0 0 0 0
0 0 0 0 0 0 0 0 0 0 0 0 0 0 0 0 0 0 0 0 0 0 0 0 0 0 0 0 0 0 0 0 0 0
0 0 0 0 0 0 0 0 0 0 0 0 0 0 0 0 0 0 0 0 0 0 0 0 0 0 0 0 0 0 0 0 0 0
0 0 0 0 0 0 0 0 0 0 0 0 0 0 0 0 0 0 0 0 0 0 0 0 0 0 0 0 0 0 0 0 0 0
0 0 0 0 0 0 0 0 0 0 0 0 0 0 0 0 0 0 0 0 0 0 0 0 0 0 0 0 0 0 0 0 0 0
0 0 0 0 0 0 0 0 0 0 0 0 0 0 0 0 0 0 0 0 0 0 0 0 0 0 0 0 0 0 0 0 0 0
0 0 0 0 0 0 0 0 0 0 0 0 0 0 0 0 0 0 0 0 0 0 0 0 0 0 0 0 0 0 0 0 0 0
0 0 0 0 0 0 0 0 0 0 0 0 0 0 0 0 0 0 0 0 0 0 0 0 0 0 0 0 0 0 0 0 0 0
0 0 0 0 0 0 0 0 0 0 0 0 0 0 0 0 0 0 0 0 0 0 0 0 0 0 0 0 0 0 0 0 0 0
0 0 0 0 0 0 0 0 0 0 0 0 0 0 0 0 0 0 0 0 0 0 0 0 0 0 0 0
0 0 0 0 0 0 0 0 0 0 0 0 0 0 0 0 0 0 0 0 0 0 0 0 0 0 0 0 0 0 0 0 0 0
0 0 0 0 0 0 0 0 0 0 0 0 0 0 0 0 0 0 0 0 0 0 0 0 0 0 0 0 0 0 0 0 0 0
0 0 0 0 0 0 0 0 0 0 0 0 0 0 0 0 0 0 0 0 0 0 0 0 0 0 0 0 0 0 0 0 0 0
0 0 0 0 0 0 0 0 0 0 0 0 0 0 0 0 0 0 0 0 0 0 0 0 0 0 0 0 0 0 0 0 0 0
0 0 0 0 0 0 0 0 0 0 0 0 0 0 0 0 0 0 0 0 0 0 0 0 0 0 0 0 0 0 0 0 0 0
0 0 0 0 0 0 0 0 0 0 0 0 0 0 0 0 0 0 0 0 0 0 0 0 0 0 0 0 0 0 0 0 0 0
0 0 0 0 0 0 0 0 0 0 0 0 0 0 0 0 0 0 0 0 0 0 0 0 0 0 0 0 0 0 0 0 0 0
0 0 0 0 0 0 0 0 0 0 0 0 0 0 0 0 0 0 0 0 0 0 0 0 0 0 0 0 0 0 0 0 0 0
0 0 0 0 0 0 0 0 0 0 0 0 0 0 0 0 0 0 0 0 0 0 0 0 0 0 0 0
0 0 0 0 0 0 0 0 0 0 0 0 0 0 0 0 0 0 0 0 0 0 0 0 0 0 0 0 0 0 0 0 0 0
0 0 0 0 0 0 0 0 0 0 0 0 0 0 0 0 0 0 0 0 0 0 0 0 0 0 0 0 0 0 0 0 0 0
0 0 0 0 0 0 0 0 0 0 0 0 0 0 0 0 0 0 0 0 0 0 0 0 0 0 0 0 0 0 0 0 0 0
0 0 0 0 0 0 0 0 0 0 0 0 0 0 0 0 0 0 0 0 0 0 0 0 0 0 0 0 0 0 0 0 0 0
0 0 0 0 0 0 0 0 0 0 0 0 0 0 0 0 0 0 0 0 0 0 0 0 0 0 0 0 0 0 0 0 0 0
0 0 0 0 0 0 0 0 0 0 0 0 0 0 0 0 0 0 0 0 0 0 0 0 0 0 0 0 0 0 0 0 0 0
0 0 0 0 0 0 0 0 0 0 0 0 0 0 0 0 0 0 0 0 0 0 0 0 0 0 0 0 0 0 0 0 0 0
0 0 0 0 0 0 0 0 0 0 0 0 0 0 0 0 0 0 0 0 0 0 0 0 0 0 0 0 0 0 0 0 0 0
0 0 0 0 0 0 0 0 0 0 0 0 0 0 0 0 0 0 0 0 0 0 0 0 0 0 0 0
5 5 5 13 13 13 5 5 5 13 13 13 13 13 13 5 5 5 13 13 13 5 5 5 13 13 13
5 5 5 13 13 13 5 5 5 13 13 13 5 5 5 5 5 5 14 14 14 5 5 5 14 14 14 5
5 5 14 14 14 5 5 5 14 14 14 5 5 5 14 14 14 14 14 14 5 5 5 14 14 14 5
5 5 14 14 14 5 5 5 14 14 14 5 5 5 14 14 14 5 5 5 14 14 14 14 14 14 5
5 5 14 14 14 5 5 5 14 14 14 5 5 5 14 14 14 5 5 5 14 14 14 5 5 5 5 5
5 14 14 14 5 5 5 14 14 14 5 5 5 14 14 14 5 5 5 14 14 14 5 5 5 14 14
14 14 14 14 5 5 5 14 14 14 5 5 5 14 14 14 5 5 5 14 14 14 5 5 5 14 14
14 5 5 5 5 5 5 14 14 14 5 5 5 14 14 14 5 5 5 14 14 14 5 5 5 14 14 14
5 5 5 14 14 14 14 14 14 5 5 5 14 14 14 5 5 5 14 14 14 5 5 5 13 13 13
5 5 5 13 13 13 5 5 5 5 5 5 13 13 13 5 5 5 13 13 13 5 5 5 13 13 13 5
5 5 13 13 13 5 5 5 13 13 13 13 13 13 5 5 5 13 13 13 5 5 5 13 13 13
6 6 6 15 15 15 15 15 15 6 6 6 15 15 15 15 15 15 6 6 6 6 6 6 15 15 15
6 6 6 6 6 6 15 15 15 15 15 15 6 6 6 15 15 15 15 15 15 6 6 6 15 15 15
15 15 15 6 6 6 6 6 6 15 15 15 6 6 6 6 6 6 15 15 15 15 15 15 6 6 6 15
15 15 15 15 15 6 6 6 15 15 15 15 15 15 6 6 6 6 6 6 15 15 15 6 6 6 6
6 6 15 15 15 15 15 15 6 6 6 15 15 15 15 15 15 6 6 6 15 15 15 15 15 15
6 6 6 6 6 6 15 15 15 6 6 6 6 6 6 15 15 15 15 15 15 6 6 6 15 15 15 15
15 15 6 6 6 15 15 15 15 15 15 6 6 6 6 6 6 15 15 15 6 6 6 6 6 6 15 15
15 15 15 15 6 6 6 15 15 15 15 15 15 6 6 6 15 15 15 15 15 15 6 6 6 6
6 6 15 15 15 6 6 6 6 6 6 15 15 15 6 6 6 6 6 6 15 15 15 15 15 15 6 6
6 15 15 15 15 15 15 6 6 6 6 6 6 15 15 15 6 6 6 6 6 6 15 15 15 6 6 6
6 6 6 15 15 15 15 15 15 6 6 6 15 15 15 15 15 15 6 6 6 6 6 6 15 15 15

6 6 6 16 16 16 6 6 6 16 16 16 6 6 6 16 16 16 16 16 16 6 6 6 16 16 16
6 6 6 16 16 16 6 6 6 17 17 17 6 6 6 17 17 17 6 6 6 17 17 17 17 17 17
6 6 6 17 17 17 6 6 6 17 17 17 6 6 6 17 17 17 6 6 6 17 17 17 6 6 6 17
17 17 17 17 17 6 6 6 17 17 17 6 6 6 17 17 17 6 6 6 17 17 17 6 6 6 17
17 17 6 6 6 17 17 17 17 17 17 6 6 6 17 17 17 6 6 6 17 17 17 6 6 6 17
17 17 6 6 6 17 17 17 6 6 6 17 17 17 17 17 17 6 6 6 17 17 17 6 6 6 17
17 17 6 6 6 17 17 17 6 6 6 17 17 17 6 6 6 17 17 17 17 17 17 6 6 6 17
17 17 6 6 6 17 17 17 6 6 6 17 17 17 6 6 6 17 17 17 6 6 6 17 17 17 17
17 17 6 6 6 17 17 17 6 6 6 16 16 16 6 6 6 16 16 16 6 6 6 16 16 16 6
6 6 16 16 16 16 16 16 6 6 6 16 16 16 6 6 6 16 16 16 6 6 6 16 16 16 6
6 6 16 16 16 6 6 6 16 16 16 16 16 16 6 6 6 16 16 16 6 6 6 16 16 16 6
6 6
18 18 18 7 7 7 7 7 7 18 18 18 7 7 7 7 7 7 18 18 18 7 7 7 7 7 7 18 18
18 7 7 7 18 18 18 18 18 18 7 7 7 18 18 18 18 18 18 7 7 7 18 18 18 18
18 18 7 7 7 18 18 18 18 18 18 7 7 7 18 18 18 18 18 18 7 7 7 19 19 19
19 19 19 7 7 7 19 19 19 19 19 19 7 7 7 19 19 19 19 19 19 7 7 7 19 19
19 19 19 19 7 7 7 19 19 19 19 19 19 7 7 7 19 19 19 19 19 19 7 7 7 19
19 19 7 7 7 7 7 7 19 19 19 7 7 7 7 7 7 19 19 19 7 7 7 7 7 7 19 19 19
7 7 7 7 7 7 19 19 19 7 7 7 7 7 7 18 18 18 7 7 7 7 7 7 18 18 18 7 7 7
7 7 7 18 18 18 7 7 7 7 7 7 18 18 18 7 7 7 7 7 7 18 18 18 7 7 7 7 7 7
18 18 18 7 7 7 7 7 7 18 18 18 7 7 7 18 18 18 18 18 18 7 7 7 18 18 18
18 18 18 7 7 7 18 18 18 18 18 18 7 7 7 18 18 18 18 18 18 7 7 7 18 18
18 18 18 18 7 7 7 17 17 17 17 17 17 7 7 7 17 17 17 17 17 17 7 7 7
8 8 8 8 8 8 20 20 20 20 20 20 8 8 8 8 8 8 20 20 20 8 8 8 8 8 8 20 20
20 20 20 20 8 8 8 8 8 8 20 20 20 20 20 20 8 8 8 8 8 8 20 20 20 20 20
20 8 8 8 20 20 20 20 20 20 8 8 8 8 8 8 20 20 20 20 20 20 8 8 8 8 8 8
20 20 20 20 20 20 8 8 8 8 8 8 21 21 21 8 8 8 8 8 8 21 21 21 21 21 21
8 8 8 8 8 8 21 21 21 21 21 21 8 8 8 8 8 8 21 21 21 21 21 21 8 8 8 21
21 21 20 20 20 8 8 8 8 8 8 20 20 20 20 20 20 8 8 8 8 8 8 20 20 20 20
20 20 8 8 8 8 8 8 20 20 20 8 8 8 8 8 8 20 20 20 20 20 20 8 8 8 8 8 8
20 20 20 20 20 20 8 8 8 8 8 8 20 20 20 20 20 20 8 8 8 20 20 20 20 20
20 8 8 8 8 8 8 20 20 20 20 20 20 8 8 8 7 7 7 19 19 19 19 19 19 7 7 7
7 7 7 19 19 19 7 7 7 7 7 7 19 19 19 19 19 19 7 7 7 7 7 7 19 19 19 19
19 19 7 7 7 7 7 7 19 19 19 19 19 19 7 7 7 19 19 19 19 19 19
21 21 21 8 8 8 8 8 8 22 22 22 22 22 22 8 8 8 8 8 8 22 22 22 22 22 22
22 22 22 8 8 8 9 9 9 22 22 22 22 22 22 9 9 9 9 9 9 22 22 22 22 22 22
22 22 22 9 9 9 9 9 9 22 22 22 22 22 22 9 9 9 9 9 9 22 22 22 23 23 23
9 9 9 9 9 9 9 9 9 23 23 23 23 23 23 9 9 9 9 9 9 23 23 23 23 23 23 9
9 9 9 9 9 9 9 9 23 23 23 23 23 23 9 9 9 9 9 9 23 23 23 23 23 23 9 9
9 9 9 9 9 9 9 22 22 22 22 22 22 9 9 9 9 9 9 22 22 22 22 22 22 9 9 9
9 9 9 22 22 22 22 22 22 22 22 22 9 9 9 9 9 9 22 22 22 22 22 22 8 8 8
8 8 8 22 22 22 22 22 22 22 22 22 8 8 8 8 8 8 22 22 22 22 22 22 8 8 8
8 8 8 21 21 21 21 21 21 21 21 21 8 8 8 8 8 8 21 21 21 21 21 21 8 8 8
8 8 8 21 21 21 21 21 21 21 21 21 8 8 8 8 8 8 21 21 21 21 21 21 8 8 8
8 8 8 20 20 20 20 20 20 8 8 8 8 8 8 8 8 8 20 20 20 20 20 20 8 8 8
9 9 9 9 9 9 24 24 24 24 24 24 9 9 9 9 9 9 9 9 9 24 24 24 24 24 24 24
24 24 9 9 9 9 9 9 24 24 24 24 24 24 24 24 24 9 9 9 9 9 9 9 9 9 24 24
24 25 25 25 10 10 10 10 10 10 10 10 10 25 25 25 25 25 25 10 10 10 10
10 10 10 10 10 25 25 25 25 25 25 25 25 25 10 10 10 10 10 10 25 25 25
25 25 25 25 25 25 10 10 10 10 10 10 25 25 25 25 25 25 25 25 25 10 10
10 10 10 10 10 10 10 25 25 25 25 25 25 10 10 10 10 10 10 9 9 9 24 24
24 24 24 24 9 9 9 9 9 9 9 9 9 24 24 24 24 24 24 24 24 24 9 9 9 9 9 9
24 24 24 24 24 24 24 24 24 9 9 9 9 9 9 9 9 9 24 24 24 24 24 24 9 9 9
9 9 9 9 9 9 23 23 23 23 23 23 9 9 9 9 9 9 9 9 9 23 23 23 23 23 23 23
23 23 9 9 9 9 9 9 23 23 23 23 23 23 22 22 22 9 9 9 9 9 9 22 22 22 22
22 22 22 22 22 9 9 9 8 8 8 8 8 8 22 22 22 22 22 22 8 8 8 8 8 8 8 8 8
21 21 21 21 21 21 8 8 8 8 8 8
26 26 26 10 10 10 10 10 10 10 10 10 26 26 26 26 26 26 26 26 26 10 10
10 10 10 10 10 10 10 26 26 26 26 26 26 27 27 27 10 10 10 10 10 10 10
10 10 27 27 27 27 27 27 27 27 27 10 10 10 10 10 10 10 10 10 27 27 27
27 27 27 27 27 27 11 11 11 11 11 11 11 11 11 27 27 27 27 27 27 27 27
27 11 11 11 11 11 11 11 11 11 27 27 27 27 27 27 27 27 27 11 11 11 11
11 11 10 10 10 27 27 27 27 27 27 27 27 27 10 10 10 10 10 10 10 10 10
27 27 27 27 27 27 27 27 27 10 10 10 10 10 10 10 10 10 26 26 26 26 26
26 26 26 26 10 10 10 10 10 10 10 10 10 26 26 26 26 26 26 26 26 26 10
10 10 10 10 10 10 10 10 26 26 26 25 25 25 25 25 25 10 10 10 10 10 10
10 10 10 25 25 25 25 25 25 25 25 25 10 10 10 10 10 10 10 10 10 25 25
25 24 24 24 24 24 24 9 9 9 9 9 9 9 9 9 24 24 24 24 24 24 24 24 24 9
9 9 9 9 9 9 9 9 23 23 23 23 23 23 23 23 23 9 9 9 9 9 9 9 9 9 23 23 23
23 23 23 23 23 23 9 9 9 9 9 9 9 9 9
28 28 28 28 28 28 28 28 28 11 11 11 11 11 11 11 11 11 11 11 11 29 29
29 29 29 29 29 29 29 11 11 11 11 11 11 11 11 11 29 29 29 29 29 29 29
29 29 29 29 29 11 11 11 11 11 11 11 11 11 29 29 29 29 29 29 16 163 16
17 172 17 14 141 14 5 57 5 12 12 12 30 30 30 30 30 30 30 30 30 12 12
12 12 12 12 12 12 12 22 129 22 15 153 15 11 115 11 29 29 29 11 11 11
11 11 11 11 11 11 29 29 29 29 29 29 29 29 29 29 29 29 11 11 11 11 11
11 11 11 11 29 29 29 29 29 29 29 29 29 29 29 29 11 11 11 11 11 11 11
11 11 28 28 28 28 28 28 28 28 28 11 11 11 11 11 11 11 11 11 11 11 11
28 28 28 28 28 28 27 27 27 11 11 11 11 11 11 11 11 11 27 27 27 27 27
27 27 27 27 27 27 27 10 10 10 10 10 10 10 10 10 26 26 26 26 26 26 26
26 26 10 10 10 10 10 10 10 10 10 10 10 10 26 26 26 26 26 26 25 25 25
10 10 10 10 10 10 10 10 10 10 10 10 25 25 25 25 25 25 25 25 25 10 10
10 10 10 10 9 9 9 24 24 24 24 24 24 24 24 24 24 24 24 9 9 9 9 9 9
12 12 12 31 31 31 31 31 31 31 31 31 12 12 12 12 12 12 12 12 12 12 12
12 31 31 31 31 31 31 32 32 32 32 32 32 12 12 12 12 12 12 12 12 12 12
129 12 32 32 32 32 32 32 32 32 32 13 13 13 13 13 13 15 157 15 20 201
20 19 197 19 16 168 16 11 115 11 32 32 32 13 13 13 13 13 13 13 13 13
13 13 13 32 32 32 14 147 14 19 199 19 18 189 18 15 154 15 9 94 9 12
12 12 32 32 32 32 32 32 32 32 32 32 32 32 12 12 12 12 12 12 12 12 12
12 12 12 18 189 18 17 173 17 13 133 13 6 64 6 12 12 12 12 12 12 12 12
12 31 31 31 30 30 30 30 30 30 30 30 30 12 12 12 12 12 12 12 12 12 16
161 16 16 162 16 12 129 12 6 67 6 11 11 11 11 11 11 11 11 11 11 11 11
29 29 29 29 29 29 28 28 28 28 28 28 11 11 11 11 11 11 11 11 11 11 11
11 28 28 28 12 121 12 7 79 7 11 11 11 11 11 11 11 11 11 11 11 11 27
27 27 27 27 27 27 27 27 27 27 27 10 10 10 10 10 10 10 10 10 10 10 10
26 26 26 26 26 26 26 26 26 10 10 10 10 10 10 10 10 10 10 10 10 25 25
25 25 25 25
33 33 33 33 33 33 13 13 13 13 13 13 13 13 13 13 13 13 34 34 34 34 34
34 34 34 34 34 34 34 13 13 13 13 13 13 13 13 13 19 190 19 19 197 19
18 181 18 14 147 14 8 89 8 14 14 14 14 14 14 14 14 14 16 164 16 19 195
19 18 189 18 16 162 16 21 217 21 18 180 18 18 184 18 16 161 16 11 118
11 17 43 17 35 35 35 30 255 30 20 200 20 18 187 18 15 153 15 9 98 9
17 40 17 13 13 13 34 34 34 34 34 34 34 34 34 15 154 15 13 131 13 7 77
7 19 193 19 20 202 20 18 181 18 14 142 14 8 83 8 11 34 11 13 13 13 13
13 13 13 13 13 13 13 13 32 32 32 32 32 32 32 32 32 32 32 32 17 171 17
20 200 20 18 184 18 14 149 14 9 98 9 2 25 2 31 31 31 31 31 31 31 31
31 12 12 12 12 12 12 12 12 12 12 12 12 30 30 30 30 30 30 30 30 30 17
179 17 18 187 18 16 166 16 12 129 12 7 73 7 29 29 29 29 29 29 28 28
28 28 28 28 11 11 11 11 11 11 11 11 11 11 11 11 28 28 28 28 28 28 27
27 27 27 27 27 11 11 11 11 11 11 10 10 10 10 10 10 10 10 10 27 27 27
26 26 26 26 26 26
36 36 36 36 36 36 14 14 14 14 14 14 14 14 14 14 14 14 14 14 14 37 37
37 37 37 37 37 37 37 37 37 37 15 15 15 16 168 16 20 200 20 20 200 20
18 183 18 15 152 15 10 106 10 20 200 20 38 38 38 15 15 15 55 163 55
21 167 21 28 171 28 31 150 31 17 175 17 20 203 20 19 194 19 16 169 16
13 130 13 7 75 7 15 15 15 20 159 20 66 226 66 21 169 21 25 144 38 50
120 50 41 64 41 14 14 14 14 14 14 14 14 14 19 198 19 18 184 18 15 154
15 11 112 11 5 52 5 18 189 18 19 193 19 24 243 24 29 255 29 16 39 16
14 14 14 35 35 35 35 35 35 35 35 35 34 34 34 13 13 13 13 13 13 17 175
17 16 165 16 13 134 13 8 89 8 14 146 14 9 96 9 2 25 2 13 13 13 13 13
13 13 13 13 13 13 13 12 12 12 32 32 32 32 32 32 31 31 31 31 31 31 12
12 12 20 202 20 19 197 19 17 173 17 12 120 12 9 95 9 2 25 2 30 30 30
30 30 30 12 12 12 12 12 12 11 11 11 11 11 11 11 11 11 29 29 29 29 29
29 29 29 29 29 29 29 11 11 11 11 11 11 11 11 11 11 11 11 11 11 11 28
28 28 28 28 28 28 28 28
17 174 17 20 200 20 19 198 19 18 183 18 15 158 15 11 118 11 16 16 16
16 16 16 16 16 16 16 16 16 40 40 40 41 41 41 15 159 15 18 184 18 18
183 18 16 166 16 13 137 13 18 187 18 17 176 17 15 150 15 11 110 11 41
41 41 53 138 53 28 119 28 25 93 25 34 255 34 19 195 19 18 183 18 15
157 15 12 121 12 7 70 7 22 45 22 40 40 40 57 172 57 56 165 56 53 131
53 19 19 194 64 64 128 5 5 5 5 5 5 19 195 19 20 201 20 18 182 18 15
152 15 11 111 11 5 58 5 2 25 2 57 181 57 15 104 15 45 82 45 37 37 37
37 37 37 71 71 142 12 12 12 5 5 5 5 5 5 14 14 14 19 195 19 19 197 19
17 176 17 14 144 14 10 103 10 4 49 4 62 131 117 38 61 38 13 13 13 13
13 13 13 13 13 13 13 13 34 34 34 33 33 33 33 33 33 33 33 33 33 33 33
30 175 30 32 209 45 17 176 17 18 182 18 16 164 16 13 135 13 9 95 9 3
39 3 31 31 31 31 31 31 12 12 12 12 12 12 12 12 12 12 12 12 30 30 30
30 30 30 30 30 30 30 30 30 30 30 30 11 11 11 11 11 11 11 11 11 11 11
11 11 11 11 29 29 29 29 29 29
19 195 19 20 201 20 19 195 19 18 181 18 15 158 15 12 127 12 8 80 8 43
43 43 44 44 44 44 44 44 44 44 44 44 44 44 62 168 62 27 163 40 27 163
27 36 158 36 20 203 20 19 196 19 17 178 17 15 153 15 12 120 12 7 77
7 17 17 17 17 17 17 17 17 17 40 217 40 82 255 82 23 189 23 18 139 67
14 103 14 17 61 17 37 60 71 43 43 43 17 17 17 47 75 47 18 183 18 16
160 16 12 129 12 9 90 9 39 63 39 25 255 25 18 186 18 16 167 16 13 137
13 9 97 9 23 239 23 44 187 21 25 101 25 46 88 46 7 30 7 12 12 12 101
101 202 16 16 167 34 34 68 5 5 5 15 15 15 155 15 15 20 202 20 19 194
19 17 171 17 13 139 13 9 99 9 4 48 4 15 155 15 7 30 7 5 5 5 5 5 5 19
19 190 84 84 169 7 7 76 12 12 12 12 12 12 34 34 34 34 34 34 34 34 34
22 175 22 20 202 20 19 192 19 17 171 17 14 141 14 10 104 10 5 56 5 2
25 2 32 32 32 32 32 32 64 64 128 4 4 48 12 12 12 12 12 12 12 12 12 12
12 12 31 31 31 31 31 31 31 31 31 30 30 30 30 30 30 12 12 12 12 12 12
12 12 12 12 12 12
18 182 18 18 185 18 17 178 17 16 164 16 14 142 14 11 113 11 7 73 7 71
220 71 53 53 107 47 47 47 18 18 18 19 19 19 19 19 19 62 145 62 31 122
31 19 190 19 19 195 19 34 200 34 16 165 16 13 139 13 10 108 10 7 71
7 2 25 2 63 31 31 18 18 18 14 99 14 34 150 34 66 175 66 63 151 63 12
12 121 52 75 52 45 45 45 12 12 12 5 5 5 20 200 20 18 182 18 15 156 15
12 125 12 9 90 9 4 47 4 18 180 18 37 182 37 36 163 36 24 125 24 9 75
32 7 30 7 15 38 15 16 16 16 16 16 16 41 41 41 41 41 41 12 12 25 11 11
119 2 2 25 40 40 40 18 184 18 16 167 16 14 140 14 10 107 10 6 67 6 12
124 12 22 223 22 3 34 3 36 59 36 12 12 12 12 12 12 5 5 5 96 96 192 15
15 158 35 35 70 14 14 14 203 101 101 113 56 56 36 36 36 35 35 35 38
255 38 20 201 20 89 255 89 16 166 16 13 136 13 9 99 9 5 54 5 2 25 2
12 12 12 19 19 197 93 93 187 61 61 123 2 2 25 12 12 12 13 13 13 13 13
13 13 13 13 12 12 12 12 12 12 12 12 12 31 31 31 31 31 31 31 31 31 31
31 31 31 31 31
15 155 15 20 205 20 15 151 15 24 245 24 30 255 30 52 255 52 24 71 24
53 76 53 8 8 85 50 50 50 20 20 20 20 20 20 20 20 20 20 20 20 54 77 54
17 174 17 17 175 17 16 162 16 14 143 14 11 118 11 8 88 8 5 52 5 22 227
22 25 2 2 5 5 5 19 19 19 26 75 26 27 84 27 98 98 196 14 14 146 5 5 56
12 12 12 12 12 12 19 199 19 18 189 18 21 174 21 14 142 14 11 112 11
7 78 7 3 38 3 2 25 2 62 169 62 30 125 30 57 126 57 52 85 52 21 44 21
5 5 5 18 18 182 59 59 119 5 5 5 5 5 5 5 5 5 12 12 12 42 42 42 20 202
20 18 189 18 16 166 16 13 138 13 10 106 10 7 70 7 2 26 2 23 78 23 15
38 15 15 38 15 39 39 39 39 39 39 39 39 39 10 10 104 12 12 25 2 2 25
5 5 5 25 12 12 30 15 15 5 5 5 5 5 5 23 185 23 23 192 23 25 205 25 17
173 17 17 172 17 15 154 15 12 129 12 9 99 9 6 62 6 87 87 175 16 16 161
48 48 96 12 12 25 34 34 34 33 33 33 33 33 33 33 33 33 33 33 33 33 33
33 13 13 13 13 13 13 13 13 13 13 13 13 12 12 12 12 12 12
24 131 37 20 202 20 19 197 19 18 184 18 16 168 16 15 150 15 12 129 12
10 103 10 12 12 25 12 12 12 53 53 53 21 21 21 21 21 21 21 21 21 21 21
21 76 208 76 91 246 91 45 212 45 45 149 45 41 160 18 57 114 57 27 75
27 23 46 23 52 52 52 20 20 20 20 20 20 20 20 20 70 70 140 77 77 154
52 52 105 2 2 25 50 50 50 50 50 50 32 255 32 17 171 17 15 150 15 12
124 12 9 94 9 6 60 6 2 25 2 2 25 2 19 19 19 24 68 24 22 45 22 21 44
21 12 12 12 98 98 196 20 20 178 56 56 112 12 12 25 5 5 5 17 17 17 203
101 101 139 13 13 19 199 19 18 182 18 15 158 15 12 129 12 9 98 9 6 62
6 2 25 2 2 25 2 19 42 19 5 5 5 5 5 5 5 5 5 19 19 195 80 80 160 8 8 85
12 12 12 12 12 12 12 12 12 12 12 12 38 38 38 38 38 38 30 162 30 41 164
18 19 193 19 19 195 19 18 181 18 16 160 16 13 135 13 10 106 10 7 72
7 3 32 3 33 55 33 2 2 25 12 12 12 5 5 5 5 5 5 5 5 5 13 13 13 13 13 13
13 13 13 34 34 34 33 33 33 33 33 33 33 33 33 33 33 33 33 33 33
19 195 19 18 187 18 17 175 17 16 161 16 14 145 14 12 128 12 10 109 10
8 88 8 6 63 6 12 12 12 12 12 12 56 56 56 201 20 20 148 14 14 22 22 22
35 128 35 37 137 37 77 167 77 34 109 34 11 64 11 27 55 27 62 85 62 25
48 25 55 55 55 54 54 54 17 177 17 15 154 15 13 130 13 10 106 10 8 81
8 2 2 25 5 5 5 5 5 5 79 222 79 30 185 30 83 220 83 28 239 28 59 147
59 137 52 17 63 180 63 49 72 49 19 19 19 19 19 19 19 19 19 19 19 19
19 19 19 14 14 147 65 65 130 6 6 67 2 2 25 46 46 46 46 46 46 138 13
13 44 193 21 18 186 18 16 168 16 14 144 14 11 116 11 8 85 8 5 50 5 2
25 2 2 25 2 12 12 12 12 12 12 12 12 12 12 12 12 19 19 193 15 15 150
39 39 78 2 2 25 16 16 16 196 19 19 110 11 11 15 15 15 39 39 39 39 39
39 17 125 17 20 203 20 19 195 19 17 179 17 15 157 15 13 132 13 10 104
10 7 71 7 3 34 3 2 25 2 5 5 5 19 19 193 89 89 179 63 63 127 4 4 40 12
12 12 12 12 12 12 12 12 12 12 12 13 13 13 13 13 13 13 13 13 13 13 13
13 13 13
17 172 17 16 162 16 15 149 15 13 135 13 11 119 11 10 103 10 8 85 8 6
65 6 4 43 4 18 181 18 23 23 23 59 59 59 123 61 61 71 35 35 59 59 59
59 59 59 92 92 185 69 69 139 29 68 29 65 88 65 64 87 64 26 49 26 15
38 15 20 200 20 17 178 17 15 156 15 13 133 13 11 110 11 8 87 8 6 64
6 3 39 3 54 54 54 21 21 21 38 138 25 73 179 73 34 123 34 66 133 66 61
102 61 15 38 15 55 78 55 7 30 7 51 51 51 50 50 50 50 50 50 49 49 49
49 49 49 19 19 19 3 3 39 12 12 25 5 5 5 5 5 5 5 5 5 5 5 5 13 134 13
10 109 10 23 233 23 15 151 15 12 124 12 25 255 25 7 71 7 16 39 146 41
64 41 17 17 17 17 17 17 17 17 17 17 17 17 74 74 148 10 10 108 3 3 36
12 12 25 41 41 41 25 12 12 60 30 30 40 40 40 40 40 40 16 16 16 22 193
49 22 224 22 18 188 18 17 170 17 14 149 14 12 124 12 9 96 9 6 64 6 2
28 2 2 25 2 12 12 12 99 99 199 17 17 174 61 61 122 22 22 45 5 5 5 14
14 14 14 14 14 14 14 14 14 14 14 35 35 35 35 35 35 34 34 34 34 34 34

14 145 14 13 135 13 12 122 12 10 108 10 9 93 9 7 76 7 5 59 5 4 40 4
2 25 2 2 25 2 24 24 24 24 24 24 24 24 24 24 24 24 24 24 24 19 19 192
81 81 162 58 58 117 5 5 57 27 50 27 7 30 7 12 12 12 37 255 37 17 178
17 43 184 43 13 134 13 11 112 11 9 90 9 6 67 6 4 44 4 2 25 2 2 25 2
55 55 55 55 55 55 66 139 66 64 123 64 27 65 27 25 48 25 24 47 24 7 30
7 15 15 152 43 43 86 5 5 5 5 5 5 5 5 5 5 5 5 12 12 12 12 12 12 12 12
12 49 49 49 22 228 22 17 174 17 15 152 15 12 128 12 10 104 10 7 78 7
5 50 5 2 25 2 53 95 53 7 30 53 48 71 48 15 38 15 44 44 44 44 44 44 44
44 44 43 43 43 43 43 43 12 12 25 12 12 25 5 5 5 5 5 5 5 5 5 5 5 5 16
16 16 16 16 16 16 16 16 61 224 61 33 224 33 83 255 83 18 183 18 13 136
13 22 222 22 8 84 8 5 52 5 2 25 2 22 45 22 77 100 151 79 79 159 68 68
137 8 8 86 12 12 25 37 37 37 36 36 36 36 36 36 36 36 36 36 36 36 36
36 36 35 35 35 35 35 35 14 14 14
11 117 11 10 106 10 9 94 9 8 80 8 6 65 6 4 49 4 3 32 3 20 203 20 21
211 21 49 72 49 64 64 64 64 64 64 64 64 64 63 63 63 63 63 63 14 14 145
57 57 114 35 35 70 12 12 25 24 24 24 24 24 24 24 24 24 17 176 17 15
155 15 13 134 13 11 112 11 9 91 9 6 69 6 4 47 4 2 25 2 2 25 2 2 25 2
102 125 202 22 22 22 22 22 22 59 82 59 59 82 59 24 47 24 7 30 7 18 18
184 13 13 136 38 38 77 12 12 25 12 12 12 12 12 12 12 12 12 5 5 5 5 5
5 168 16 16 25 255 25 18 185 18 16 163 16 14 140 14 11 117 11 9 93 9
6 68 6 4 42 4 2 25 2 2 25 2 21 44 21 21 44 21 7 30 7 18 18 18 18 18
18 5 5 5 5 5 5 5 5 5 5 5 5 5 5 5 5 5 5 43 43 43 42 42 42 42 42 42 42
42 42 41 41 41 41 41 41 28 167 28 34 185 34 28 170 28 32 159 32 17 124
17 24 133 24 19 80 19 15 155 15 14 143 14 12 125 12 10 103 10 7 77 7
27 27 55 12 12 25 12 12 12 12 12 12 12 12 12 12 12 12 5 5 5 5 5 5 5
5 5 14 14 14 14 14 14 14 14 14
42 157 42 7 77 7 14 146 14 5 52 5 21 55 21 41 63 41 23 46 23 31 85 31
64 87 64 66 89 66 26 26 26 26 26 26 26 26 26 26 26 26 26 26 26 40 40
81 5 5 53 2 2 25 2 2 25 63 63 63 63 63 63 62 62 62 15 153 15 13 133
13 11 112 11 9 91 9 7 70 7 4 48 4 2 27 2 2 25 2 2 25 2 2 25 2 58 173
58 57 57 57 57 57 57 56 56 56 12 12 12 12 12 12 17 17 178 74 74 149
10 10 100 4 4 42 12 12 25 21 21 21 21 21 21 21 21 21 20 20 20 20 20
20 112 11 11 19 192 19 17 172 17 15 150 15 12 127 12 10 104 10 8 80
8 5 56 5 3 31 3 2 25 2 2 25 2 50 73 50 15 38 15 5 5 5 5 5 5 5 5 5 19
19 193 75 75 151 47 47 95 2 2 25 12 12 12 12 12 12 12 12 12 176 88 88
101 50 50 17 17 17 17 17 17 16 16 16 16 16 16 58 183 58 31 151 31 29
136 29 53 142 53 18 186 18 18 181 18 16 167 16 15 150 15 13 131 13 11
110 11 8 88 8 6 63 6 3 33 3 15 15 15 15 15 15 15 15 15 15 15 15 15 15
15 15 15 15 14 14 14 37 37 37 37 37 37 36 36 36
82 133 82 17 60 17 6 39 33 31 54 31 30 53 30 30 53 30 29 52 29 70 93
70 29 52 29 70 92 70 67 67 67 67 67 67 67 67 67 66 66 66 66 66 66 26
26 26 12 12 25 12 12 25 5 5 5 5 5 5 5 5 5 25 25 25 85 202 157 11 110
11 9 90 9 6 69 6 4 48 4 2 27 2 2 25 2 2 25 2 21 217 21 85 108 168 7
30 7 23 23 23 23 23 23 23 23 23 22 22 22 22 22 22 12 12 122 50 50 101
27 27 55 2 2 25 2 2 25 54 54 54 53 53 53 53 53 53 52 52 52 52 52 52
93 255 93 17 178 17 24 166 24 13 135 13 11 113 11 9 90 9 6 67 6 4 43
4 2 25 2 2 25 2 2 25 2 12 120 12 12 12 12 12 12 12 12 12 12 98 98 196
97 97 185 13 13 133 39 39 78 12 12 25 5 5 5 5 5 5 179 17 17 170 85 85
92 46 46 25 12 12 17 17 17 17 17 17 42 42 42 51 126 51 15 105 15 26
106 26 19 199 19 19 195 19 18 182 18 16 166 16 14 149 14 13 130 13 11
110 11 8 88 8 6 64 6 3 38 3 2 25 2 5 5 5 17 17 177 77 77 154 54 54 109
3 3 38 12 12 12 12 12 12 12 12 12 12 12 12
77 100 77 32 55 32 32 54 32 75 98 75 74 97 74 73 96 73 72 95 72 30 53
30 7 30 7 15 38 15 27 27 27 27 27 27 27 27 27 27 27 27 26 26 26 26 26
26 66 66 66 66 66 66 170 85 85 103 51 51 64 64 64 64 64 64 39 135 39
13 92 13 74 135 74 77 193 77 63 110 63 7 30 51 175 42 19 23 46 23 138
93 70 24 47 24 25 48 25 23 23 23 58 58 58 58 58 58 57 57 57 57 57 57
56 56 56 3 3 36 2 2 25 12 12 25 12 12 12 5 5 5 5 5 5 5 5 5 5 5 5 21
21 21 25 211 25 16 162 16 14 142 14 12 120 12 9 98 9 7 76 7 5 53 5 2
29 2 2 25 2 2 25 2 2 25 2 42 171 19 48 48 48 19 19 19 19 19 19 16 16
164 72 72 144 10 10 101 4 4 47 12 12 25 18 18 18 18 18 18 45 45 45 113
56 56 37 18 18 25 2 2 43 43 43 43 43 43 43 43 43 43 43 43 42 42 42 21
62 21 20 202 20 19 192 19 17 178 17 16 162 16 14 144 14 12 125 12 10
105 10 8 84 8 6 61 6 3 37 3 2 25 2 2 25 2 19 19 193 16 16 161 59 59
118 31 31 62 2 2 25 12 12 12 5 5 5 5 5 5
76 99 76 76 99 76 31 54 31 31 54 31 31 54 31 7 30 7 7 30 7 7 30 7 15
38 15 12 12 12 12 12 12 12 12 12 12 12 12 12 12 12 12 12 12 67 67 67
66 66 66 157 15 15 104 10 10 41 20 20 25 2 2 25 25 25 76 150 76 74 132
74 31 71 31 28 51 28 64 87 64 15 38 15 61 84 61 60 83 60 25 48 25 15
38 15 7 30 7 59 59 59 58 58 58 58 58 58 58 58 58 23 23 23 22 22 22 22
22 22 22 22 22 22 22 22 22 22 22 22 22 22 21 21 21 21 21 21 53 53 53
53 53 53 77 224 77 27 158 40 12 125 12 10 104 10 8 82 8 6 60 6 3 38
3 2 25 2 2 25 2 2 25 2 19 198 19 45 67 45 19 19 19 19 19 19 19 19 19
19 19 19 9 9 97 28 28 57 2 2 25 2 2 25 46 46 46 12 12 12 12 12 12 45
45 45 12 12 12 12 12 12 12 12 12 5 5 5 5 5 5 17 17 17 17 17 17 42 255
42 19 197 19 18 185 18 35 189 35 15 155 15 13 137 13 11 118 11 9 98
9 7 78 7 5 56 5 3 32 3 2 25 2 2 25 2 14 37 14 14 14 147 10 10 104 25
25 51 12 12 25 5 5 5 15 15 15 15 15 15
29 29 29 72 72 72 15 38 15 7 30 7 7 30 7 7 30 7 7 30 7 12 12 12 12 12
12 18 188 18 56 190 56 5 5 5 5 5 5 5 5 5 27 27 27 27 27 27 26 26 26
79 39 39 27 13 13 25 12 12 25 2 2 65 65 65 18 67 18 30 66 30 67 90 67
28 50 28 27 50 27 27 50 27 26 49 26 7 30 7 7 30 7 15 38 15 24 24 24
23 23 23 23 23 23 23 23 23 23 23 23 23 23 23 22 22 22 22 22 22 56 56
56 56 56 56 55 55 55 55 55 55 54 54 54 54 54 54 54 54 54 53 53 53 39
147 17 37 152 37 73 170 73 13 93 13 60 120 60 36 116 13 19 42 19 16
38 137 15 38 15 45 68 45 47 70 47 49 72 49 49 49 49 48 48 48 48 48 48
48 48 48 47 47 47 2 2 25 12 12 25 12 12 12 12 12 12 12 12 12 5 5 5 5
5 5 5 5 5 5 5 5 17 17 17 17 17 17 17 17 17 17 17 17 17 17 17 74 255
74 21 214 21 17 176 17 16 162 16 14 145 14 12 128 12 10 109 10 9 90
9 6 69 6 4 48 4 2 25 2 2 25 2 2 25 2 20 43 20 59 59 118 7 7 76 2 2 25
12 12 25 15 15 15 15 15 15 39 39 39
73 73 73 12 12 12 12 12 12 12 12 12 5 5 5 26 255 26 15 157 15 14 141
14 12 127 12 11 116 11 10 105 10 9 96 9 8 89 8 8 85 8 68 68 68 67 67
67 67 67 67 66 66 66 25 12 12 25 2 2 12 12 12 12 12 12 64 64 64 28 51
28 66 89 66 65 88 65 65 88 65 64 87 64 15 38 15 15 38 15 15 38 15 5
5 5 5 5 5 5 5 5 5 5 5 12 12 12 12 12 12 12 12 12 12 12 12 12 12 12 12
12 12 185 18 18 121 60 60 47 4 4 55 55 55 21 21 21 21 21 21 21 21 21
34 144 34 67 165 67 31 113 31 62 125 62 26 71 26 23 48 23 53 76 53 7
30 56 15 38 15 21 44 21 7 30 7 7 30 7 49 49 49 49 49 49 48 48 48 48
48 48 48 48 48 19 19 19 18 18 18 18 18 18 18 18 18 18 18 18 18 18 18
18 18 18 18 18 18 18 18 18 18 18 18 44 44 44 44 44 44 44 44 44 44 44
44 67 233 67 33 215 33 31 180 31 15 151 15 13 135 13 11 117 11 9 99
9 8 80 8 6 60 6 3 38 3 2 25 2 2 25 2 2 25 2 15 38 15 36 36 72 15 15
31 2 2 25 12 12 12 12 12 12 12 12 12 12 12 12
29 29 29 29 29 29 29 29 29 28 28 28 15 159 15 14 140 14 31 143 31 11
111 11 9 98 9 8 87 8 7 78 7 6 69 6 6 61 6 5 54 5 4 49 4 24 242 24 67
67 67 66 66 66 26 26 26 26 26 26 26 26 26 25 25 25 25 25 25 25 25 25
89 89 178 70 70 140 10 10 105 7 7 71 15 38 15 15 38 15 12 12 12 12 12
12 12 12 12 12 12 12 12 12 12 12 12 12 12 12 12 12 12 12 12 12 12 5
5 5 5 5 5 132 66 66 67 33 33 25 12 12 25 2 2 21 21 21 21 21 21 21 21
21 21 21 21 63 142 63 28 92 28 26 73 26 56 84 56 54 77 54 23 46 23 22
45 22 22 45 22 15 38 15 15 38 15 49 49 49 19 19 19 19 19 19 19 19 19
19 19 19 19 19 19 19 19 19 19 19 19 18 18 18 18 18 18 18 18 18 18 18
18 46 46 46 46 46 46 45 45 45 45 45 45 45 45 45 44 44 44 44 44 44 44
44 44 29 182 29 74 192 45 67 204 67 16 141 39 34 168 34 22 118 22 8
87 8 21 217 21 7 74 7 2 27 2 2 25 2 25 48 25 15 38 15 17 40 17 41 41
41 12 12 12 12 12 12 12 12 12 12 12 12 12 12 12 12 12 12
29 29 29 72 72 72 72 72 72 14 147 14 12 128 12 12 113 12 9 98 9 8 86
8 7 74 7 6 64 6 5 54 5 4 45 4 3 37 3 3 30 3 2 25 2 2 25 2 11 113 11
26 26 26 26 26 26 26 26 26 26 26 26 25 25 25 25 25 25 17 17 171 67 67
134 48 48 97 6 6 62 2 2 28 2 2 25 12 12 12 12 12 12 12 12 12 12 12 12
12 12 12 5 5 5 5 5 5 5 5 5 5 5 5 5 5 5 22 22 22 22 22 22 67 6 6 25 12
12 25 2 2 22 22 22 54 54 54 54 54 54 54 54 54 53 53 53 53 53 53 26 69
26 24 52 24 55 78 55 54 77 54 54 77 54 53 76 53 15 38 15 15 38 15 5
5 5 5 5 5 5 5 5 5 5 5 5 5 5 5 5 5 5 5 5 5 5 5 12 12 12 12 12 12 12 12
12 12 12 12 12 12 12 174 87 87 124 62 62 46 46 46 45 45 45 45 45 45
45 45 45 18 18 18 17 17 17 20 154 20 40 160 27 61 185 61 25 136 25 29
127 29 56 139 56 53 97 30 49 99 49 8 40 8 15 38 15 66 89 130 18 41 18
42 65 42 15 38 15 41 41 41 41 41 41 40 40 40 40 40 40 40 40 40 40 40
40 16 16 16
72 72 72 72 72 72 13 139 13 11 118 11 10 102 10 8 88 8 7 75 7 6 63 6
5 53 5 4 42 4 3 33 3 2 25 2 2 25 2 2 25 2 2 25 2 2 25 2 2 25 2 66 89
66 65 65 65 65 65 65 64 64 64 64 64 64 84 84 169 12 12 127 45 45 91
28 28 56 12 12 25 2 2 25 2 2 25 24 24 24 5 5 5 5 5 5 5 5 5 23 23 23
23 23 23 23 23 23 23 23 23 23 23 23 22 22 22 57 57 57 56 56 56 56 56
56 12 12 12 12 12 12 12 12 12 12 12 12 12 12 12 15 156 15 13 139 13
12 123 12 10 108 10 9 94 9 8 80 8 54 77 54 54 77 54 15 38 15 15 38 15
5 5 5 5 5 5 5 5 5 14 14 142 5 5 5 12 12 12 12 12 12 12 12 12 12 12 12
12 12 12 12 12 12 12 12 12 12 12 12 201 100 100 170 17 17 111 11 11
38 3 3 18 18 18 18 18 18 18 18 18 18 18 18 18 18 18 17 17 17 25 140
25 58 165 58 57 153 57 27 111 27 25 94 25 51 104 51 48 84 48 20 42 20
19 42 19 7 30 7 19 42 19 15 38 15 41 41 41 41 41 41 41 41 41 41 41 41
16 16 16 16 16 16 16 16 16 16 16 16
28 28 28 13 136 13 11 112 11 9 95 9 8 80 8 6 67 6 5 55 5 4 43 4 3 33
3 2 25 2 2 25 2 2 25 2 2 25 2 2 25 2 2 25 2 2 25 2 2 25 2 16 39 145
65 65 65 64 64 64 64 64 64 64 64 64 63 63 126 8 8 87 5 5 51 12 12 25
12 12 25 12 12 25 12 12 25 24 24 24 24 24 24 24 24 24 23 23 23 23 23
23 58 58 58 58 58 58 58 58 58 57 57 57 57 57 57 56 56 56 56 56 56 56
56 56 55 55 55 55 55 55 55 55 55 17 173 17 15 154 15 13 138 13 12 122
12 10 107 10 9 92 9 7 78 7 6 65 6 5 51 5 3 38 3 5 5 5 5 5 5 12 12 12
99 99 199 83 83 167 13 13 130 9 9 90 23 23 47 12 12 12 12 12 12 12 12
12 12 12 12 12 12 12 12 12 12 5 5 5 173 17 17 134 13 13 76 38 38 25
12 12 25 2 2 18 18 18 18 18 18 18 18 18 18 18 18 18 18 18 55 143 55
22 110 22 54 133 54 25 92 25 23 76 23 22 59 22 46 69 46 46 69 46 45
68 45 45 68 45 15 38 15 7 30 7 12 12 12 5 5 5 5 5 5 5 5 5 5 5 5 16 16
16 16 16 16 16 16 16
28 28 28 10 109 10 9 90 9 7 74 7 6 60 6 4 47 4 3 36 3 2 25 2 2 25 2
2 25 2 2 25 2 2 25 2 2 25 2 2 25 2 2 25 2 2 25 2 17 171 17 20 43 20
25 25 25 25 25 25 25 25 25 25 25 25 25 25 25 23 23 47 2 2 25 2 2 25
12 12 25 12 12 25 12 12 25 60 60 60 60 60 60 59 59 59 59 59 59 59 59
59 58 58 58 58 58 58 57 57 57 57 57 57 57 57 57 56 56 56 56 56 56 22
22 22 22 22 22 24 203 24 17 173 17 15 155 15 13 138 13 12 122 12 10
107 10 9 93 9 7 79 7 6 65 6 5 51 5 3 38 3 2 25 2 2 25 2 22 45 22 12
12 12 89 89 179 72 72 145 10 10 108 6 6 69 2 2 28 12 12 25 12 12 12
5 5 5 5 5 5 5 5 5 5 5 5 5 5 5 5 5 5 84 8 8 28 14 14 25 12 12 18 18 18
18 18 18 18 18 18 45 45 45 45 45 45 45 45 45 44 44 44 51 109 51 51 107
51 23 69 23 21 55 21 20 43 20 20 43 20 20 43 20 46 69 46 15 38 15 7
30 7 5 5 5 5 5 5 5 5 5 5 5 5 5 5 5 5 5 5 5 5 5 5 5 5 5 5 5
36 126 24 8 87 8 7 70 7 5 55 5 4 41 4 2 29 2 2 25 2 2 25 2 2 25 2 2
25 2 2 25 2 2 25 2 2 25 2 2 25 2 2 25 2 2 25 2 9 91 9 23 46 23 27 50
27 25 25 25 25 25 25 25 25 25 25 25 25 12 12 25 12 12 25 2 2 25 2 2
25 2 2 25 12 12 12 12 12 12 12 12 12 12 12 12 59 59 59 58 58 58 58 58
58 58 58 58 23 23 23 22 22 22 22 22 22 22 22 22 22 22 22 22 22 22 22
22 22 17 175 17 15 156 15 14 140 14 12 123 12 10 108 10 9 94 9 7 79
7 6 66 6 5 52 5 3 39 3 2 26 2 2 25 2 2 25 2 2 25 2 18 18 183 15 15 154
60 60 120 41 41 83 4 4 45 2 2 25 2 2 25 2 2 25 19 19 19 19 19 19 19
19 19 19 19 19 19 19 19 19 19 19 18 18 18 25 2 2 5 5 5 12 12 12 12 12
12 12 12 12 12 12 12 12 12 12 12 12 12 45 45 45 44 44 44 44 44 44 20
43 20 20 43 20 20 43 20 20 43 20 7 30 7 7 30 7 5 5 5 5 5 5 5 5 5 5 5
5 5 5 5 5 5 5 5 5 5 5 5 5 5 5 5 12 12 12 12 12 12
39 144 39 6 68 6 5 51 5 3 37 3 2 25 2 2 25 2 2 25 2 2 25 2 2 25 2 2
25 2 2 25 2 2 25 2 2 25 2 2 25 2 22 220 22 13 36 13 7 30 7 25 48 25
64 87 64 63 63 63 63 63 63 62 62 62 62 62 62 61 61 61 12 12 12 12 12
25 12 12 25 12 12 12 12 12 12 12 12 12 12 12 12 5 5 5 5 5 5 5 5 5 23
23 23 23 23 23 22 22 22 22 22 22 22 22 22 22 22 22 22 22 22 22 22 22
17 179 17 15 159 15 84 212 84 12 125 12 11 110 11 9 95 9 8 81 8 6 67
6 5 53 5 4 40 4 2 27 2 2 25 2 2 25 2 2 25 2 2 25 2 2 25 2 12 12 126
46 46 92 28 28 57 12 12 25 2 2 25 2 2 25 2 2 25 19 19 19 19 19 19 19
19 19 19 19 19 19 19 19 47 47 47 47 47 47 47 47 47 46 46 46 46 46 46
46 46 46 46 46 46 45 45 45 45 45 45 45 45 45 45 45 45 45 45 45 44 44
44 17 17 17 17 17 17 5 5 5 5 5 5 5 5 5 5 5 5 5 5 5 5 5 5 5 5 5 5 5 5
5 5 5 5 5 5 12 12 12 12 12 12 12 12 12 19 153 19 14 145 14
14 102 14 51 96 96 3 34 3 2 25 2 2 25 2 2 25 2 2 25 2 2 25 2 2 25 2
2 25 2 2 25 2 2 25 2 2 25 2 13 137 13 38 185 38 53 76 53 24 47 24 25
48 25 63 63 63 62 62 62 62 62 62 62 62 62 61 61 61 61 61 61 61 61 61
12 12 12 12 12 12 5 5 5 5 5 5 5 5 5 5 5 5 5 5 5 23 23 23 23 23 23 23
23 23 22 22 22 22 22 22 22 22 22 22 22 22 22 22 22 55 55 55 42 210 42
16 163 16 14 144 14 12 128 12 11 112 11 9 97 9 8 83 8 6 69 6 5 55 5
4 42 4 2 28 2 2 25 2 2 25 2 2 25 2 2 25 2 2 25 2 2 25 2 15 38 28 6 6
63 14 14 28 12 12 25 12 12 25 2 2 25 19 19 19 19 19 19 48 48 48 48 48
48 48 48 48 47 47 47 47 47 47 47 47 47 47 47 47 47 47 47 46 46 46 46
46 46 46 46 46 46 46 46 45 45 45 18 18 18 18 18 18 18 18 18 18 18 18
17 17 17 17 17 17 17 17 17 17 17 17 17 17 17 5 5 5 5 5 5 5 5 5 5 5 5
5 5 5 12 12 12 12 12 12 12 12 12 17 178 17 17 171 17 16 163 16 15 153
15
10 61 10 8 40 8 26 49 26 19 42 19 23 46 23 2 25 2 2 25 2 2 25 2 2 25
2 27 50 27 38 61 38 103 126 204 50 73 50 53 76 53 55 78 55 24 47 24
59 82 59 61 84 61 62 62 62 62 62 62 62 62 62 61 61 61 24 24 24 24 24
24 24 24 24 24 24 24 24 24 24 23 23 23 23 23 23 23 23 23 23 23 23 23
23 23 23 23 23 23 23 23 23 23 23 57 57 57 56 56 56 56 56 56 56 56 56
55 55 55 55 55 55 21 173 21 14 148 14 13 131 13 11 114 11 9 99 9 8 85
8 7 70 7 5 57 5 4 43 4 3 30 3 2 25 2 2 25 2 2 25 2 2 25 2 2 25 2 2 25
2 2 25 2 34 180 34 3 3 30 2 2 25 12 12 25 12 12 25 12 12 25 12 12 12
12 12 12 12 12 12 12 12 12 48 48 48 47 47 47 47 47 47 47 47 47 47 47
47 47 47 47 46 46 46 46 46 46 18 18 18 18 18 18 18 18 18 18 18 18 18
18 18 18 18 18 18 18 18 17 17 17 17 17 17 17 17 17 17 17 17 17 17 17
17 17 17 17 17 17 43 43 43 43 43 43 43 43 43 43 43 43 27 255 27 18 189
18 18 182 18 17 173 17 16 164 16 15 154 15
72 111 72 69 92 69 28 51 28 13 36 116 15 38 28 24 47 24 56 79 56 23
46 23 23 46 23 55 78 55 55 78 55 24 47 24 24 47 24 58 81 58 7 30 7 7
30 7 61 84 61 26 49 26 24 24 24 24 24 24 24 24 24 24 24 24 24 24 24
24 24 24 24 24 24 23 23 23 23 23 23 23 23 23 23 23 23 23 23 23 23 23
23 58 58 58 57 57 57 57 57 57 57 57 57 56 56 56 56 56 56 56 56 56 56
56 56 55 55 55 55 55 55 44 182 44 16 169 16 11 118 11 10 102 10 8 87
8 7 73 7 5 59 5 4 45 4 3 32 3 2 25 2 2 25 2 2 25 2 2 25 2 2 25 2 2 25
2 2 25 2 2 25 2 50 105 50 50 50 50 2 2 25 2 2 25 12 12 12 12 12 12 12
12 12 12 12 12 12 12 12 12 12 12 12 12 12 12 12 12 12 12 12 12 12 12
47 47 47 18 18 18 18 18 18 18 18 18 18 18 18 18 18 18 18 18 18 18 18
18 18 18 18 18 18 18 18 18 18 18 18 18 17 17 17 17 17 17 17 17 17 44
44 44 44 44 44 43 43 43 43 43 43 43 43 43 43 43 43 37 255 37 19 196
19 18 189 18 18 181 18 17 172 17 16 162 16 15 152 15
67 67 67 28 51 28 66 89 66 17 40 32 5 28 28 15 38 15 61 84 61 60 83
60 59 82 59 59 82 59 59 82 59 59 82 59 15 38 15 7 30 7 7 30 7 15 38
15 15 38 15 24 24 24 24 24 24 24 24 24 24 24 24 24 24 24 24 24 24 24
24 24 23 23 23 23 23 23 23 23 23 58 58 58 58 58 58 58 58 58 58 58 58
57 57 57 57 57 57 57 57 57 56 56 56 56 56 56 56 56 56 56 56 56 55 55
55 55 55 55 55 55 55 41 190 41 14 147 14 10 105 10 9 90 9 7 75 7 6 61
6 4 48 4 3 34 3 2 25 2 2 25 2 2 25 2 2 25 2 2 25 2 2 25 2 2 25 2 2 25
2 2 25 2 15 38 15 50 50 50 50 50 50 12 12 12 12 12 12 12 12 12 12 12
12 12 12 12 12 12 12 12 12 12 12 12 12 5 5 5 5 5 5 5 5 5 5 5 5 18 18
18 18 18 18 18 18 18 18 18 18 18 18 18 18 18 18 18 18 18 18 18 18 18
18 18 18 18 18 18 18 18 45 45 45 44 44 44 44 44 44 44 44 44 44 44 44
44 44 44 43 43 43 43 43 43 37 255 37 20 201 20 19 195 19 18 187 18 17
178 17 16 169 16 16 160 16 15 150 15
66 66 66 28 51 28 28 51 28 65 88 65 27 50 27 26 49 26 26 49 26 26 49
26 26 49 26 25 48 25 7 30 7 7 30 7 7 30 7 7 30 7 7 30 7 15 38 15 15
38 15 24 24 24 24 24 24 24 24 24 24 24 24 24 24 24 60 60 60 59 59 59
59 59 59 59 59 59 58 58 58 58 58 58 58 58 58 58 58 58 57 57 57 57 57
57 57 57 57 56 56 56 56 56 56 56 56 56 56 56 56 22 22 22 22 22 22 22
22 22 21 21 21 17 132 17 83 181 83 9 93 9 7 78 7 6 64 6 5 50 5 3 36
3 2 25 2 2 25 2 2 25 2 2 25 2 2 25 2 2 25 2 2 25 2 2 25 2 22 223 22
17 40 17 47 70 47 50 50 50 50 50 50 49 49 49 49 49 49 49 49 49 49 49
49 48 48 48 5 5 5 5 5 5 5 5 5 5 5 5 5 5 5 19 19 19 18 18 18 18 18 18
18 18 18 18 18 18 18 18 18 18 18 18 18 18 18 18 18 18 18 18 18 45 45
45 45 45 45 45 45 45 45 45 45 44 44 44 44 44 44 44 44 44 44 44 44 44
44 44 44 44 44 43 43 43 71 255 71 19 198 19 19 191 19 18 183 18 17 174
17 16 165 16 15 156 15 14 146 14
65 65 65 65 65 65 28 51 28 65 88 65 64 87 64 63 86 63 26 49 26 26 49
26 26 49 26 7 30 7 7 30 7 7 30 7 7 30 7 15 38 15 15 38 15 15 38 15 5
5 5 5 5 5 12 12 12 12 12 12 12 12 12 12 12 12 12 12 12 12 12 12 59 59
59 58 58 58 58 58 58 58 58 58 57 57 57 57 57 57 57 57 57 57 57 57 56
56 56 22 22 22 22 22 22 22 22 22 22 22 22 22 22 22 22 22 22 22 22 22
21 21 21 16 120 16 71 159 71 71 145 71 35 96 35 5 53 5 3 39 3 2 26 2
2 25 2 2 25 2 2 25 2 2 25 2 2 25 2 2 25 2 2 25 2 11 34 11 30 188 30
45 68 45 48 71 48 50 50 50 49 49 49 49 49 49 49 49 49 19 19 19 19 19
19 19 19 19 19 19 19 19 19 19 19 19 19 19 19 19 19 19 19 19 19 19 18
18 18 18 18 18 18 18 18 18 18 18 18 18 18 18 18 18 46 46 46 46 46 46
45 45 45 45 45 45 45 45 45 181 90 90 143 71 71 97 48 48 40 20 20 44
44 44 44 44 44 44 44 44 44 44 44 32 214 32 22 225 22 19 194 19 18 187
18 17 179 17 19 172 19 16 161 16 15 151 15 14 142 14
26 26 26 25 25 25 25 25 25 27 50 27 64 87 64 64 87 64 63 86 63 15 38
15 7 30 7 7 30 7 7 30 7 15 38 15 15 38 15 15 38 15 15 38 15 12 12 12
12 12 12 12 12 12 12 12 12 12 12 12 12 12 12 12 12 12 12 12 12 12 12
12 12 12 12 12 12 12 58 58 58 57 57 57 57 57 57 22 22 22 22 22 22 22
22 22 22 22 22 22 22 22 22 22 22 22 22 22 22 22 22 22 22 22 22 22 22
21 21 21 21 21 21 15 108 15 21 99 21 64 128 64 28 79 28 25 63 25 19
45 19 13 36 13 17 40 17 2 25 2 2 25 2 8 31 8 27 50 27 35 58 35 19 42
168 19 42 19 20 43 20 20 43 20 50 73 50 50 50 50 19 19 19 19 19 19 19
19 19 19 19 19 19 19 19 19 19 19 19 19 19 19 19 19 19 19 19 19 19 19
19 19 19 19 19 19 18 18 18 18 18 18 18 18 18 46 46 46 46 46 46 46 46
46 46 46 46 46 46 46 45 45 45 45 45 45 194 97 97 191 43 43 126 12 12
81 8 8 30 3 3 25 2 2 44 44 44 44 44 44 44 44 44 39 217 39 79 255 79
18 189 18 18 181 18 32 188 32 41 189 41 15 156 15 14 146 14 13 137 13

25 25 25 25 25 25 25 25 25 25 25 25 25 25 25 64 87 64 15 38 15 15 38
15 15 38 15 15 38 15 15 38 15 15 38 15 15 38 15 12 12 12 12 12 12 12
12 12 12 12 12 12 12 12 12 12 12 12 12 12 12 12 12 12 12 12 12 12 12
12 12 12 12 12 12 5 5 5 5 5 5 22 22 22 22 22 22 22 22 22 22 22 22 22
22 22 22 22 22 22 22 22 22 22 22 22 22 22 22 22 22 22 22 22 21 21 21
21 21 21 54 54 54 64 147 64 62 130 62 28 82 28 26 67 26 14 42 116 15
38 28 52 75 52 50 73 50 20 43 20 20 43 20 20 43 20 20 43 20 46 69 46
20 43 20 48 70 48 7 30 7 7 30 7 51 73 51 20 20 20 19 19 19 19 19 19
19 19 19 19 19 19 19 19 19 19 19 19 19 19 19 19 19 19 19 19 19 19 19
19 19 19 19 19 19 19 47 47 47 47 47 47 47 47 47 46 46 46 46 46 46 46
46 46 46 46 46 46 46 46 46 46 46 45 45 45 168 16 16 138 69 69 100 50
50 57 28 28 25 12 12 25 12 12 17 17 17 17 17 17 17 17 17 32 205 32 44
201 31 18 183 18 17 175 17 16 167 16 15 159 15 15 150 15 14 141 14 13
131 13
25 25 25 25 25 25 25 25 25 25 25 25 62 62 62 12 12 12 12 12 12 12 12
12 12 12 12 12 12 12 12 12 12 12 12 12 12 12 12 12 12 12 12 12 12 12
12 12 12 12 12 12 12 12 12 12 12 12 12 12 12 12 12 5 5 5 5 5 5 5 5 5
5 5 5 5 5 5 5 5 5 5 5 5 22 22 22 22 22 22 22 22 22 22 22 22 22 22 22
22 22 22 22 22 22 22 22 22 21 21 21 54 54 54 54 54 54 54 54 54 54 54
54 62 137 62 60 119 60 26 70 26 24 56 24 55 78 55 5 28 28 7 30 7 22
45 22 51 74 51 50 73 50 49 72 49 49 72 49 49 72 49 49 72 49 7 30 7 7
30 7 15 38 15 7 30 7 19 19 19 19 19 19 19 19 19 19 19 19 19 19 19 19
19 19 19 19 19 19 19 19 19 19 19 19 19 19 48 48 48 47 47 47 47 47 47
47 47 47 47 47 47 47 47 47 46 46 46 46 46 46 46 46 46 46 46 46 46 46
46 46 46 46 45 45 45 130 65 65 105 52 52 69 6 6 26 2 2 25 2 2 25 2 2
17 17 17 17 17 17 35 196 35 37 205 37 39 203 39 30 189 43 19 194 19
16 161 16 15 152 15 14 144 14 13 135 13 12 125 12
63 63 63 63 63 63 62 62 62 62 62 62 62 62 62 12 12 12 12 12 12 12 12
12 12 12 12 12 12 12 12 12 12 12 12 12 12 12 12 12 12 12 12 12 12 12
12 12 12 12 12 5 5 5 5 5 5 5 5 5 5 5 5 5 5 5 5 5 5 5 5 5 5 5 5 5 5 5
5 5 5 5 5 5 22 22 22 22 22 22 22 22 22 22 22 22 22 22 22 55 55 55 55
55 55 54 54 54 54 54 54 54 54 54 54 54 54 54 54 54 53 53 53 53 53 53
59 108 59 25 60 25 23 46 23 54 77 54 54 77 54 53 76 53 22 45 22 22 45
22 22 45 22 22 44 22 21 44 21 21 44 21 7 30 7 7 30 7 15 38 15 15 38
15 20 20 20 19 19 19 19 19 19 19 19 19 19 19 19 19 19 19 19 19 19 19
19 19 48 48 48 48 48 48 48 48 48 47 47 47 47 47 47 47 47 47 47 47 47
47 47 47 47 47 47 46 46 46 46 46 46 46 46 46 46 46 46 46 46 46 46 46
46 45 45 45 45 45 45 61 6 6 29 2 2 25 12 12 25 12 12 5 5 5 5 5 5 5 5
5 5 5 5 65 225 65 37 194 37 70 245 70 34 203 34 15 154 15 14 146 14
13 137 13 12 128 12 11 119 11
62 62 62 62 62 62 62 62 62 61 61 61 12 12 12 12 12 12 12 12 12 12 12
12 12 12 12 12 12 12 12 12 12 12 12 12 5 5 5 5 5 5 5 5 5 5 5 5 5 5 5
5 5 5 5 5 5 5 5 5 5 5 5 5 5 5 5 5 5 5 5 5 5 5 5 5 5 5 5 5 5 5 5 5 22
22 22 56 56 56 55 55 55 55 55 55 55 55 55 55 55 55 54 54 54 54 54 54
54 54 54 54 54 54 54 54 54 53 53 53 53 53 53 53 53 53 53 53 53 24 49
24 23 46 23 23 46 23 54 77 54 53 76 53 53 76 53 52 75 52 22 45 22 22
45 22 22 45 22 7 30 7 7 30 7 15 38 15 15 38 15 5 5 5 5 5 5 5 5 5 5 5
5 5 5 5 5 5 5 12 12 12 12 12 12 48 48 48 48 48 48 48 48 48 48 48 48
47 47 47 47 47 47 47 47 47 47 47 47 47 47 47 47 47 47 46 46 46 46 46
46 46 46 46 46 46 46 46 46 46 18 18 18 18 18 18 18 18 18 18 18 18 5
5 5 25 2 2 5 5 5 5 5 5 5 5 5 5 5 5 5 5 5 63 215 63 29 179 29 21 165
21 30 192 30 39 171 39 26 151 26 13 130 13 12 121 12 11 112 11

