P3
100 50
255
0 0 0 0 0 0 0 0 0 0 0 0 0 0 0 0 0 0 0 0 0 0 0 0 0 0 0 0 0 0 0 0 0 0
0 0 0 0 0 0 0 0 0 0 0 0 0 0 0 0 0 0 0 0 0 0 0 0 0 0 0 0 0 0 0 0 0 0
0 0 0 0 0 0 0 0 0 0 0 0 0 0 0 0 0 0 0 0 0 0 0 0 0 0 0 0 0 0 0 0 0 0
0 0 0 0 0 0 0 0 0 0 0 0 0 0 0 0 0 0 0 0 0 0 0 0 0 0 0 0 0 0 0 0 0 0
0 0 0 0 0 0 0 0 0 0 0 0 0 0 0 0 0 0 0 0 0 0 0 0 0 0 0 0 0 0 0 0 0 0
0 0 0 0 0 0 0 0 0 0 0 0 0 0 0 0 0 0 0 0 0 0 0 0 0 0 0 0 0 0 0 0 0 0
0 0 0 0 0 0 0 0 0 0 0 0 0 0 0 0 0 0 0 0 0 0 0 0 0 0 0 0 0 0 0 0 0 0
0 0 0 0 0 0 0 0 0 0 0 0 0 0 0 0 0 0 0 0 0 0 0 0 0 0 0 0 0 0 0 0 0 0
0 0 0 0 0 0 0 0 0 0 0 0 0 0 0 0 0 0 0 0 0 0 0 0 0 0 0 0
0 0 0 0 0 0 0 0 0 0 0 0 0 0 0 0 0 0 0 0 0 0 0 0 0 0 0 0 0 0 0 0 0 0
0 0 0 0 0 0 0 0 0 0 0 0 0 0 0 0 0 0 0 0 0 0 0 0 0 0 0 0 0 0 0 0 0 0
0 0 0 0 0 0 0 0 0 0 0 0 0 0 0 0 0 0 0 0 0 0 0 0 0 0 0 0 0 0 0 0 0 0
0 0 0 0 0 0 0 0 0 0 0 0 0 0 0 0 0 0 0 0 0 0 0 0 0 0 0 0 0 0 0 0 0 0
0 0 0 0 0 0 0 0 0 0 0 0 0 0 0 0 0 0 0 0 0 0 0 0 0 0 0 0 0 0 0 0 0 0
0 0 0 0 0 0 0 0 0 0 0 0 0 0 0 0 0 0 0 0 0 0 0 0 0 0 0 0 0 0 0 0 0 0
0 0 0 0 0 0 0 0 0 0 0 0 0 0 0 0 0 0 0 0 0 0 0 0 0 0 0 0 0 0 0 0 0 0
0 0 0 0 0 0 0 0 0 0 0 0 0 0 0 0 0 0 0 0 0 0 0 0 0 0 0 0 0 0 0 0 0 0
0 0 0 0 0 0 0 0 0 0 0 0 0 0 0 0 0 0 0 0 0 0 0 0 0 0 0 0
0 0 0 0 0 0 0 0 0 0 0 0 0 0 0 0 0 0 0 0 0 0 0 0 0 0 0 0 0 0 0 0 0 0
0 0 0 0 0 0 0 0 0 0 0 0 0 0 0 0 0 0 0 0 0 0 0 0 0 0 0 0 0 0 0 0 0 0
0 0 0 0 0 0 0 0 0 0 0 0 0 0 0 0 0 0 0 0 0 0 0 0 0 0 0 0 0 0 0 0 0 0
0 0 0 0 0 0 0 0 0 0 0 0 0 0 0 0 0 0 0 0 0 0 0 0 0 0 0 0 0 0 0 0 0 0
0 0 0 0 0 0 0 0 0 0 0 0 0 0 0 0 0 0 0 0 0 0 0 0 0 0 0 0 0 0 0 0 0 0
0 0 0 0 0 0 0 0 0 0 0 0 0 0 0 0 0 0 0 0 0 0 0 0 0 0 0 0 0 0 0 0 0 0
0 0 0 0 0 0 0 0 0 0 0 0 0 0 0 0 0 0 0 0 0 0 0 0 0 0 0 0 0 0 0 0 0 0
0 0 0 0 0 0 0 0 0 0 0 0 0 0 0 0 0 0 0 0 0 0 0 0 0 0 0 0 0 0 0 0 0 0
0 0 0 0 0 0 0 0 0 0 0 0 0 0 0 0 0 0 0 0 0 0 0 0 0 0 0 0
0 0 0 0 0 0 0 0 0 0 0 0 0 0 0 0 0 0 0 0 0 0 0 0 0 0 0 0 0 0 0 0 0 0
0 0 0 0 0 0 0 0 0 0 0 0 0 0 0 0 0 0 0 0 0 0 0 0 0 0 0 0 0 0 0 0 0 0
0 0 0 0 0 0 0 0 0 0 0 0 0 0 0 0 0 0 0 0 0 0 0 0 0 0 0 0 0 0 0 0 0 0
0 0 0 0 0 0 0 0 0 0 0 0 0 0 0 0 0 0 0 0 0 0 0 0 0 0 0 0 0 0 0 0 0 0
0 0 0 0 0 0 0 0 0 0 0 0 0 0 0 0 0 0 0 0 0 0 0 0 0 0 0 0 0 0 0 0 0 0
0 0 0 0 0 0 0 0 0 0 0 0 0 0 0 0 0 0 0 0 0 0 0 0 0 0 0 0 0 0 0 0 0 0
0 0 0 0 0 0 0 0 0 0 0 0 0 0 0 0 0 0 0 0 0 0 0 0 0 0 0 0 0 0 0 0 0 0
0 0 0 0 0 0 0 0 0 0 0 0 0 0 0 0 0 0 0 0 0 0 0 0 0 0 0 0 0 0 0 0 0 0
0 0 0 0 0 0 0 0 0 0 0 0 0 0 0 0 0 0 0 0 0 0 0 0 0 0 0 0
0 0 0 0 0 0 0 0 0 0 0 0 0 0 0 0 0 0 0 0 0 0 0 0 0 0 0 0 0 0 0 0 0 0
0 0 0 0 0 0 0 0 0 0 0 0 0 0 0 0 0 0 0 0 0 0 0 0 0 0 0 0 0 0 0 0 0 0
0 0 0 0 0 0 0 0 0 0 0 0 0 0 0 0 0 0 0 0 0 0 0 0 0 0 0 0 0 0 0 0 0 0
0 0 0 0 0 0 0 0 0 0 0 0 0 0 0 0 0 0 0 0 0 0 0 0 0 0 0 0 0 0 0 0 0 0
0 0 0 0 0 0 0 0 0 0 0 0 0 0 0 0 0 0 0 0 0 0 0 0 0 0 0 0 0 0 0 0 0 0
0 0 0 0 0 0 0 0 0 0 0 0 0 0 0 0 0 0 0 0 0 0 0 0 0 0 0 0 0 0 0 0 0 0
0 0 0 0 0 0 0 0 0 0 0 0 0 0 0 0 0 0 0 0 0 0 0 0 0 0 0 0 0 0 0 0 0 0
0 0 0 0 0 0 0 0 0 0 0 0 0 0 0 0 0 0 0 0 0 0 0 0 0 0 0 0 0 0 0 0 0 0
0 0 0 0 0 0 0 0 0 0 0 0 0 0 0 0 0 0 0 0 0 0 0 0 0 0 0 0
0 0 0 0 0 0 0 0 0 0 0 0 0 0 0 0 0 0 0 0 0 0 0 0 0 0 0 0 0 0 0 0 0 0
0 0 0 0 0 0 0 0 0 0 0 0 0 0 0 0 0 0 0 0 0 0 0 0 0 0 0 0 0 0 0 0 0 0
0 0 0 0 0 0 0 0 0 0 0 0 0 0 0 0 0 0 0 0 0 0 0 0 0 0 0 0 0 0 0 0 0 0
0 0 0 0 0 0 0 0 0 0 0 0 0 0 0 0 0 0 0 0 0 0 0 0 0 0 0 0 0 0 0 0 0 0
0 0 0 0 0 0 0 0 0 0 0 0 0 0 0 0 0 0 0 0 0 0 0 0 0 0 0 0 0 0 0 0 0 0
0 0 0 0 0 0 0 0 0 0 0 0 0 0 0 0 0 0 0 0 0 0 0 0 0 0 0 0 0 0 0 0 0 0
0 0 0 0 0 0 0 0 0 0 0 0 0 0 0 0 0 0 0 0 0 0 0 0 0 0 0 0 0 0 0 0 0 0
0 0 0 0 0 0 0 0 0 0 0 0 0 0 0 0 0 0 0 0 0 0 0 0 0 0 0 0 0 0 0 0 0 0
0 0 0 0 0 0 0 0 0 0 0 0 0 0 0 0 0 0 0 0 0 0 0 0 0 0 0 0
0 0 0 0 0 0 0 0 0 0 0 0 0 0 0 0 0 0 0 0 0 0 0 0 0 0 0 0 0 0 0 0 0 0
0 0 0 0 0 0 0 0 0 0 0 0 0 0 0 0 0 0 0 0 0 0 0 0 0 0 0 0 0 0 0 0 0 0
0 0 0 0 0 0 0 0 0 0 0 0 0 0 0 0 0 0 0 0 0 0 0 0 0 0 0 0 0 0 0 0 0 0
0 0 0 0 0 0 0 0 0 0 0 0 0 0 0 0 0 0 0 0 0 0 0 0 0 0 0 0 0 0 0 0 0 0
0 0 0 0 0 0 0 0 0 0 0 0 0 0 0 0 0 0 0 0 0 0 0 0 0 0 0 0 0 0 0 0 0 0
0 0 0 0 0 0 0 0 0 0 0 0 0 0 0 0 0 0 0 0 0 0 0 0 0 0 0 0 0 0 0 0 0 0
0 0 0 0 0 0 0 0 0 0 0 0 0 0 0 0 0 0 0 0 0 0 0 0 0 0 0 0 0 0 0 0 0 0
0 0 0 0 0 0 0 0 0 0 0 0 0 0 0 0 0 0 0 0 0 0 0 0 0 0 0 0 0 0 0 0 0 0
0 0 0 0 0 0 0 0 0 0 0 0 0 0 0 0 0 0 0 0 0 0 0 0 0 0 0 0
0 0 0 0 0 0 0 0 0 0 0 0 0 0 0 0 0 0 0 0 0 0 0 0 0 0 0 0 0 0 0 0 0 0
0 0 0 0 0 0 0 0 0 0 0 0 0 0 0 0 0 0 0 0 0 0 0 0 0 0 0 0 0 0 0 0 0 0
0 0 0 0 0 0 0 0 0 0 0 0 0 0 0 0 0 0 0 0 0 0 0 0 0 0 0 0 0 0 0 0 0 0
0 0 0 0 0 0 0 0 0 0 0 0 0 0 0 0 0 0 0 0 0 0 0 0 0 0 0 0 0 0 0 0 0 0
0 0 0 0 0 0 0 0 0 0 0 0 0 0 0 0 0 0 0 0 0 0 0 0 0 0 0 0 0 0 0 0 0 0
0 0 0 0 0 0 0 0 0 0 0 0 0 0 0 0 0 0 0 0 0 0 0 0 0 0 0 0 0 0 0 0 0 0
0 0 0 0 0 0 0 0 0 0 0 0 0 0 0 0 0 0 0 0 0 0 0 0 0 0 0 0 0 0 0 0 0 0
0 0 0 0 0 0 0 0 0 0 0 0 0 0 0 0 0 0 0 0 0 0 0 0 0 0 0 0 0 0 0 0 0 0
0 0 0 0 0 0 0 0 0 0 0 0 0 0 0 0 0 0 0 0 0 0 0 0 0 0 0 0
0 0 0 0 0 0 0 0 0 0 0 0 0 0 0 0 0 0 0 0 0 0 0 0 0 0 0 0 0 0 0 0 0 0
0 0 0 0 0 0 0 0 0 0 0 0 0 0 0 0 0 0 0 0 0 0 0 0 0 0 0 0 0 0 0 0 0 0
0 0 0 0 0 0 0 0 0 0 0 0 0 0 0 0 0 0 0 0 0 0 0 0 0 0 0 0 0 0 0 0 0 0
0 0 0 0 0 0 0 0 0 0 0 0 0 0 0 0 0 0 14 144 14 13 139 13 13 132 13 12
121 12 0 0 0 0 0 0 0 0 0 0 0 0 0 0 0 0 0 0 0 0 0 0 0 0 0 0 0 0 0 0 0
0 0 0 0 0 0 0 0 0 0 0 0 0 0 0 0 0 0 0 0 0 0 0 0 0 0 0 0 0 0 0 0 0 0
0 0 0 0 0 0 0 0 0 0 0 0 0 0 0 0 0 0 0 0 0 0 0 0 0 0 0 0 0 0 0 0 0 0
0 0 0 0 0 0 0 0 0 0 0 0 0 0 0 0 0 0 0 0 0 0 0 0 0 0 0 0 0 0 0 0 0 0
0 0 0 0 0 0 0 0 0 0 0 0 0 0 0 0 0 0 0 0 0 0 0 0 0 0 0 0 0 0 0 0 0 0
0
0 0 0 0 0 0 0 0 0 0 0 0 0 0 0 0 0 0 0 0 0 0 0 0 0 0 0 0 0 0 0 0 0 0
0 0 0 0 0 0 0 0 0 0 0 0 0 0 0 0 0 0 0 0 0 0 0 0 0 0 0 0 0 0 0 0 0 0
0 0 0 0 0 0 0 0 0 0 0 0 0 0 0 0 0 0 0 0 0 0 0 0 0 0 0 0 0 0 0 0 0 0
0 0 0 0 0 0 17 171 17 17 172 17 17 170 17 16 166 16 16 161 16 15 155
15 14 148 14 14 140 14 13 131 13 12 120 12 10 108 10 9 91 9 0 0 0 0
0 0 0 0 0 0 0 0 0 0 0 0 0 0 0 0 0 0 0 0 0 0 0 0 0 0 0 0 0 0 0 0 0 0
0 0 0 0 0 0 0 0 0 0 0 0 0 0 0 0 0 0 0 0 0 0 0 0 0 0 0 0 0 0 0 0 0 0
0 0 0 0 0 0 0 0 0 0 0 0 0 0 0 0 0 0 0 0 0 0 0 0 0 0 0 0 0 0 0 0 0 0
0 0 0 0 0 0 0 0 0 0 0 0 0 0 0 0 0 0 0 0 0 0 0 0 0 0 0 0 0 0 0 0 0 0
0 0 0 0 0 0 0 0 0 0 0 0 0 0 0 0
0 0 0 0 0 0 0 0 0 0 0 0 0 0 0 0 0 0 0 0 0 0 0 0 0 0 0 0 0 0 0 0 0 0
0 0 0 0 0 0 0 0 0 0 0 0 0 0 0 0 0 0 0 0 0 0 0 0 0 0 0 0 0 0 0 0 0 0
0 0 0 0 0 0 0 0 0 0 0 0 0 0 0 0 0 0 0 0 0 0 0 0 0 0 0 0 0 0 0 0 0 0
18 183 18 18 185 18 18 184 18 18 181 18 17 177 17 17 172 17 16 167 16
16 160 16 15 154 15 14 146 14 13 138 13 12 129 12 11 119 11 10 107 10
9 93 9 7 74 7 0 0 0 0 0 0 0 0 0 0 0 0 0 0 0 0 0 0 0 0 0 0 0 0 0 0 0
0 0 0 0 0 0 0 0 0 0 0 0 0 0 0 0 0 0 0 0 0 0 0 0 0 0 0 0 0 0 0 0 0 0
0 0 0 0 0 0 0 0 0 0 0 0 0 0 0 0 0 0 0 0 0 0 0 0 0 0 0 0 0 0 0 0 0 0
0 0 0 0 0 0 0 0 0 0 0 0 0 0 0 0 0 0 0 0 0 0 0 0 0 0 0 0 0 0 0 0 0 0
0 0 0 0 0 0 0 0 0 0 0 0 0 0 0 0 0 0 0 0 0
0 0 0 0 0 0 0 0 0 0 0 0 0 0 0 0 0 0 0 0 0 0 0 0 0 0 0 0 0 0 0 0 0 0
0 0 0 0 0 0 0 0 0 0 0 0 0 0 0 0 0 0 0 0 0 0 0 0 0 0 0 0 0 0 0 0 0 0
0 0 0 0 0 0 0 0 0 0 0 0 0 0 0 0 0 0 0 0 0 0 0 0 0 0 0 0 18 183 18 19
192 19 19 193 19 19 191 19 18 188 18 18 185 18 18 180 18 17 175 17 16
169 16 16 163 16 15 156 15 14 149 14 14 141 14 13 133 13 12 123 12 11
113 11 10 102 10 8 88 8 7 72 7 0 0 0 0 0 0 0 0 0 0 0 0 0 0 0 0 0 0 0
0 0 0 0 0 0 0 0 0 0 0 0 0 0 0 0 0 0 0 0 0 0 0 0 0 0 0 0 0 0 0 0 0 0
0 0 0 0 0 0 0 0 0 0 0 0 0 0 0 0 0 0 0 0 0 0 0 0 0 0 0 0 0 0 0 0 0 0
0 0 0 0 0 0 0 0 0 0 0 0 0 0 0 0 0 0 0 0 0 0 0 0 0 0 0 0 0 0 0 0 0 0
0 0 0 0 0 0 0 0 0 0 0 0 0 0 0 0 0 0 0 0 0 0 0 0 0 0
0 0 0 0 0 0 0 0 0 0 0 0 0 0 0 0 0 0 0 0 0 0 0 0 0 0 0 0 0 0 0 0 0 0
0 0 0 0 0 0 0 0 0 0 0 0 0 0 0 0 0 0 0 0 0 0 0 0 0 0 0 0 0 0 0 0 0 0
0 0 0 0 0 0 0 0 0 0 0 0 0 0 0 0 0 0 0 0 0 0 0 0 0 19 191 19 19 197 19
19 198 19 19 196 19 19 194 19 19 190 19 18 186 18 18 181 18 17 176 17
17 171 17 16 164 16 15 158 15 15 151 15 14 143 14 13 135 13 12 126 12
11 116 11 10 106 10 9 94 9 8 81 8 6 64 6 3 39 3 0 0 0 0 0 0 0 0 0 0
0 0 0 0 0 0 0 0 0 0 0 0 0 0 0 0 0 0 0 0 0 0 0 0 0 0 0 0 0 0 0 0 0 0
0 0 0 0 0 0 0 0 0 0 0 0 0 0 0 0 0 0 0 0 0 0 0 0 0 0 0 0 0 0 0 0 0 0
0 0 0 0 0 0 0 0 0 0 0 0 0 0 0 0 0 0 0 0 0 0 0 0 0 0 0 0 0 0 0 0 0 0
0 0 0 0 0 0 0 0 0 0 0 0 0 0 0 0 0 0 0 0 0 0 0 0 0 0 0 0 0
0 0 0 0 0 0 0 0 0 0 0 0 0 0 0 0 0 0 0 0 0 0 0 0 0 0 0 0 0 0 0 0 0 0
0 0 0 0 0 0 0 0 0 0 0 0 0 0 0 0 0 0 0 0 0 0 0 0 0 0 0 0 0 0 0 0 0 0
0 0 0 0 0 0 0 0 0 0 0 0 0 0 0 0 0 0 0 0 0 0 19 193 19 20 200 20 20 201
20 20 200 20 19 198 19 19 195 19 19 191 19 18 186 18 18 182 18 17 176
17 17 171 17 16 164 16 15 158 15 15 151 15 14 143 14 13 135 13 12 127
12 11 118 11 10 108 10 9 97 9 8 85 8 7 71 7 5 54 5 2 27 2 0 0 0 0 0
0 0 0 0 0 0 0 0 0 0 0 0 0 0 0 0 0 0 0 0 0 0 0 0 0 0 0 0 0 0 0 0 0 0
0 0 0 0 0 0 0 0 0 0 0 0 0 0 0 0 0 0 0 0 0 0 0 0 0 0 0 0 0 0 0 0 0 0
0 0 0 0 0 0 0 0 0 0 0 0 0 0 0 0 0 0 0 0 0 0 0 0 0 0 0 0 0 0 0 0 0 0
0 0 0 0 0 0 0 0 0 0 0 0 0 0 0 0 0 0 0 0 0 0 0 0 0 0 0 0 0 0 0
0 0 0 0 0 0 0 0 0 0 0 0 0 0 0 0 0 0 0 0 0 0 0 0 0 0 0 0 0 0 0 0 0 0
0 0 0 0 0 0 0 0 0 0 0 0 0 0 0 0 0 0 0 0 0 0 0 0 0 0 0 0 0 0 0 0 0 0
0 0 0 0 0 0 0 0 0 0 0 0 0 0 0 0 0 0 0 19 191 19 20 201 20 20 203 20
20 202 20 20 200 20 19 198 19 19 194 19 19 190 19 18 186 18 18 181 18
17 175 17 17 170 17 16 164 16 15 157 15 15 150 15 14 143 14 13 135 13
12 127 12 11 118 11 10 108 10 9 98 9 8 87 8 7 74 7 5 59 5 4 41 4 2 25
2 0 0 0 0 0 0 0 0 0 0 0 0 0 0 0 0 0 0 0 0 0 0 0 0 0 0 0 0 0 0 0 0 0
0 0 0 0 0 0 0 0 0 0 0 0 0 0 0 0 0 0 0 0 0 0 0 0 0 0 0 0 0 0 0 0 0 0
0 0 0 0 0 0 0 0 0 0 0 0 0 0 0 0 0 0 0 0 0 0 0 0 0 0 0 0 0 0 0 0 0 0
0 0 0 0 0 0 0 0 0 0 0 0 0 0 0 0 0 0 0 0 0 0 0 0 0 0 0 0 0 0 0 0 0 0

0 0 0 0 0 0 0 0 0 0 0 0 0 0 0 0 0 0 0 0 0 0 0 0 0 0 0 0 0 0 0 0 0 0
0 0 0 0 0 0 0 0 0 0 0 0 0 0 0 0 0 0 0 0 0 0 0 0 0 0 0 0 0 0 0 0 0 0
0 0 0 0 0 0 0 0 0 0 0 0 0 0 0 0 0 0 0 20 200 20 20 203 20 20 203 20
20 202 20 20 200 20 19 197 19 19 193 19 18 189 18 18 184 18 17 179 17
17 174 17 16 168 16 16 162 16 15 156 15 14 149 14 14 142 14 13 134 13
12 126 12 11 117 11 10 108 10 9 98 9 8 87 8 7 75 7 6 62 6 4 46 4 2 26
2 0 0 0 0 0 0 0 0 0 0 0 0 0 0 0 0 0 0 0 0 0 0 0 0 0 0 0 0 0 0 0 0 0
0 0 0 0 0 0 0 0 0 0 0 0 0 0 0 0 0 0 0 0 0 0 0 0 0 0 0 0 0 0 0 0 0 0
0 0 0 0 0 0 0 0 0 0 0 0 0 0 0 0 0 0 0 0 0 0 0 0 0 0 0 0 0 0 0 0 0 0
0 0 0 0 0 0 0 0 0 0 0 0 0 0 0 0 0 0 0 0 0 0 0 0 0 0 0 0 0 0 0 0 0 0

5 5 5 13 13 13 5 5 5 13 13 13 5 5 5 5 5 5 13 13 13 5 5 5 13 13 13 5
5 5 13 13 13 5 5 5 13 13 13 5 5 5 13 13 13 5 5 5 13 13 13 13 13 13 5
5 5 13 13 13 5 5 5 13 13 13 5 5 5 13 13 13 5 5 5 13 13 13 5 5 5 13 13
13 19 195 19 20 202 20 20 203 20 20 203 20 20 201 20 19 198 19 19 195
19 19 191 19 18 187 18 18 183 18 17 177 17 17 172 17 16 166 16 16 160
16 15 154 15 14 147 14 14 140 14 13 132 13 12 124 12 11 116 11 10 107
10 9 97 9 8 87 8 7 75 7 6 63 6 4 48 4 3 31 3 2 25 2 13 13 13 5 5 5 13
13 13 5 5 5 13 13 13 13 13 13 5 5 5 13 13 13 5 5 5 13 13 13 5 5 5 13
13 13 5 5 5 13 13 13 5 5 5 13 13 13 5 5 5 5 5 5 13 13 13 5 5 5 13 13
13 5 5 5 13 13 13 5 5 5 13 13 13 5 5 5 13 13 13 5 5 5 5 5 5 13 13 13
5 5 5 13 13 13 5 5 5 13 13 13 5 5 5 13 13 13 5 5 5 13 13 13 5 5 5 5
5 5 13 13 13 5 5 5 13 13 13 5 5 5
17 17 17 7 7 7 17 17 17 7 7 7 17 17 17 7 7 7 17 17 17 7 7 7 17 17 17
7 7 7 17 17 17 7 7 7 17 17 17 7 7 7 17 17 17 7 7 7 17 17 17 7 7 7 7
7 7 17 17 17 7 7 7 17 17 17 7 7 7 17 17 17 7 7 7 17 17 17 7 7 7 18 180
18 19 198 19 20 202 20 20 202 20 20 201 20 19 199 19 19 196 19 19 193
19 18 189 18 18 185 18 18 180 18 17 175 17 17 170 17 16 164 16 15 158
15 15 152 15 14 145 14 13 138 13 13 130 13 12 122 12 11 114 11 10 105
10 9 96 9 8 86 8 7 75 7 6 63 6 4 49 4 3 33 3 2 25 2 17 17 17 7 7 7 17
17 17 7 7 7 17 17 17 17 17 17 7 7 7 17 17 17 7 7 7 17 17 17 7 7 7 17
17 17 7 7 7 17 17 17 7 7 7 17 17 17 7 7 7 17 17 17 7 7 7 17 17 17 7
7 7 17 17 17 7 7 7 17 17 17 7 7 7 17 17 17 7 7 7 7 7 7 17 17 17 6 6
6 17 17 17 6 6 6 17 17 17 6 6 6 17 17 17 6 6 6 17 17 17 6 6 6 17 17
17 6 6 6 17 17 17 6 6 6 17 17 17 6 6 6
21 21 21 21 21 21 8 8 8 8 8 8 21 21 21 21 21 21 8 8 8 8 8 8 21 21 21
21 21 21 8 8 8 8 8 8 21 21 21 21 21 21 8 8 8 8 8 8 22 22 22 22 22 22
8 8 8 8 8 8 22 22 22 22 22 22 8 8 8 8 8 8 22 22 22 22 22 22 8 8 8 19
191 19 19 198 19 20 200 20 20 200 20 19 199 19 19 197 19 19 194 19 19
190 19 25 193 25 34 198 34 19 179 19 17 172 17 16 167 16 16 161 16 15
155 15 14 149 14 14 142 14 13 135 13 12 128 12 12 120 12 11 112 11 10
103 10 9 94 9 8 84 8 7 73 7 6 61 6 4 48 4 3 33 3 2 25 2 2 25 2 21 21
21 8 8 8 8 8 8 21 21 21 21 21 21 8 8 8 8 8 8 21 21 21 21 21 21 8 8 8
8 8 8 21 21 21 21 21 21 8 8 8 8 8 8 21 21 21 21 21 21 8 8 8 8 8 8 21
21 21 21 21 21 8 8 8 8 8 8 21 21 21 21 21 21 8 8 8 8 8 8 21 21 21 21
21 21 8 8 8 8 8 8 21 21 21 20 20 20 8 8 8 8 8 8 20 20 20 20 20 20 8
8 8 8 8 8 20 20 20 20 20 20 8 8 8 8 8 8
25 25 25 25 25 25 25 25 25 10 10 10 10 10 10 10 10 10 25 25 25 25 25
25 25 25 25 10 10 10 10 10 10 10 10 10 25 25 25 25 25 25 25 25 25 10
10 10 10 10 10 10 10 10 26 26 26 26 26 26 26 26 26 10 10 10 10 10 10
10 10 10 26 26 26 26 26 26 26 26 26 19 192 19 19 197 19 19 198 19 19
198 19 19 196 19 19 194 19 19 191 19 20 189 20 65 230 65 73 235 73 20
177 20 16 169 16 16 164 16 15 158 15 15 152 15 14 146 14 13 139 13 13
132 13 12 125 12 11 117 11 10 109 10 10 100 10 9 91 9 8 81 8 7 71 7
5 59 5 4 47 4 3 32 3 2 25 2 2 25 2 10 10 10 10 10 10 25 25 25 25 25
25 25 25 25 10 10 10 10 10 10 10 10 10 25 25 25 25 25 25 10 10 10 10
10 10 10 10 10 25 25 25 25 25 25 24 24 24 9 9 9 9 9 9 9 9 9 24 24 24
24 24 24 24 24 24 9 9 9 9 9 9 9 9 9 24 24 24 24 24 24 24 24 24 9 9 9
9 9 9 9 9 9 24 24 24 24 24 24 24 24 24 9 9 9 9 9 9 9 9 9 23 23 23 23
23 23 23 23 23 9 9 9 9 9 9 9 9 9
11 11 11 11 11 11 11 11 11 29 29 29 29 29 29 29 29 29 29 29 29 11 11
11 11 11 11 11 11 11 11 11 11 29 29 29 29 29 29 29 29 29 11 11 11 11
11 11 11 11 11 11 11 11 29 29 29 29 29 29 29 29 29 29 29 29 11 11 11
11 11 11 11 11 11 11 11 11 28 186 28 19 190 19 19 194 19 19 195 19 19
194 19 19 193 19 19 190 19 18 187 18 19 185 19 36 198 36 29 187 29 17
171 17 16 165 16 16 160 16 15 154 15 14 148 14 14 142 14 13 136 13 12
129 12 12 121 12 11 114 11 10 106 10 9 97 9 8 88 8 7 78 7 6 68 6 5 57
5 4 44 4 3 30 3 2 25 2 2 25 2 28 28 28 28 28 28 28 28 28 28 28 28 11
11 11 11 11 11 11 11 11 11 11 11 28 28 28 28 28 28 28 28 28 11 11 11
11 11 11 11 11 11 11 11 11 27 27 27 27 27 27 27 27 27 27 27 27 11 11
11 11 11 11 11 11 11 10 10 10 27 27 27 27 27 27 27 27 27 27 27 27 10
10 10 10 10 10 10 10 10 10 10 10 26 26 26 26 26 26 26 26 26 26 26 26
10 10 10 10 10 10 10 10 10 26 26 26 26 26 26 26 26 26 26 26 26 10 10
10
32 32 32 32 32 32 32 32 32 32 32 32 13 13 13 13 13 13 13 13 13 13 13
13 13 13 13 32 32 32 32 32 32 32 32 32 32 32 32 32 32 32 13 13 13 13
13 13 13 13 13 13 13 13 32 32 32 32 32 32 32 32 32 32 32 32 32 32 32
13 13 13 13 13 13 13 13 13 17 177 17 18 188 18 19 191 19 19 192 19 19
191 19 18 189 18 18 186 18 18 183 18 18 180 18 18 176 18 17 172 17 16
167 16 16 162 16 15 156 15 15 151 15 14 145 14 13 138 13 13 132 13 12
125 12 11 118 11 11 110 11 10 102 10 9 94 9 8 85 8 7 75 7 6 65 6 5 54
5 4 41 4 2 28 2 2 25 2 2 25 2 8 31 8 31 31 31 31 31 31 31 31 31 31 31
31 12 12 12 12 12 12 12 12 12 12 12 12 30 30 30 30 30 30 30 30 30 30
30 30 30 30 30 12 12 12 12 12 12 12 12 12 12 12 12 12 12 12 30 30 30
30 30 30 30 30 30 29 29 29 29 29 29 11 11 11 11 11 11 11 11 11 11 11
11 11 11 11 29 29 29 29 29 29 29 29 29 29 29 29 11 11 11 11 11 11 11
11 11 11 11 11 11 11 11 28 28 28 28 28 28 28 28 28 28 28 28 28 28 28

35 35 35 14 14 14 14 14 14 14 14 14 14 14 14 14 14 14 14 14 14 35 35
35 35 35 35 35 35 35 35 35 35 35 35 35 14 14 14 14 14 14 14 14 14 14
14 14 14 14 14 14 14 14 35 35 35 35 35 35 35 35 35 35 35 35 35 35 35
35 35 35 14 14 14 14 14 14 30 188 30 18 184 18 18 187 18 18 187 18 18
187 18 18 185 18 18 182 18 17 179 17 17 175 17 17 171 17 16 167 16 16
162 16 15 157 15 15 152 15 14 146 14 14 141 14 13 134 13 12 128 12 12
121 12 11 114 11 10 106 10 9 98 9 9 90 9 8 81 8 7 71 7 6 61 6 5 50 5
3 38 3 2 25 2 2 25 2 2 25 2 9 32 9 13 13 13 13 13 13 13 13 13 13 13
13 13 13 13 13 13 13 33 33 33 33 33 33 33 33 33 33 33 33 32 32 32 32
32 32 13 13 13 13 13 13 13 13 13 13 13 13 12 12 12 12 12 12 32 32 32
32 32 32 32 32 32 32 32 32 32 32 32 12 12 12 12 12 12 12 12 12 12 12
12 12 12 12 12 12 12 31 31 31 31 31 31 31 31 31 31 31 31 31 31 31 31
31 31 12 12 12 12 12 12 12 12 12 12 12 12 12 12 12 30 30 30 30 30 30

37 37 37 37 37 37 37 37 37 37 37 37 37 37 37 15 15 15 15 15 15 15 15
15 15 15 15 15 15 15 15 15 15 15 15 15 37 37 37 37 37 37 37 37 37 37
37 37 37 37 37 37 37 37 37 37 37 15 15 15 15 15 15 15 15 15 15 15 15
15 15 15 15 15 15 37 37 37 27 182 27 18 180 18 18 182 18 18 183 18 18
182 18 18 180 18 17 178 17 17 174 17 17 171 17 16 167 16 16 163 16 15
158 15 15 153 15 14 148 14 14 142 14 13 136 13 13 130 13 12 123 12 11
116 11 10 109 10 10 102 10 9 94 9 8 85 8 7 76 7 6 67 6 5 57 5 4 46 4
3 34 3 2 25 2 2 25 2 18 41 18 12 35 12 35 35 35 14 14 14 14 14 14 14
14 14 14 14 14 14 14 14 14 14 14 14 14 14 35 35 35 34 34 34 34 34 34
34 34 34 34 34 34 34 34 34 13 13 13 13 13 13 13 13 13 13 13 13 13 13
13 13 13 13 13 13 13 33 33 33 33 33 33 33 33 33 33 33 33 33 33 33 33
33 33 33 33 33 13 13 13 13 13 13 13 13 13 13 13 13 13 13 13 13 13 13
32 32 32 32 32 32 32 32 32 32 32 32 32 32 32 32 32 32 32 32 32 12 12
12
40 40 40 40 40 40 16 16 16 16 16 16 16 16 16 16 16 16 16 16 16 16 16
16 16 16 16 16 16 16 40 40 40 40 40 40 39 39 39 39 39 39 39 39 39 39
39 39 39 39 39 15 15 15 15 15 15 15 15 15 15 15 15 15 15 15 15 15 15
15 15 15 15 15 15 39 39 39 49 200 49 50 208 50 29 189 29 41 201 41 33
192 33 17 175 17 17 173 17 17 170 17 16 166 16 16 162 16 15 158 15 15
153 15 14 148 14 14 143 14 13 137 13 13 131 13 12 125 12 11 119 11 11
112 11 10 105 10 9 97 9 8 89 8 8 81 8 7 72 7 6 62 6 5 52 5 10 47 10
22 49 22 25 48 25 27 50 27 13 36 13 31 54 31 37 37 37 37 37 37 37 37
37 37 37 37 37 37 37 14 14 14 14 14 14 14 14 14 14 14 14 14 14 14 14
14 14 14 14 14 14 14 14 36 36 36 36 36 36 36 36 36 36 36 36 35 35 35
35 35 35 35 35 35 14 14 14 14 14 14 14 14 14 14 14 14 14 14 14 14 14
14 14 14 14 14 14 14 35 35 35 34 34 34 34 34 34 34 34 34 34 34 34 34
34 34 34 34 34 34 34 34 13 13 13 13 13 13 13 13 13 13 13 13 13 13 13
13 13 13
42 42 42 42 42 42 42 42 42 16 16 16 16 16 16 16 16 16 16 16 16 16 16
16 16 16 16 16 16 16 16 16 16 41 41 41 41 41 41 41 41 41 41 41 41 41
41 41 41 41 41 41 41 41 41 41 41 41 41 41 16 16 16 16 16 16 16 16 16
16 16 16 16 16 16 16 16 16 30 174 30 56 209 56 60 215 60 35 191 35 66
221 66 38 191 38 73 224 73 75 224 75 76 222 76 39 181 39 38 176 38 69
203 69 65 194 65 61 185 61 57 177 57 29 143 29 51 160 51 26 129 26 25
121 25 24 114 24 23 106 23 42 118 42 21 89 21 39 100 39 18 70 18 37
79 37 74 107 145 9 32 70 15 38 15 34 57 34 34 57 34 33 56 33 15 15 15
15 15 15 15 15 15 15 15 15 15 15 15 38 38 38 38 38 38 38 38 38 38 38
38 38 38 38 37 37 37 37 37 37 37 37 37 15 15 15 15 15 15 15 15 15 14
14 14 14 14 14 14 14 14 14 14 14 14 14 14 14 14 14 36 36 36 36 36 36
36 36 36 36 36 36 36 36 36 36 36 36 36 36 36 36 36 36 14 14 14 14 14
14 14 14 14 14 14 14 14 14 14 14 14 14 14 14 14 14 14 14 14 14 14 35
35 35 35 35 35 35 35 35
43 43 43 43 43 43 43 43 43 43 43 43 43 43 43 43 43 43 43 43 43 17 17
17 17 17 17 17 17 17 17 17 17 17 17 17 17 17 17 17 17 17 17 17 17 17
17 17 17 17 17 43 43 43 43 43 43 42 42 42 42 42 42 42 42 42 42 42 42
42 42 42 42 42 42 42 42 42 52 189 52 32 178 32 33 182 33 61 211 61 35
184 35 64 212 64 65 211 65 35 178 35 65 205 65 35 171 35 34 167 34 63
192 63 33 157 33 32 151 32 59 173 59 57 166 57 29 132 29 28 126 28 27
118 27 50 135 50 48 127 48 47 118 47 45 109 45 43 99 43 19 66 19 82
120 160 66 94 130 30 53 58 16 39 16 36 59 36 16 38 16 15 38 15 40 40
40 40 40 40 39 39 39 39 39 39 39 39 39 39 39 39 15 15 15 15 15 15 15
15 15 15 15 15 15 15 15 15 15 15 15 15 15 15 15 15 15 15 15 15 15 15
38 38 38 38 38 38 38 38 38 38 38 38 38 38 38 38 38 38 38 38 38 38 38
38 38 38 38 15 15 15 14 14 147 15 15 155 77 77 155 75 75 151 71 71 143
65 65 131 56 56 112 14 14 14 14 14 14 37 37 37 36 36 36 36 36 36 36
36 36 36 36 36 36 36 36 36 36 36
18 18 18 18 18 18 18 18 18 18 18 18 18 18 18 44 44 44 44 44 44 44 44
44 44 44 44 44 44 44 44 44 44 44 44 44 44 44 44 44 44 44 44 44 44 17
17 17 17 17 17 17 17 17 17 17 17 17 17 17 17 17 17 17 17 17 17 17 17
17 17 17 17 17 17 17 17 17 29 155 29 56 195 56 32 175 32 33 177 33 60
203 60 66 183 41 91 193 53 33 171 33 60 195 60 60 191 60 32 159 32 31
155 31 58 177 58 57 171 57 56 165 56 29 133 29 28 126 28 27 119 27 26
112 26 25 105 25 48 121 48 47 113 47 45 104 45 44 94 44 19 61 19 15
48 127 11 34 95 4 27 22 12 35 12 38 61 38 16 39 16 36 59 36 16 16 16
16 16 16 16 16 16 16 16 16 16 16 16 16 16 16 16 16 16 16 16 16 16 16
16 40 40 40 40 40 40 40 40 40 40 40 40 40 40 40 40 40 40 39 39 39 39
39 39 39 39 39 39 39 39 39 39 39 15 15 15 15 15 15 15 15 15 15 15 15
16 16 162 17 17 175 18 18 180 18 18 180 17 17 177 17 17 172 82 82 164
77 77 155 71 71 142 63 63 126 52 52 104 38 38 38 38 38 38 38 38 38 37
37 37 37 37 37 37 37 37 15 15 15
46 46 46 46 46 46 46 46 46 46 46 46 18 18 18 18 18 18 18 18 18 18 18
18 18 18 18 18 18 18 18 18 18 18 18 18 18 18 18 18 18 18 18 18 18 18
18 18 45 45 45 45 45 45 45 45 45 45 45 45 45 45 45 45 45 45 45 45 45
45 45 45 45 45 45 44 44 44 44 44 44 30 161 30 31 167 31 58 195 58 58
195 58 35 153 17 35 151 16 49 163 32 58 187 58 58 183 58 31 153 31 30
148 30 30 143 30 29 138 29 54 158 54 53 152 53 52 145 52 51 138 51 50
131 50 24 99 24 23 91 23 22 83 22 21 74 21 20 65 20 19 55 19 7 33 44
5 28 28 12 35 12 39 62 39 17 40 17 12 35 12 16 16 16 16 16 16 16 16
16 16 16 16 42 42 42 41 41 41 41 41 41 41 41 41 41 41 41 41 41 41 41
41 41 41 41 41 41 41 41 41 41 41 41 41 41 16 16 16 16 16 16 16 16 16
16 16 16 16 16 16 16 16 16 16 16 16 16 16 16 16 16 16 17 17 174 18 18
186 19 19 191 19 19 193 19 19 191 18 18 188 18 18 182 17 17 175 16 16
166 77 77 155 71 71 142 63 63 126 52 52 104 36 36 72 15 15 15 15 15
15 15 15 15 15 15 15 15 15 15
18 18 18 18 18 18 18 18 18 18 18 18 18 18 18 18 18 18 47 47 47 47 47
47 46 46 46 46 46 46 46 46 46 46 46 46 46 46 46 46 46 46 46 46 46 46
46 46 46 46 46 46 46 46 18 18 18 18 18 18 18 18 18 18 18 18 18 18 18
18 18 18 18 18 18 18 18 18 18 18 18 29 150 29 55 183 55 56 186 56 31
161 31 34 145 16 34 144 16 34 141 15 56 179 56 56 175 56 55 171 55 29
141 29 29 136 29 28 131 28 27 125 27 27 119 27 51 138 51 50 131 50 49
124 49 48 117 48 47 109 47 46 100 46 44 91 44 43 81 43 42 71 42 42 65
58 42 65 55 40 63 40 17 40 17 17 40 17 12 35 12 43 43 43 43 43 43 43
43 43 42 42 42 42 42 42 42 42 42 42 42 42 42 42 42 42 42 42 42 42 42
16 16 16 16 16 16 16 16 16 16 16 16 16 16 16 16 16 16 16 16 16 16 16
16 16 16 16 16 16 16 16 16 16 16 16 16 41 41 41 87 87 175 95 95 190
98 98 197 19 19 199 19 19 199 19 19 197 19 19 193 18 18 188 18 18 181
17 17 172 16 16 162 75 75 150 68 68 136 59 59 118 48 48 96 31 31 63
15 15 15 15 15 15 15 15 15 15 15 15
48 48 48 48 48 48 48 48 48 48 48 48 48 48 48 48 48 48 47 47 47 47 47
47 47 47 47 19 19 19 19 19 19 19 19 19 19 19 19 19 19 19 18 18 18 18
18 18 18 18 18 18 18 18 18 18 18 18 18 18 18 18 18 18 18 18 46 46 46
46 46 46 46 46 46 46 46 46 46 46 46 27 133 27 54 172 54 55 176 55 30
153 30 30 152 30 33 136 15 33 142 23 55 171 55 55 168 55 54 164 54 28
134 28 28 129 28 27 124 27 26 118 26 26 112 26 25 106 25 24 99 24 24
92 24 47 109 47 46 101 46 45 93 45 44 84 44 42 74 42 49 72 122 44 67
75 25 48 32 17 40 17 17 40 17 6 29 6 6 29 6 44 44 44 43 43 43 43 43
43 43 43 43 43 43 43 17 17 17 17 17 17 17 17 17 17 17 17 17 17 17 17
17 17 17 17 17 17 17 17 17 17 17 17 17 17 17 17 17 17 17 17 17 17 17
42 42 42 42 42 42 42 42 42 42 42 42 83 83 167 93 93 187 98 98 197 100
100 201 101 101 203 20 20 202 20 20 200 19 19 196 19 19 190 18 18 183
17 17 175 16 16 165 15 15 154 70 70 141 62 62 125 53 53 106 41 41 82
20 20 41 16 16 16 16 16 16 16 16 16
19 19 19 19 19 19 19 19 19 19 19 19 19 19 19 19 19 19 19 19 19 19 19
19 19 19 19 19 19 19 19 19 19 19 19 19 19 19 19 19 19 19 48 48 48 48
48 48 48 48 48 47 47 47 47 47 47 47 47 47 47 47 47 47 47 47 47 47 47
47 47 47 47 47 47 47 47 47 47 47 47 47 47 47 52 158 52 28 141 28 29
143 29 29 143 29 30 131 18 36 135 24 68 170 61 53 159 53 53 156 53 52
151 52 27 121 27 26 116 26 26 111 26 25 105 25 24 99 24 23 92 23 23
85 23 22 78 22 21 70 21 20 61 20 19 52 19 18 42 18 27 50 110 37 59 55
18 40 18 17 40 17 6 29 6 12 35 12 44 44 44 17 17 17 17 17 17 17 17 17
17 17 17 17 17 17 5 5 5 5 5 5 5 5 5 5 5 5 5 5 5 5 5 5 5 5 5 17 17 17
17 17 17 43 43 43 43 43 43 43 43 43 43 43 43 43 43 43 43 43 43 42 42
42 65 65 131 88 88 177 96 96 192 99 99 199 101 101 202 101 101 203 101
101 202 20 20 200 19 19 196 19 19 190 18 18 183 17 17 175 16 16 166
15 15 155 14 14 143 64 64 128 55 55 111 45 45 90 30 30 61 16 16 16 16
16 16 41 41 41
19 19 19 19 19 19 19 19 19 19 19 19 19 19 19 19 19 19 49 49 49 49 49
49 49 49 49 49 49 49 49 49 49 49 49 49 48 48 48 48 48 48 48 48 48 48
48 48 48 48 48 48 48 48 48 48 48 48 48 48 48 48 48 19 19 19 19 19 19
19 19 19 19 19 19 19 19 19 19 19 19 19 19 19 49 137 49 27 128 27 28
132 28 15 121 15 21 126 21 35 126 23 35 129 28 52 151 52 52 147 52 51
143 51 51 138 51 25 108 25 25 103 25 24 97 24 23 91 23 23 84 23 22 77
22 21 69 21 20 61 20 19 53 19 18 44 18 18 41 18 18 41 18 18 41 18 18
40 18 17 40 17 6 29 6 6 29 6 5 5 5 5 5 5 5 5 5 5 5 5 5 5 5 5 5 5 5 5
5 5 5 5 5 5 5 5 5 5 12 12 12 12 12 12 12 12 12 12 12 12 12 12 12 12
12 12 12 12 12 12 12 12 12 12 12 43 43 43 43 43 43 43 43 43 77 77 155
90 90 180 96 96 192 99 99 198 100 100 201 101 101 202 100 100 201 106
106 205 97 97 194 18 18 188 18 18 182 17 17 174 16 16 165 15 15 154
14 14 142 12 12 128 56 56 112 46 46 93 34 34 68 14 14 28 41 41 41 41
41 41
50 50 50 50 50 50 50 50 50 50 50 50 50 50 50 50 50 50 49 49 49 49 49
49 158 79 79 149 74 74 133 66 66 112 56 56 84 42 42 49 49 49 19 19 19
19 19 19 19 19 19 19 19 19 19 19 19 19 19 19 19 19 19 19 19 19 19 19
19 19 19 19 19 19 19 19 19 19 19 19 19 19 19 19 19 19 19 25 111 25 26
119 26 27 122 27 14 110 14 20 115 20 20 113 20 51 141 51 51 138 51 50
134 50 50 129 50 49 124 49 24 94 24 23 88 23 22 82 22 22 75 22 21 68
21 20 61 20 19 52 19 18 44 18 18 41 18 18 41 18 18 41 18 18 41 18 18
41 18 6 29 6 12 35 12 5 5 5 5 5 5 5 5 5 5 5 5 5 5 5 5 5 5 5 5 5 12 12
12 12 12 12 12 12 12 12 12 12 12 12 12 12 12 12 12 12 12 12 12 12 12
12 12 12 12 12 12 12 12 12 12 12 12 12 12 12 12 12 44 44 44 44 44 44
15 15 158 17 17 179 94 94 189 97 97 195 99 99 198 99 99 198 99 99 198
152 152 249 96 96 192 92 92 185 17 17 178 17 17 171 16 16 162 15 15
151 14 14 140 12 12 126 11 11 111 46 46 93 35 35 70 18 18 37 42 42 42
42 42 42
50 50 50 50 50 50 50 50 50 50 50 50 50 50 50 50 50 50 188 94 94 184
92 92 172 86 86 157 78 78 140 70 70 120 60 60 98 49 49 72 36 36 37 18
18 19 19 19 19 19 19 19 19 19 19 19 19 19 19 19 19 19 19 19 19 19 19
19 19 19 19 19 49 49 49 49 49 49 48 48 48 48 48 48 48 48 48 48 48 48
24 102 24 25 108 25 13 98 13 19 104 19 50 133 50 50 131 50 49 128 49
49 124 49 48 120 48 48 115 48 47 109 47 22 79 22 21 73 21 21 66 21 20
59 20 19 51 19 18 43 18 18 41 18 18 41 18 18 41 18 18 41 18 18 41 18
6 29 6 12 35 12 5 5 5 5 5 5 5 5 5 5 5 5 12 12 12 12 12 12 12 12 12 12
12 12 12 12 12 12 12 12 12 12 12 12 12 12 12 12 12 12 12 12 12 12 12
12 12 12 12 12 12 12 12 12 12 12 12 12 12 12 12 12 12 5 5 5 17 17 17
17 17 17 15 15 155 17 17 174 18 18 184 95 95 190 96 96 193 96 96 193
96 96 192 94 94 189 92 92 185 90 90 180 86 86 173 16 16 166 15 15 157
14 14 147 13 13 136 12 12 123 10 10 107 9 9 90 34 34 68 19 19 38 43
43 43 42 42 42
20 20 20 20 20 20 20 20 20 20 20 20 20 20 20 200 100 100 195 97 97 185
92 92 171 85 85 156 78 78 138 69 69 119 59 59 97 9 9 73 7 7 45 4 4 25
2 2 20 20 20 50 50 50 50 50 50 49 49 49 49 49 49 49 49 49 49 49 49 49
49 49 49 49 49 49 49 49 49 49 49 49 49 49 49 49 49 49 49 49 49 49 49
23 90 23 24 96 24 48 122 48 48 121 48 48 119 48 48 117 48 48 113 48
47 109 47 47 104 47 46 99 46 45 93 45 20 62 20 20 56 20 19 48 19 18
41 18 18 41 18 18 41 18 18 41 18 18 41 18 18 41 18 6 29 6 12 35 12 12
12 12 12 12 12 12 12 12 12 12 12 12 12 12 12 12 12 12 12 12 12 12 12
12 12 12 12 12 12 12 12 12 12 12 12 12 12 12 12 12 12 12 12 12 12 12
12 12 12 12 12 12 12 5 5 5 5 5 5 5 5 5 5 5 5 18 18 18 18 18 18 18 18
18 14 14 148 16 16 167 17 17 177 18 18 183 93 93 186 93 93 186 92 92
185 91 91 182 89 89 179 86 86 173 83 83 167 80 80 160 15 15 151 14 14
141 13 13 130 11 11 117 10 10 102 8 8 85 6 6 63 17 17 35 43 43 43 43
43 43
20 20 20 20 20 20 20 20 20 20 20 20 203 20 20 201 20 20 192 19 19 180
18 18 166 16 16 150 15 15 133 13 13 114 11 11 92 9 9 69 6 6 43 4 4 25
2 2 25 12 12 50 50 50 50 50 50 50 50 50 50 50 50 50 50 50 50 50 50 50
50 50 49 49 49 49 49 49 49 49 49 49 49 49 49 49 49 49 49 49 19 19 19
19 19 19 22 75 22 47 105 47 47 107 47 47 106 47 52 159 52 51 152 51
51 144 51 49 133 49 48 122 48 47 109 47 45 95 45 44 82 44 44 79 44 19
55 19 19 55 19 19 55 19 19 55 19 18 41 18 12 35 12 12 35 12 12 12 12
12 12 12 12 12 12 12 12 12 12 12 12 12 12 12 12 12 12 12 12 12 12 12
12 12 12 12 12 12 12 12 12 12 12 12 12 12 12 12 12 12 12 12 12 12 5
5 5 5 5 5 5 5 5 5 5 5 5 5 5 18 18 18 18 18 18 18 18 18 18 18 18 18 18
18 13 13 136 15 15 157 16 16 168 17 17 174 17 17 177 89 89 178 88 88
177 87 87 174 85 85 171 83 83 166 79 79 159 76 76 152 72 72 144 13 13
134 12 12 122 11 11 110 9 9 95 7 7 77 5 5 56 2 2 28 44 44 44 43 43 43

20 20 20 20 20 20 20 20 20 20 20 20 201 20 20 196 19 19 186 18 18 184
28 28 158 15 15 142 14 14 125 12 12 106 10 10 85 42 42 62 31 31 36 18
18 25 12 12 25 12 12 50 50 50 50 50 50 50 50 50 50 50 50 50 50 50 50
50 50 50 50 50 50 50 50 20 20 20 20 20 20 20 20 20 19 19 19 19 19 19
19 19 19 19 19 19 19 19 19 19 54 19 45 87 45 47 108 47 57 119 57 49
110 49 60 112 56 69 118 69 68 111 68 53 91 53 53 89 53 53 88 53 52 88
52 52 88 52 55 91 84 52 88 52 22 58 22 14 49 14 12 35 12 12 12 12 12
12 12 12 12 12 12 12 12 12 12 12 12 12 12 12 12 12 12 12 12 12 12 12
12 12 12 12 12 12 12 12 12 12 12 12 5 5 5 5 5 5 5 5 5 5 5 5 5 5 5 5
5 5 5 5 5 18 18 18 18 18 18 18 18 18 18 18 18 18 18 18 18 18 18 18 18
18 11 11 117 14 14 144 15 15 156 16 16 163 16 16 166 16 16 168 83 83
167 82 82 165 80 80 161 78 78 156 75 75 150 71 71 143 67 67 135 62 62
125 11 11 114 10 10 101 8 8 86 6 6 68 4 4 46 2 2 25 44 44 44 44 44 44

52 52 52 52 52 52 52 52 52 194 97 97 194 97 97 187 93 93 178 90 90 164
82 82 149 74 74 133 66 66 115 57 57 96 48 48 75 37 37 52 26 26 27 13
13 25 12 12 25 2 2 51 51 51 51 51 51 50 50 50 20 20 20 20 20 20 20 20
20 20 20 20 20 20 20 20 20 20 20 20 20 20 20 20 20 20 20 20 20 20 20
20 20 20 20 20 19 19 19 19 19 19 19 19 19 42 65 42 53 91 53 67 104 67
66 102 66 66 102 66 66 102 66 66 102 66 67 114 67 67 110 67 66 109 66
49 85 49 19 55 19 19 55 19 14 49 14 12 12 12 12 12 12 12 12 12 12 12
12 12 12 12 12 12 12 12 12 12 12 12 12 12 12 12 12 12 12 12 12 12 12
12 12 5 5 5 5 5 5 5 5 5 5 5 5 5 5 5 5 5 5 5 5 5 18 18 18 18 18 18 18
18 18 18 18 18 18 18 18 18 18 18 18 18 18 18 18 18 18 18 18 18 18 18
7 7 78 12 12 126 14 14 141 15 15 150 15 15 154 15 15 156 15 15 156 77
77 154 75 75 150 73 73 146 70 70 140 66 66 132 62 62 124 57 57 114 51
51 103 9 9 90 7 7 75 5 5 56 3 3 34 2 2 25 44 44 44 44 44 44
52 52 52 52 52 52 52 52 52 186 18 18 184 92 92 176 88 88 165 82 82 152
76 76 137 68 68 121 60 60 103 51 51 84 8 8 63 6 6 41 4 4 25 2 2 25 2
2 25 2 2 20 20 20 20 20 20 20 20 20 20 20 20 20 20 20 20 20 20 20 20
20 20 20 20 20 20 20 20 20 20 20 20 20 20 20 20 20 20 20 20 20 20 20
20 20 20 20 20 20 20 20 20 20 20 20 20 20 49 49 49 12 12 12 55 98 55
63 110 63 67 112 65 61 108 61 31 78 31 31 78 31 27 74 28 24 71 24 14
30 14 12 12 12 12 12 12 12 12 12 12 12 12 12 12 12 12 12 12 12 12 12
12 12 12 12 12 12 12 12 12 12 12 12 5 5 5 5 5 5 5 5 5 5 5 5 5 5 5 19
19 19 19 19 19 19 19 19 19 19 19 19 19 19 19 19 19 18 18 18 18 18 18
18 18 18 18 18 18 18 18 18 18 18 18 18 18 18 18 18 18 18 18 18 18 18
18 10 10 101 12 12 123 13 13 133 13 13 139 14 14 142 14 14 142 14 14
141 68 68 137 66 66 133 63 63 127 60 60 120 56 56 112 51 51 102 45 45
90 38 38 77 6 6 61 4 4 42 2 2 25 2 2 25 12 12 12 12 12 12
52 52 52 52 52 52 52 52 52 174 17 17 172 17 17 163 16 16 152 15 15 139
13 13 124 12 12 108 10 10 90 9 9 71 7 7 50 5 5 27 2 2 25 2 2 25 12 12
25 12 12 20 20 20 20 20 20 20 20 20 20 20 20 20 20 20 20 20 20 20 20
20 20 20 20 20 20 20 20 20 20 20 20 20 20 20 20 20 20 20 20 20 20 20
20 20 50 50 50 50 50 50 50 50 50 50 50 50 72 89 72 54 70 54 37 62 37
28 58 28 31 66 31 31 66 31 31 66 31 31 66 31 31 65 31 34 64 34 22 47
22 21 37 21 17 33 17 12 12 12 12 12 12 12 12 12 12 12 12 12 12 12 5
5 5 5 5 5 5 5 5 5 5 5 19 19 19 19 19 19 19 19 19 19 19 19 19 19 19 19
19 19 19 19 19 19 19 19 19 19 19 19 19 19 19 19 19 19 19 19 19 19 19
19 19 19 19 19 19 18 18 18 18 18 18 18 18 18 18 18 18 47 47 47 47 47
47 47 47 47 9 9 97 11 11 113 12 12 121 12 12 125 12 12 126 12 12 125
12 12 123 59 59 118 56 56 113 53 53 106 48 48 97 43 43 87 37 37 75 30
30 61 22 22 45 2 2 25 2 2 25 12 12 12 12 12 12 5 5 5
53 53 53 52 52 52 52 52 52 157 78 78 156 78 78 149 14 14 138 13 13 125
12 12 110 11 11 93 9 9 76 38 38 56 28 28 35 17 17 25 12 12 25 12 12
25 12 12 25 2 2 20 20 20 20 20 20 20 20 20 20 20 20 20 20 20 20 20 20
20 20 20 5 5 5 20 20 20 20 20 20 51 51 51 51 51 51 50 50 50 50 50 50
50 50 50 50 50 50 50 50 50 52 68 52 63 79 63 63 79 63 87 112 87 64 89
64 73 103 73 72 105 72 70 104 70 71 105 71 68 101 68 67 100 67 66 96
66 63 88 63 69 94 69 58 74 58 58 74 58 51 67 51 19 19 19 19 19 19 19
19 19 19 19 19 19 19 19 19 19 19 19 19 19 19 19 19 19 19 19 19 19 19
19 19 19 19 19 19 19 19 19 19 19 19 19 19 19 19 19 19 19 19 19 19 19
19 19 19 19 19 19 19 19 19 19 19 19 19 19 19 19 47 47 47 47 47 47 47
47 47 47 47 47 47 47 47 47 47 47 4 4 47 8 8 85 9 9 98 10 10 104 10 10
107 10 10 107 10 10 105 10 10 101 48 48 96 44 44 89 40 40 80 35 35 70
28 28 57 21 21 42 12 12 25 2 2 25 12 12 12 12 12 12 5 5 5 5 5 5
21 21 21 21 21 21 21 21 21 134 67 67 138 69 69 131 65 65 121 60 60 108
54 54 93 46 46 77 38 38 59 29 29 39 19 19 25 12 12 25 12 12 25 2 2 25
2 2 20 20 20 5 5 5 5 5 5 5 5 5 5 5 5 5 5 5 5 5 5 12 12 12 12 12 12 12
12 12 12 12 12 12 12 12 51 51 51 51 51 51 51 51 51 51 51 51 50 50 50
78 94 78 63 79 63 63 79 63 81 106 81 87 112 87 97 122 97 98 128 98 106
136 106 73 103 73 73 103 73 73 103 73 75 105 95 64 94 64 63 88 63 33
58 33 28 44 28 28 44 28 28 44 28 24 40 24 19 19 19 19 19 19 19 19 19
19 19 19 19 19 19 19 19 19 19 19 19 19 19 19 19 19 19 19 19 19 19 19
19 19 19 19 19 19 19 19 19 19 19 19 19 19 19 19 19 19 19 19 19 19 19
19 19 19 19 19 48 48 48 48 48 48 47 47 47 47 47 47 47 47 47 47 47 47
47 47 47 47 47 47 47 47 47 47 47 47 6 6 66 7 7 78 8 8 83 8 8 85 8 8
84 8 8 81 7 7 76 34 34 69 30 30 60 24 24 49 17 17 35 12 12 25 12 12
25 12 12 12 5 5 5 5 5 5 5 5 5 5 5 5
21 21 21 21 21 21 21 21 21 21 21 21 115 11 11 111 11 11 102 10 10 89
8 8 75 7 7 58 5 5 40 4 4 25 2 2 25 2 2 25 2 2 25 2 2 25 12 12 5 5 5
5 5 5 5 5 5 12 12 12 12 12 12 12 12 12 12 12 12 12 12 12 12 12 12 12
12 12 12 12 12 51 51 51 51 51 51 51 51 51 51 51 51 51 51 51 79 95 79
64 80 64 64 80 64 81 97 81 81 107 81 88 113 88 97 122 97 97 122 97 101
138 101 97 127 97 97 127 97 97 127 97 66 91 66 34 59 34 34 59 34 35
60 35 29 55 29 28 44 28 28 44 28 28 44 28 24 40 24 19 19 19 19 19 19
19 19 19 19 19 19 19 19 19 19 19 19 19 19 19 19 19 19 19 19 19 19 19
19 19 19 19 19 19 19 19 19 19 19 19 19 19 19 19 19 19 19 48 48 48 48
48 48 48 48 48 48 48 48 48 48 48 48 48 48 48 48 48 48 48 48 48 48 48
47 47 47 47 47 47 47 47 47 47 47 47 47 47 47 3 3 35 5 5 50 5 5 55 5
5 56 5 5 54 5 5 50 4 4 43 16 16 33 12 12 25 12 12 25 12 12 25 12 12
12 5 5 5 5 5 5 5 5 5 5 5 5 5 5 5
21 21 21 21 21 21 21 21 21 21 21 21 21 21 21 85 8 8 78 7 7 67 6 6 53
5 5 36 3 3 25 2 2 25 12 12 25 12 12 25 12 12 25 12 12 12 12 12 12 12
12 12 12 12 12 12 12 12 12 12 12 12 12 12 12 12 12 12 12 12 12 12 12
12 12 51 51 51 51 51 51 51 51 51 51 51 51 51 51 51 51 51 51 75 95 75
64 85 64 64 84 64 64 82 64 81 97 81 83 115 83 101 127 101 91 111 86
97 122 97 97 122 97 67 92 67 66 91 66 66 91 66 57 82 57 57 82 57 66
91 71 30 55 30 29 45 29 29 45 29 28 45 28 28 45 28 28 44 28 39 55 39
19 19 19 19 19 19 19 19 19 19 19 19 19 19 19 19 19 19 19 19 19 19 19
19 19 19 19 19 19 19 19 19 19 19 19 19 19 19 19 48 48 48 48 48 48 48
48 48 48 48 48 48 48 48 48 48 48 48 48 48 48 48 48 48 48 48 48 48 48
48 48 48 48 48 48 48 48 48 48 48 48 48 48 48 47 47 47 49 49 65 14 14
30 2 2 25 2 2 25 2 2 25 2 2 25 2 2 25 2 2 25 12 12 25 12 12 12 5 5 5
5 5 5 5 5 5 5 5 5 5 5 5 5 5 5 5 5 5
21 21 21 21 21 21 21 21 21 21 21 21 21 21 21 21 21 21 44 22 22 38 19
19 25 12 12 25 12 12 25 12 12 25 12 12 25 2 2 12 12 12 12 12 12 12 12
12 12 12 12 12 12 12 12 12 12 12 12 12 12 12 12 52 52 52 52 52 52 52
52 52 52 52 52 52 52 52 51 51 51 51 51 51 51 51 51 51 51 51 54 83 54
83 112 83 66 94 66 65 92 65 82 107 82 82 104 82 81 101 81 53 92 53 60
85 53 59 87 59 58 83 58 57 82 57 57 82 57 67 92 67 66 91 66 50 76 50
50 75 50 49 65 49 33 49 33 32 49 32 24 40 24 24 40 24 29 45 29 28 45
28 21 37 21 19 19 19 19 19 19 19 19 19 19 19 19 19 19 19 19 19 19 19
19 19 19 19 19 19 19 19 49 49 49 49 49 49 49 49 49 49 49 49 49 49 49
49 49 49 48 48 48 48 48 48 48 48 48 48 48 48 48 48 48 48 48 48 48 48
48 48 48 48 48 48 48 48 48 48 48 48 48 50 50 66 49 49 66 49 49 65 49
49 65 49 49 65 49 49 65 49 49 65 14 14 30 14 14 30 21 21 30 21 21 30
5 5 5 5 5 5 5 5 5 5 5 5 5 5 5 5 5 5 18 18 18 18 18 18
21 21 21 21 21 21 21 21 21 21 21 21 21 21 21 53 53 53 53 53 53 53 53
53 30 14 14 30 14 14 30 14 14 30 14 14 30 14 14 30 14 14 30 14 14 12
12 12 12 12 12 52 52 52 52 52 52 52 52 52 52 52 52 52 52 52 52 52 52
52 52 52 52 52 52 52 52 52 52 52 52 52 52 52 51 51 51 55 88 55 67 104
67 67 104 67 67 102 67 66 100 66 52 83 52 52 80 52 51 77 51 51 73 51
55 114 55 66 109 66 52 88 52 52 83 52 51 77 51 51 76 51 51 76 51 51
76 51 33 49 33 33 49 33 33 49 33 33 49 33 32 49 32 24 40 24 24 40 24
24 40 24 30 46 30 20 20 20 20 20 20 20 20 20 19 19 19 19 19 19 19 19
19 19 19 19 49 49 49 49 49 49 49 49 49 49 49 49 49 49 49 49 49 49 49
49 49 49 49 49 49 49 49 49 49 49 49 49 49 49 49 49 48 48 48 48 48 48
48 48 48 48 48 48 48 48 48 48 48 48 50 50 66 50 50 66 50 50 66 50 50
66 50 50 66 50 50 66 49 49 66 49 49 65 49 49 65 49 49 65 20 20 37 28
28 36 28 28 36 19 19 19 19 19 19 19 19 19 19 19 19 18 18 18 18 18 18
18 18 18
21 21 21 53 53 53 53 53 53 53 53 53 53 53 53 53 53 53 53 53 53 71 55
55 71 55 55 71 55 55 71 55 55 71 55 55 71 54 54 70 54 54 70 54 54 70
61 61 52 52 52 52 52 52 52 52 52 52 52 52 52 52 52 52 52 52 52 52 52
52 52 52 52 52 52 52 52 52 52 52 52 52 52 52 52 52 52 57 101 57 37 82
37 37 80 37 36 78 36 27 67 27 53 90 53 53 87 53 52 83 52 52 80 52 51
76 51 51 72 51 50 68 50 50 66 50 50 66 50 50 66 50 33 49 33 33 49 33
33 49 33 33 49 33 33 49 33 33 49 33 33 49 33 32 48 32 32 48 32 24 40
24 46 62 46 21 37 21 20 20 20 20 20 20 20 20 20 50 50 50 50 50 50 49
49 49 49 49 49 49 49 49 49 49 49 49 49 49 49 49 49 49 49 49 49 49 49
49 49 49 49 49 49 49 49 49 49 49 49 49 49 49 49 49 49 49 49 49 49 49
49 48 48 48 48 48 48 51 51 79 52 52 82 52 52 82 51 51 79 51 51 76 50
50 72 50 50 67 50 50 66 50 50 66 50 50 66 21 21 37 21 21 37 28 28 37
28 28 37 28 28 37 19 19 19 19 19 19 19 19 19 19 19 19 19 19 19 19 19
19
54 54 54 53 53 53 53 53 53 53 53 53 53 53 53 53 53 53 71 55 55 71 55
55 71 55 55 71 55 55 71 55 55 71 55 55 71 55 55 71 62 62 71 62 62 70
62 62 70 61 61 52 52 52 52 52 52 52 52 52 52 52 52 52 52 52 52 52 52
52 52 52 52 52 52 52 52 52 52 52 52 20 20 20 26 76 26 48 100 48 55 106
55 37 87 37 37 85 37 28 73 28 32 75 32 53 93 53 53 90 53 53 86 53 52
82 52 52 78 52 51 74 51 51 70 51 50 66 50 33 49 33 33 49 33 33 49 33
33 49 33 33 49 33 33 49 33 33 49 33 33 49 33 32 49 32 32 48 32 32 48
32 31 47 31 21 38 21 20 20 20 50 50 50 50 50 50 50 50 50 50 50 50 50
50 50 50 50 50 50 50 50 49 49 49 49 49 49 49 49 49 49 49 49 49 49 49
49 49 49 49 49 49 49 49 49 49 49 49 49 49 49 49 49 49 49 49 49 49 49
49 49 49 49 53 53 90 53 53 97 53 53 98 53 53 96 53 53 94 52 52 90 52
52 86 51 51 80 51 51 75 21 21 39 21 21 37 21 21 37 21 21 37 28 28 37
28 28 37 28 28 37 28 28 37 19 19 19 19 19 19 19 19 19 19 19 19 19 19
19
54 54 54 54 54 54 54 54 54 53 53 53 53 53 53 91 72 72 82 68 68 73 63
63 71 62 62 71 62 62 71 62 62 71 62 62 71 62 62 71 62 62 71 62 62 71
62 62 70 54 54 53 53 53 53 53 53 52 52 52 52 52 52 52 52 52 52 52 52
21 21 21 21 21 21 21 21 21 21 21 21 20 20 20 27 86 27 38 97 38 56 113
56 38 94 38 38 91 38 29 79 29 43 82 34 64 104 59 54 96 54 53 92 53 53
88 53 52 84 52 52 80 52 34 59 34 34 55 34 33 50 33 33 49 33 33 49 33
33 49 33 33 49 33 33 49 33 33 49 33 36 52 65 33 49 33 32 48 32 32 48
32 46 62 46 52 68 52 52 68 52 50 50 50 50 50 50 50 50 50 50 50 50 50
50 50 50 50 50 50 50 50 50 50 50 50 50 50 50 50 50 49 49 49 49 49 49
49 49 49 49 49 49 49 49 49 49 49 49 49 49 49 49 49 49 49 49 49 49 49
49 49 49 49 55 55 108 55 55 111 55 55 111 55 55 110 54 54 107 54 54
103 53 53 98 53 53 93 23 23 58 22 22 52 22 22 45 21 21 37 28 28 37 28
28 37 28 28 37 28 28 37 28 28 37 21 21 37 19 19 19 19 19 19 19 19 19
19 19 19

