P3
100 50
255
28 28 28 28 28 28 28 28 28 28 28 28 11 11 11 11 11 11 11 11 11 28 28
28 28 28 28 28 28 28 28 28 28 11 11 11 11 11 11 11 11 11 11 11 11 28
28 28 28 28 28 28 28 28 28 28 28 11 11 11 11 11 11 11 11 11 11 11 11
28 28 28 28 28 28 28 28 28 28 28 28 11 11 11 11 11 11 11 11 11 11 11
11 28 28 28 28 28 28 28 28 28 28 28 28 11 11 11 11 11 11 11 11 11 28
28 28 28 28 28 28 28 28 28 28 28 11 11 11 11 11 11 11 11 11 11 11 11
28 28 28 175 175 17 175 175 17 175 175 17 175 175 17 175 175 17 175
175 17 11 11 11 28 28 28 28 28 28 28 28 28 28 28 28 11 11 11 11 11 11
11 11 11 11 11 11 27 27 27 27 27 27 27 27 27 27 27 27 11 11 11 11 11
11 11 11 11 27 27 27 27 27 27 27 27 27 27 27 27 10 10 10 10 10 10 10
10 10 10 10 10 27 27 27 27 27 27 27 27 27 26 26 26 10 10 10 10 10 10
10 10 10 10 10 10 26 26 26 26 26 26 26 26 26 26 26 26 10 10 10 10 10
10 10 10 10 10 10 10 26 26 26 26 26 26 26 26 26 10 10 10 10 10 10 10
10 10 10 10 10
13 13 13 13 13 13 13 13 13 13 13 13 32 32 32 32 32 32 32 32 32 32 32
32 32 32 32 32 32 32 13 13 13 13 13 13 13 13 13 13 13 13 13 13 13 32
32 32 32 32 32 32 32 32 32 32 32 32 32 32 13 13 13 13 13 13 13 13 13
13 13 13 13 13 13 32 32 32 32 32 32 32 32 32 32 32 32 32 32 32 13 13
13 13 13 13 13 13 13 13 13 13 12 12 12 12 12 12 32 32 32 32 32 32 32
32 32 32 32 32 32 32 32 12 12 12 12 12 12 12 12 12 12 12 12 12 12 12
175 175 17 175 175 17 175 175 17 175 175 17 175 175 17 175 175 17 175
175 17 175 175 17 12 12 12 12 12 12 12 12 12 31 31 31 31 31 31 31 31
31 31 31 31 31 31 31 12 12 12 12 12 12 12 12 12 12 12 12 12 12 12 30
30 30 30 30 30 30 30 30 30 30 30 30 30 30 12 12 12 12 12 12 12 12 12
12 12 12 12 12 12 30 30 30 30 30 30 30 30 30 30 30 30 30 30 30 30 30
30 11 11 11 11 11 11 11 11 11 11 11 11 11 11 11 29 29 29 29 29 29 29
29 29 29 29 29 29 29 29 11 11 11 11 11 11 11 11 11 11 11 11 11 11 11
28 28 28 28 28 28
36 36 36 36 36 36 36 36 36 14 14 14 14 14 14 14 14 14 14 14 14 14 14
14 14 14 14 14 14 14 36 36 36 36 36 36 36 36 36 36 36 36 36 36 36 36
36 36 14 14 14 14 14 14 14 14 14 14 14 14 14 14 14 14 14 14 14 14 14
35 35 35 35 35 35 35 35 35 35 35 35 35 35 35 35 35 35 14 14 14 14 14
14 14 14 14 14 14 14 14 14 14 14 14 14 14 14 14 35 35 35 35 35 35 35
35 35 35 35 35 35 35 35 35 35 35 14 14 14 14 14 14 14 14 14 175 175
17 175 175 17 175 175 17 175 175 17 175 175 17 175 175 17 175 175 17
175 175 17 175 175 17 175 175 17 34 34 34 13 13 13 13 13 13 13 13 13
13 13 13 13 13 13 13 13 13 33 33 33 33 33 33 33 33 33 33 33 33 33 33
33 33 33 33 33 33 33 13 13 13 13 13 13 13 13 13 13 13 13 13 13 13 13
13 13 33 33 33 33 33 33 32 32 32 32 32 32 32 32 32 32 32 32 32 32 32
13 13 13 13 13 13 12 12 12 12 12 12 12 12 12 12 12 12 32 32 32 32 32
32 32 32 32 31 31 31 31 31 31 31 31 31 31 31 31 12 12 12 12 12 12 12
12 12 12 12 12 12 12 12
38 38 38 38 38 38 38 38 38 38 38 38 38 38 38 38 38 38 38 38 38 15 15
15 15 15 15 15 15 15 15 15 15 15 15 15 15 15 15 15 15 15 15 15 15 38
38 38 38 38 38 38 38 38 38 38 38 38 38 38 38 38 38 38 38 38 38 38 38
15 15 15 15 15 15 15 15 15 15 15 15 15 15 15 15 15 15 15 15 15 15 15
15 38 38 38 37 37 37 37 37 37 37 37 37 37 37 37 37 37 37 37 37 37 37
37 37 15 15 15 15 15 15 14 14 14 14 14 14 14 14 14 175 175 17 175 175
17 175 175 17 175 175 17 175 175 17 175 175 17 175 175 17 175 175 17
175 175 17 175 175 17 175 175 17 175 175 17 14 14 14 14 14 14 14 14
14 14 14 14 14 14 14 14 14 14 14 14 14 36 36 36 36 36 36 35 35 35 35
35 35 35 35 35 35 35 35 35 35 35 35 35 35 14 14 14 14 14 14 14 14 14
14 14 14 14 14 14 14 14 14 14 14 14 14 14 14 34 34 34 34 34 34 34 34
34 34 34 34 34 34 34 34 34 34 34 34 34 13 13 13 13 13 13 13 13 13 13
13 13 13 13 13 13 13 13 13 13 13 13 13 13 33 33 33 33 33 33 33 33 33
33 33 33 33 33 33 33 33 33
41 41 41 41 41 41 41 41 41 41 41 41 16 16 16 16 16 16 16 16 16 16 16
16 16 16 16 16 16 16 16 16 16 16 16 16 16 16 16 40 40 40 40 40 40 40
40 40 40 40 40 40 40 40 40 40 40 40 40 40 40 40 40 40 40 40 16 16 16
16 16 16 16 16 16 16 16 16 16 16 16 16 16 16 16 16 16 16 16 16 16 16
16 15 15 15 39 39 39 39 39 39 39 39 39 39 39 39 39 39 39 39 39 39 39
39 39 39 39 39 39 39 39 15 15 15 15 15 15 174 174 17 174 174 17 174
174 17 174 174 17 174 174 17 174 174 17 174 174 17 174 174 17 174 174
17 174 174 17 175 175 17 175 175 17 175 175 17 175 175 17 38 38 38 38
38 38 15 15 15 15 15 15 15 15 15 15 15 15 15 15 15 15 15 15 15 15 15
15 15 15 15 15 15 15 15 15 37 37 37 37 37 37 37 37 37 37 37 37 37 37
37 37 37 37 37 37 37 36 36 36 36 36 36 14 14 14 14 14 14 14 14 14 14
14 14 14 14 14 14 14 14 14 14 14 14 14 14 14 14 14 36 36 36 36 36 36
35 35 35 35 35 35 35 35 35 35 35 35 35 35 35 35 35 35 35 35 35 14 14
14 14 14 14 14 14 14 14 14 14
42 42 42 42 42 42 42 42 42 42 42 42 42 42 42 42 42 42 17 17 17 17 17
17 17 17 17 17 17 17 17 17 17 17 17 17 17 17 17 17 17 17 16 16 16 16
16 16 42 42 42 42 42 42 42 42 42 42 42 42 42 42 42 42 42 42 42 42 42
42 42 42 41 41 41 41 41 41 41 41 41 16 16 16 16 16 16 16 16 16 16 16
16 16 16 16 16 16 16 16 16 16 16 16 16 16 16 16 16 16 16 16 16 16 41
41 41 41 41 41 41 41 41 40 40 40 40 40 40 174 174 17 174 174 17 174
174 17 174 174 17 174 174 17 174 174 17 174 174 17 174 174 17 174 174
17 174 174 17 174 174 17 174 174 17 174 174 17 174 174 17 15 15 15 15
15 15 39 39 39 39 39 39 39 39 39 39 39 39 39 39 39 39 39 39 39 39 39
39 39 39 39 39 39 39 39 39 15 15 15 15 15 15 15 15 15 15 15 15 15 15
15 15 15 15 15 15 15 15 15 15 15 15 15 15 15 15 15 15 15 38 38 38 38
38 38 37 37 37 37 37 37 37 37 37 37 37 37 37 37 37 37 37 37 37 37 37
37 37 37 37 37 37 14 14 14 14 14 14 14 14 14 14 14 14 14 14 14 14 14
14 14 14 14 14 14 14 14 14 14
17 17 17 44 44 44 44 44 44 44 44 44 44 44 44 44 44 44 44 44 44 44 44
44 44 44 44 44 44 44 44 44 44 43 43 43 43 43 43 17 17 17 17 17 17 17
17 17 17 17 17 17 17 17 17 17 17 17 17 17 17 17 17 17 17 17 17 17 17
17 17 17 17 17 17 43 43 43 43 43 43 43 43 43 43 43 43 42 42 42 42 42
42 42 42 42 42 42 42 42 42 42 42 42 42 42 42 42 42 42 42 16 16 16 16
16 16 16 16 16 16 16 16 16 16 16 174 174 17 174 174 17 174 174 17 174
174 17 174 174 17 174 174 17 174 174 17 174 174 17 174 174 17 174 174
17 174 174 17 174 174 17 174 174 17 174 174 17 174 174 17 174 174 17
41 41 41 40 40 40 40 40 40 16 16 16 16 16 16 16 16 16 16 16 16 16 16
16 16 16 16 16 16 16 16 16 16 16 16 16 16 16 16 16 16 16 15 15 15 39
39 39 39 39 39 39 39 39 39 39 39 39 39 39 39 39 39 39 39 39 39 39 39
39 39 39 39 39 39 39 39 39 39 39 39 15 15 15 15 15 15 15 15 15 15 15
15 15 15 15 15 15 15 15 15 15 15 15 15 15 15 15 15 15 15 15 15 15 15
15 15 38 38 38 38 38 38 37 37 37
18 18 18 18 18 18 18 18 18 18 18 18 18 18 18 18 18 18 18 18 18 18 18
18 18 18 18 18 18 18 18 18 18 18 18 18 45 45 45 45 45 45 44 44 44 44
44 44 44 44 44 44 44 44 44 44 44 44 44 44 44 44 44 44 44 44 44 44 44
44 44 44 44 44 44 44 44 44 17 17 17 17 17 17 17 17 17 17 17 17 17 17
17 17 17 17 17 17 17 17 17 17 17 17 17 17 17 17 17 17 17 17 17 17 17
17 17 43 43 43 43 43 43 174 174 17 174 174 17 174 174 17 174 174 17
174 174 17 174 174 17 174 174 17 174 174 17 174 174 17 174 174 17 174
174 17 174 174 17 174 174 17 174 174 17 174 174 17 174 174 17 174 174
17 174 174 17 16 16 16 16 16 16 16 16 16 16 16 16 16 16 16 16 16 16
16 16 16 41 41 41 41 41 41 41 41 41 41 41 41 41 41 41 41 41 41 41 41
41 41 41 41 40 40 40 40 40 40 40 40 40 40 40 40 40 40 40 16 16 16 16
16 16 16 16 16 16 16 16 16 16 16 16 16 16 16 16 16 16 16 16 15 15 15
15 15 15 15 15 15 15 15 15 15 15 15 39 39 39 39 39 39 39 39 39 39 39
39 39 39 39 39 39 39 39 39 39 39 39 39
46 46 46 46 46 46 46 46 46 46 46 46 46 46 46 46 46 46 46 46 46 46 46
46 46 46 46 46 46 46 46 46 46 46 46 46 46 46 46 45 45 45 45 45 45 18
18 18 18 18 18 18 18 18 18 18 18 18 18 18 18 18 18 18 18 18 18 18 18
18 18 18 18 18 18 18 18 18 18 18 18 18 18 18 18 18 18 44 44 44 44 44
44 44 44 44 44 44 44 44 44 44 44 44 44 44 44 44 44 44 44 44 44 44 44
44 44 44 44 44 173 173 17 174 174 17 174 174 17 174 174 17 174 174 17
174 174 17 174 174 17 174 174 17 174 174 17 174 174 17 174 174 17 174
174 17 174 174 17 174 174 17 174 174 17 174 174 17 174 174 17 174 174
17 174 174 17 174 174 17 42 42 42 42 42 42 42 42 42 42 42 42 42 42 42
42 42 42 42 42 42 42 42 42 42 42 42 42 42 42 42 42 42 42 42 42 42 42
42 16 16 16 16 16 16 16 16 16 16 16 16 16 16 16 16 16 16 16 16 16 16
16 16 16 16 16 16 16 16 16 16 16 16 16 16 16 16 16 16 16 16 16 16 16
40 40 40 40 40 40 40 40 40 40 40 40 40 40 40 40 40 40 40 40 40 40 40
40 40 40 40 40 40 40 40 40 40 40 40 40
47 47 47 47 47 47 47 47 47 18 18 18 18 18 18 18 18 18 18 18 18 18 18
18 18 18 18 18 18 18 18 18 18 18 18 18 18 18 18 18 18 18 18 18 18 18
18 18 18 18 18 18 18 18 18 18 18 46 46 46 46 46 46 46 46 46 46 46 46
46 46 46 46 46 46 46 46 46 45 45 45 45 45 45 45 45 45 45 45 45 45 45
45 45 45 45 45 45 45 45 45 45 45 45 45 18 18 18 18 18 18 18 18 18 18
18 18 173 173 17 173 173 17 173 173 17 173 173 17 173 173 17 173 173
17 173 173 17 174 174 17 174 174 17 174 174 17 174 174 17 174 174 17
174 174 17 174 174 17 174 174 17 174 174 17 174 174 17 174 174 17 174
174 17 174 174 17 174 174 17 174 174 17 43 43 43 43 43 43 43 43 43 43
43 43 43 43 43 43 43 43 17 17 17 17 17 17 17 17 17 17 17 17 17 17 17
17 17 17 17 17 17 17 17 17 17 17 17 17 17 17 16 16 16 16 16 16 16 16
16 16 16 16 16 16 16 16 16 16 42 42 42 41 41 41 41 41 41 41 41 41 41
41 41 41 41 41 41 41 41 41 41 41 41 41 41 41 41 41 41 41 41 41 41 41
41 41 41 41 41 41 41 41 41 40 40 40 16 16 16
19 19 19 19 19 19 19 19 19 19 19 19 19 19 19 19 19 19 19 19 19 19 19
19 19 19 19 47 47 47 47 47 47 47 47 47 47 47 47 47 47 47 47 47 47 47
47 47 47 47 47 47 47 47 47 47 47 47 47 47 46 46 46 46 46 46 46 46 46
46 46 46 46 46 46 46 46 46 46 46 46 18 18 18 18 18 18 18 18 18 18 18
18 18 18 18 18 18 18 18 18 18 18 18 18 18 18 18 18 18 18 18 18 18 173
173 17 173 173 17 173 173 17 173 173 17 173 173 17 173 173 17 173 173
17 173 173 17 173 173 17 173 173 17 173 173 17 173 173 17 173 173 17
173 173 17 174 174 17 174 174 17 174 174 17 174 174 17 174 174 17 174
174 17 174 174 17 174 174 17 174 174 17 174 174 17 17 17 17 17 17 17
17 17 17 17 17 17 17 17 17 17 17 17 17 17 17 17 17 17 17 17 17 17 17
17 17 17 17 17 17 17 17 17 17 17 17 17 17 17 17 17 17 17 17 17 17 43
43 43 42 42 42 42 42 42 42 42 42 42 42 42 42 42 42 42 42 42 42 42 42
42 42 42 42 42 42 42 42 42 42 42 42 42 42 42 42 42 42 42 42 42 41 41
41 41 41 41 16 16 16 16 16 16 16 16 16 16 16 16
48 48 48 48 48 48 48 48 48 48 48 48 48 48 48 48 48 48 48 48 48 48 48
48 48 48 48 48 48 48 48 48 48 48 48 48 48 48 48 47 47 47 47 47 47 47
47 47 47 47 47 47 47 47 19 19 19 19 19 19 19 19 19 18 18 18 18 18 18
18 18 18 18 18 18 18 18 18 18 18 18 18 18 18 18 18 18 18 18 18 18 18
18 18 18 18 18 18 18 18 18 18 18 18 18 18 18 18 18 18 18 173 173 17
173 173 17 173 173 17 173 173 17 173 173 17 173 173 17 173 173 17 173
173 17 173 173 17 173 173 17 173 173 17 173 173 17 173 173 17 173 173
17 173 173 17 173 173 17 173 173 17 173 173 17 173 173 17 173 173 17
173 173 17 173 173 17 173 173 17 173 173 17 173 173 17 173 173 17 17
17 17 17 17 17 17 17 17 17 17 17 17 17 17 17 17 17 17 17 17 17 17 17
17 17 17 17 17 17 17 17 17 44 44 44 43 43 43 43 43 43 43 43 43 43 43
43 43 43 43 43 43 43 43 43 43 43 43 43 43 43 43 43 43 43 43 43 43 43
43 43 43 43 43 43 43 43 42 42 42 42 42 42 42 42 42 42 42 42 17 17 17
17 17 17 17 17 17 17 17 17 16 16 16 16 16 16 16 16 16
49 49 49 49 49 49 49 49 49 49 49 49 48 48 48 48 48 48 48 48 48 48 48
48 48 48 48 48 48 48 19 19 19 19 19 19 19 19 19 19 19 19 19 19 19 19
19 19 19 19 19 19 19 19 19 19 19 19 19 19 19 19 19 19 19 19 19 19 19
19 19 19 19 19 19 19 19 19 19 19 19 19 19 19 19 19 19 18 18 18 47 47
47 47 47 47 47 47 47 47 47 47 47 47 47 47 47 47 172 172 17 172 172 17
173 173 17 173 173 17 173 173 17 173 173 17 173 173 17 173 173 17 173
173 17 173 173 17 173 173 17 173 173 17 173 173 17 173 173 17 173 173
17 173 173 17 173 173 17 173 173 17 173 173 17 173 173 17 173 173 17
173 173 17 173 173 17 173 173 17 173 173 17 173 173 17 173 173 17 173
173 17 18 18 18 18 18 18 18 18 18 18 18 18 17 17 17 17 17 17 44 44 44
44 44 44 44 44 44 44 44 44 44 44 44 44 44 44 44 44 44 44 44 44 44 44
44 44 44 44 44 44 44 44 44 44 44 44 44 43 43 43 43 43 43 43 43 43 43
43 43 43 43 43 43 43 43 43 43 43 17 17 17 17 17 17 17 17 17 17 17 17
17 17 17 17 17 17 17 17 17 17 17 17 17 17 17 17 17 17
49 49 49 19 19 19 19 19 19 19 19 19 19 19 19 19 19 19 19 19 19 19 19
19 19 19 19 19 19 19 19 19 19 19 19 19 19 19 19 19 19 19 19 19 19 19
19 19 19 19 19 19 19 19 19 19 19 19 19 19 19 19 19 19 19 19 48 48 48
48 48 48 48 48 48 48 48 48 48 48 48 48 48 48 47 47 47 47 47 47 47 47
47 47 47 47 47 47 47 47 47 47 47 47 47 172 172 17 172 172 17 172 172
17 172 172 17 172 172 17 172 172 17 173 173 17 173 173 17 173 173 17
173 173 17 173 173 17 173 173 17 173 173 17 173 173 17 173 173 17 173
173 17 173 173 17 173 173 17 173 173 17 173 173 17 173 173 17 173 173
17 173 173 17 173 173 17 173 173 17 173 173 17 173 173 17 173 173 17
173 173 17 173 173 17 45 45 45 45 45 45 45 45 45 45 45 45 45 45 45 45
45 45 45 45 45 45 45 45 45 45 45 45 45 45 44 44 44 44 44 44 44 44 44
44 44 44 44 44 44 44 44 44 44 44 44 44 44 44 44 44 44 44 44 44 44 44
44 17 17 17 17 17 17 17 17 17 17 17 17 17 17 17 17 17 17 17 17 17 17
17 17 17 17 17 17 17 17 17 17 17 17 17 17 17 17 17 17 17 17
19 19 19 19 19 19 19 19 19 19 19 19 19 19 19 19 19 19 19 19 19 19 19
19 19 19 19 19 19 19 19 19 19 19 19 19 19 19 19 19 19 19 19 19 19 49
49 49 49 49 49 48 48 48 48 48 48 48 48 48 48 48 48 48 48 48 48 48 48
48 48 48 48 48 48 48 48 48 48 48 48 48 48 48 48 48 48 48 48 48 48 48
48 48 48 48 48 48 48 48 48 48 172 172 17 172 172 17 172 172 17 172 172
17 172 172 17 172 172 17 172 172 17 172 172 17 172 172 17 172 172 17
172 172 17 173 173 17 173 173 17 173 173 17 173 173 17 173 173 17 173
173 17 173 173 17 173 173 17 173 173 17 173 173 17 173 173 17 173 173
17 173 173 17 173 173 17 173 173 17 173 173 17 173 173 17 173 173 17
173 173 17 173 173 17 173 173 17 46 46 46 45 45 45 45 45 45 45 45 45
45 45 45 45 45 45 45 45 45 45 45 45 45 45 45 45 45 45 45 45 45 45 45
45 45 45 45 45 45 45 45 45 45 45 45 45 45 45 45 17 17 17 17 17 17 17
17 17 17 17 17 17 17 17 17 17 17 17 17 17 17 17 17 17 17 17 17 17 17
17 17 17 17 17 17 17 17 17 17 17 17 17 17 17 17 17 17 17 17 17
20 20 20 20 20 20 20 20 20 20 20 20 20 20 20 19 19 19 19 19 19 19 19
19 49 49 49 49 49 49 49 49 49 49 49 49 49 49 49 49 49 49 49 49 49 49
49 49 49 49 49 49 49 49 49 49 49 49 49 49 49 49 49 49 49 49 49 49 49
48 48 48 48 48 48 48 48 48 48 48 48 48 48 48 48 48 48 48 48 48 48 48
48 48 48 48 19 19 19 171 171 17 172 172 17 172 172 17 172 172 17 172
172 17 172 172 17 172 172 17 172 172 17 172 172 17 172 172 17 172 172
17 172 172 17 172 172 17 172 172 17 172 172 17 172 172 17 173 173 17
173 173 17 173 173 17 173 173 17 173 173 17 173 173 17 173 173 17 173
173 17 173 173 17 173 173 17 173 173 17 173 173 17 173 173 17 173 173
17 173 173 17 173 173 17 173 173 17 173 173 17 46 46 46 46 46 46 46
46 46 46 46 46 46 46 46 46 46 46 45 45 45 45 45 45 45 45 45 45 45 45
45 45 45 45 45 45 45 45 45 18 18 18 18 18 18 18 18 18 18 18 18 18 18
18 18 18 18 18 18 18 18 18 18 18 18 18 18 18 18 17 17 17 17 17 17 17
17 17 17 17 17 17 17 17 17 17 17 17 17 17 17 17 17 17 17 17 17 17 17

20 20 20 50 50 50 50 50 50 50 50 50 50 50 50 50 50 50 50 50 50 50 50
50 50 50 50 50 50 50 49 49 49 49 49 49 49 49 49 49 49 49 49 49 49 49
49 49 49 49 49 49 49 49 49 49 49 49 49 49 49 49 49 49 49 49 49 49 49
49 49 49 49 49 49 49 49 49 19 19 19 19 19 19 19 19 19 19 19 19 19 19
19 19 19 19 171 171 17 171 171 17 171 171 17 171 171 17 172 172 17 172
172 17 172 172 17 172 172 17 172 172 17 172 172 17 172 172 17 172 172
17 172 172 17 172 172 17 172 172 17 172 172 17 172 172 17 172 172 17
172 172 17 172 172 17 172 172 17 172 172 17 173 173 17 173 173 17 173
173 17 173 173 17 173 173 17 173 173 17 173 173 17 173 173 17 173 173
17 173 173 17 173 173 17 173 173 17 173 173 17 173 173 17 46 46 46 46
46 46 46 46 46 46 46 46 46 46 46 46 46 46 46 46 46 46 46 46 46 46 46
18 18 18 18 18 18 18 18 18 18 18 18 18 18 18 18 18 18 18 18 18 18 18
18 18 18 18 18 18 18 18 18 18 18 18 18 18 18 18 18 18 18 18 18 18 18
18 18 18 18 18 18 18 18 18 18 18 17 17 17 17 17 17 17 17 17 17 17 17

50 50 50 50 50 50 50 50 50 50 50 50 50 50 50 50 50 50 50 50 50 50 50
50 50 50 50 50 50 50 50 50 50 50 50 50 50 50 50 50 50 50 50 50 50 49
49 49 49 49 49 49 49 49 49 49 49 49 49 49 19 19 19 19 19 19 19 19 19
19 19 19 19 19 19 19 19 19 19 19 19 19 19 19 19 19 19 19 19 19 19 19
19 171 171 17 171 171 17 171 171 17 171 171 17 171 171 17 171 171 17
171 171 17 171 171 17 172 172 17 172 172 17 172 172 17 172 172 17 172
172 17 172 172 17 172 172 17 172 172 17 172 172 17 172 172 17 172 172
17 172 172 17 172 172 17 172 172 17 172 172 17 172 172 17 172 172 17
172 172 17 172 172 17 172 172 17 172 172 17 173 173 17 173 173 17 173
173 17 173 173 17 173 173 17 173 173 17 173 173 17 173 173 17 173 173
17 46 46 46 46 46 46 46 46 46 46 46 46 46 46 46 18 18 18 18 18 18 18
18 18 18 18 18 18 18 18 18 18 18 18 18 18 18 18 18 18 18 18 18 18 18
18 18 18 18 18 18 18 18 18 18 18 18 18 18 18 18 18 18 18 18 18 18 18
18 18 18 18 18 18 18 18 18 18 18 18 18 18 18 18 18 18 18 18 18 18 18
18 18
50 50 50 50 50 50 50 50 50 50 50 50 50 50 50 50 50 50 50 50 50 50 50
50 50 50 50 50 50 50 50 50 50 50 50 50 50 50 50 50 50 50 50 50 50 20
20 20 20 20 20 20 20 20 20 20 20 19 19 19 19 19 19 19 19 19 19 19 19
19 19 19 19 19 19 19 19 19 19 19 19 19 19 19 19 19 19 19 19 19 170 170
17 171 171 17 171 171 17 171 171 17 171 171 17 171 171 17 171 171 17
171 171 17 171 171 17 171 171 17 171 171 17 172 172 17 172 172 17 172
172 17 172 172 17 172 172 17 172 172 17 172 172 17 172 172 17 172 172
17 172 172 17 172 172 17 172 172 17 172 172 17 172 172 17 172 172 17
172 172 17 172 172 17 172 172 17 172 172 17 172 172 17 172 172 17 172
172 17 172 172 17 172 172 17 172 172 17 172 172 17 172 172 17 173 173
17 173 173 17 12 12 12 5 5 5 18 18 18 18 18 18 18 18 18 18 18 18 18
18 18 18 18 18 18 18 18 18 18 18 18 18 18 18 18 18 18 18 18 18 18 18
18 18 18 18 18 18 18 18 18 18 18 18 18 18 18 18 18 18 18 18 18 18 18
18 18 18 18 18 18 18 18 18 18 18 18 18 18 18 18 18 18 18 18 18 18 45
45 45
51 51 51 51 51 51 51 51 51 51 51 51 50 50 50 50 50 50 50 50 50 50 50
50 50 50 50 20 20 20 20 20 20 20 20 20 20 20 20 20 20 20 20 20 20 20
20 20 20 20 20 20 20 20 20 20 20 20 20 20 20 20 20 20 20 20 20 20 20
19 19 19 19 19 19 19 19 19 19 19 19 19 19 19 19 19 19 19 19 19 19 19
19 19 19 19 19 19 19 171 171 17 171 171 17 171 171 17 171 171 17 171
171 17 171 171 17 171 171 17 171 171 17 171 171 17 171 171 17 171 171
17 171 171 17 172 172 17 172 172 17 172 172 17 172 172 17 172 172 17
172 172 17 172 172 17 172 172 17 172 172 17 172 172 17 172 172 17 172
172 17 172 172 17 172 172 17 172 172 17 172 172 17 172 172 17 172 172
17 172 172 17 172 172 17 172 172 17 172 172 17 172 172 17 172 172 17
172 172 17 172 172 17 5 5 5 5 5 5 18 18 18 18 18 18 18 18 18 18 18 18
18 18 18 18 18 18 18 18 18 18 18 18 18 18 18 18 18 18 18 18 18 18 18
18 18 18 18 18 18 18 18 18 18 18 18 18 18 18 18 18 18 18 18 18 18 18
18 18 18 18 18 18 18 18 18 18 18 18 18 18 45 45 45 45 45 45 45 45 45

51 51 51 51 51 51 51 51 51 20 20 20 20 20 20 20 20 20 20 20 20 20 20
20 20 20 20 20 20 20 20 20 20 20 20 20 20 20 20 20 20 20 20 20 20 20
20 20 20 20 20 20 20 20 20 20 20 20 20 20 20 20 20 20 20 20 20 20 20
20 20 20 20 20 20 20 20 20 19 19 19 19 19 19 19 19 19 19 19 19 19 19
19 19 19 19 19 19 19 19 19 19 49 49 49 49 49 49 171 171 17 171 171 17
171 171 17 171 171 17 171 171 17 171 171 17 171 171 17 171 171 17 171
171 17 171 171 17 171 171 17 171 171 17 172 172 17 172 172 17 172 172
17 172 172 17 172 172 17 172 172 17 172 172 17 172 172 17 172 172 17
172 172 17 172 172 17 172 172 17 172 172 17 172 172 17 172 172 17 172
172 17 172 172 17 172 172 17 172 172 17 172 172 17 172 172 17 172 172
17 172 172 17 172 172 17 5 5 5 5 5 5 18 18 18 18 18 18 18 18 18 18 18
18 18 18 18 18 18 18 18 18 18 18 18 18 18 18 18 18 18 18 18 18 18 18
18 18 18 18 18 18 18 18 18 18 18 18 18 18 18 18 18 18 18 18 18 18 18
18 18 18 18 18 18 46 46 46 46 46 46 46 46 46 46 46 46 46 46 46
20 20 20 20 20 20 20 20 20 20 20 20 20 20 20 20 20 20 20 20 20 20 20
20 20 20 20 20 20 20 20 20 20 20 20 20 20 20 20 20 20 20 20 20 20 20
20 20 20 20 20 20 20 20 20 20 20 20 20 20 20 20 20 20 20 20 20 20 20
20 20 20 20 20 20 20 20 20 20 20 20 20 20 20 20 20 20 50 50 50 49 49
49 49 49 49 49 49 49 49 49 49 49 49 49 49 49 49 49 49 49 49 49 49 49
49 49 171 171 17 171 171 17 171 171 17 171 171 17 171 171 17 171 171
17 171 171 17 171 171 17 171 171 17 171 171 17 171 171 17 171 171 17
172 172 17 172 172 17 172 172 17 172 172 17 172 172 17 172 172 17 172
172 17 172 172 17 172 172 17 172 172 17 172 172 17 172 172 17 172 172
17 172 172 17 172 172 17 172 172 17 172 172 17 172 172 17 172 172 17
172 172 17 172 172 17 172 172 17 5 5 5 19 19 19 19 19 19 19 19 19 19
19 19 18 18 18 18 18 18 18 18 18 18 18 18 18 18 18 18 18 18 18 18 18
18 18 18 18 18 18 18 18 18 18 18 18 18 18 18 18 18 18 18 18 18 18 18
18 46 46 46 46 46 46 46 46 46 46 46 46 46 46 46 46 46 46 46 46 46
20 20 20 20 20 20 20 20 20 20 20 20 20 20 20 20 20 20 20 20 20 20 20
20 20 20 20 20 20 20 20 20 20 20 20 20 20 20 20 20 20 20 20 20 20 20
20 20 20 20 20 20 20 20 20 20 20 20 20 20 20 20 20 20 20 20 20 20 20
20 20 20 20 20 20 50 50 50 50 50 50 50 50 50 50 50 50 50 50 50 50 50
50 50 50 50 50 50 50 49 49 49 49 49 49 49 49 49 49 49 49 49 49 49 49
49 49 49 49 49 49 49 49 49 49 49 171 171 17 171 171 17 171 171 17 171
171 17 171 171 17 171 171 17 171 171 17 171 171 17 171 171 17 171 171
17 171 171 17 171 171 17 171 171 17 171 171 17 172 172 17 172 172 17
172 172 17 172 172 17 172 172 17 172 172 17 172 172 17 172 172 17 172
172 17 172 172 17 172 172 17 172 172 17 172 172 17 172 172 17 172 172
17 172 172 17 172 172 17 172 172 17 5 5 5 19 19 19 19 19 19 19 19 19
19 19 19 19 19 19 19 19 19 19 19 19 19 19 19 18 18 18 18 18 18 18 18
18 18 18 18 18 18 18 18 18 18 18 18 18 18 18 18 47 47 47 47 47 47 46
46 46 46 46 46 46 46 46 46 46 46 46 46 46 46 46 46 46 46 46
20 20 20 20 20 20 20 20 20 20 20 20 20 20 20 20 20 20 20 20 20 20 20
20 20 20 20 20 20 20 20 20 20 20 20 20 20 20 20 20 20 20 20 20 20 20
20 20 20 20 20 20 20 20 20 20 20 20 20 20 50 50 50 50 50 50 50 50 50
50 50 50 50 50 50 50 50 50 50 50 50 50 50 50 50 50 50 50 50 50 50 50
50 50 50 50 50 50 50 50 50 50 50 50 50 50 50 50 49 49 49 49 49 49 49
49 49 49 49 49 49 49 49 49 49 49 49 49 49 49 49 49 49 49 49 171 171
17 171 171 17 171 171 17 171 171 17 171 171 17 171 171 17 171 171 17
171 171 17 171 171 17 171 171 17 171 171 17 171 171 17 171 171 17 171
171 17 171 171 17 172 172 17 172 172 17 172 172 17 172 172 17 172 172
17 172 172 17 172 172 17 172 172 17 172 172 17 172 172 17 172 172 17
172 172 17 172 172 17 172 172 17 172 172 17 5 5 5 19 19 19 19 19 19
19 19 19 19 19 19 19 19 19 19 19 19 19 19 19 19 19 19 19 19 19 19 19
19 19 19 19 18 18 18 18 18 18 47 47 47 47 47 47 47 47 47 47 47 47 47
47 47 47 47 47 47 47 47 47 47 47 47 47 47 46 46 46 46 46 46
20 20 20 20 20 20 20 20 20 20 20 20 20 20 20 20 20 20 20 20 20 20 20
20 20 20 20 20 20 20 20 20 20 20 20 20 20 20 20 20 20 20 20 20 20 20
20 20 51 51 51 51 51 51 50 50 50 50 50 50 50 50 50 50 50 50 50 50 50
50 50 50 50 50 50 50 50 50 50 50 50 50 50 50 50 50 50 50 50 50 50 50
50 50 50 50 50 50 50 50 50 50 50 50 50 50 50 50 50 50 50 50 50 50 50
50 50 49 49 49 49 49 49 49 49 49 49 49 49 49 49 49 49 49 49 49 49 49
49 49 49 49 49 49 171 171 17 171 171 17 171 171 17 171 171 17 171 171
17 171 171 17 171 171 17 171 171 17 171 171 17 171 171 17 171 171 17
171 171 17 171 171 17 171 171 17 171 171 17 171 171 17 171 171 17 172
172 17 172 172 17 172 172 17 172 172 17 172 172 17 172 172 17 172 172
17 172 172 17 172 172 17 172 172 17 172 172 17 5 5 5 19 19 19 19 19
19 19 19 19 19 19 19 19 19 19 19 19 19 19 19 19 19 19 19 19 19 19 19
19 19 19 19 19 47 47 47 47 47 47 47 47 47 47 47 47 47 47 47 47 47 47
47 47 47 47 47 47 47 47 47 47 47 47 47 47 47 47 47 47
20 20 20 20 20 20 20 20 20 20 20 20 20 20 20 20 20 20 20 20 20 20 20
20 20 20 20 20 20 20 20 20 20 51 51 51 51 51 51 51 51 51 51 51 51 51
51 51 51 51 51 51 51 51 51 51 51 51 51 51 51 51 51 50 50 50 50 50 50
50 50 50 50 50 50 50 50 50 50 50 50 50 50 50 50 50 50 50 50 50 50 50
50 50 50 50 50 50 50 50 50 50 50 50 50 50 50 50 50 50 50 50 50 50 50
50 50 50 50 50 50 50 50 50 50 50 49 49 49 49 49 49 49 49 49 49 49 49
49 49 49 49 49 49 19 19 19 19 19 19 19 19 19 19 19 19 171 171 17 171
171 17 171 171 17 171 171 17 171 171 17 171 171 17 171 171 17 171 171
17 171 171 17 171 171 17 171 171 17 171 171 17 171 171 17 171 171 17
171 171 17 171 171 17 171 171 17 171 171 17 171 171 17 172 172 17 172
172 17 172 172 17 172 172 17 172 172 17 5 5 5 5 5 5 19 19 19 19 19 19
19 19 19 19 19 19 19 19 19 19 19 19 19 19 19 19 19 19 47 47 47 47 47
47 47 47 47 47 47 47 47 47 47 47 47 47 47 47 47 47 47 47 47 47 47 47
47 47 47 47 47 47 47 47 47 47 47 47 47 47
20 20 20 20 20 20 20 20 20 20 20 20 20 20 20 20 20 20 20 20 20 51 51
51 51 51 51 51 51 51 51 51 51 51 51 51 51 51 51 51 51 51 51 51 51 51
51 51 51 51 51 51 51 51 51 51 51 51 51 51 51 51 51 51 51 51 51 51 51
50 50 50 50 50 50 50 50 50 50 50 50 50 50 50 50 50 50 50 50 50 50 50
50 50 50 50 50 50 50 50 50 50 50 50 50 50 50 50 50 50 50 50 50 50 50
50 50 50 50 50 50 50 50 50 50 50 50 50 50 50 50 50 50 50 50 19 19 19
19 19 19 19 19 19 19 19 19 19 19 19 19 19 19 19 19 19 19 19 19 19 19
19 19 19 19 171 171 17 171 171 17 171 171 17 171 171 17 171 171 17 171
171 17 171 171 17 171 171 17 171 171 17 171 171 17 171 171 17 171 171
17 171 171 17 171 171 17 171 171 17 171 171 17 171 171 17 171 171 17
171 171 17 171 171 17 171 171 17 171 171 17 5 5 5 5 5 5 19 19 19 19
19 19 19 19 19 19 19 19 19 19 19 48 48 48 48 48 48 48 48 48 48 48 48
48 48 48 47 47 47 47 47 47 47 47 47 47 47 47 47 47 47 47 47 47 47 47
47 47 47 47 47 47 47 47 47 47 47 47 47
20 20 20 20 20 20 52 52 52 51 51 51 51 51 51 51 51 51 51 51 51 51 51
51 51 51 51 51 51 51 51 51 51 51 51 51 51 51 51 51 51 51 51 51 51 51
51 51 51 51 51 51 51 51 51 51 51 51 51 51 51 51 51 51 51 51 51 51 51
51 51 51 51 51 51 50 50 50 50 50 50 50 50 50 50 50 50 50 50 50 50 50
50 50 50 50 50 50 50 50 50 50 50 50 50 50 50 50 50 50 50 50 50 50 50
50 50 50 50 50 50 50 50 50 50 50 20 20 20 20 20 20 20 20 20 20 20 20
20 20 20 20 20 20 19 19 19 19 19 19 19 19 19 19 19 19 19 19 19 19 19
19 19 19 19 19 19 19 19 19 19 19 19 19 171 171 17 171 171 17 171 171
17 171 171 17 171 171 17 171 171 17 171 171 17 171 171 17 171 171 17
171 171 17 171 171 17 171 171 17 171 171 17 171 171 17 171 171 17 171
171 17 171 171 17 171 171 17 171 171 17 171 171 17 5 5 5 19 19 19 19
19 19 19 19 19 48 48 48 48 48 48 48 48 48 48 48 48 48 48 48 48 48 48
48 48 48 48 48 48 48 48 48 48 48 48 48 48 48 47 47 47 47 47 47 47 47
47 47 47 47 47 47 47 47 47 47 47 47 47
52 52 52 52 52 52 52 52 52 52 52 52 51 51 51 51 51 51 51 51 51 51 51
51 51 51 51 51 51 51 51 51 51 51 51 51 51 51 51 51 51 51 51 51 51 51
51 51 51 51 51 51 51 51 51 51 51 51 51 51 51 51 51 51 51 51 51 51 51
51 51 51 51 51 51 51 51 51 51 51 51 50 50 50 50 50 50 50 50 50 50 50
50 50 50 50 50 50 50 50 50 50 50 50 50 50 50 50 50 50 50 50 50 50 50
50 50 20 20 20 20 20 20 20 20 20 20 20 20 20 20 20 20 20 20 20 20 20
20 20 20 20 20 20 20 20 20 20 20 20 19 19 19 19 19 19 19 19 19 19 19
19 19 19 19 19 19 19 19 19 19 19 19 19 19 19 19 19 19 19 19 19 19 171
171 17 171 171 17 171 171 17 171 171 17 171 171 17 171 171 17 171 171
17 171 171 17 171 171 17 171 171 17 171 171 17 171 171 17 171 171 17
171 171 17 171 171 17 171 171 17 171 171 17 171 171 17 5 5 5 48 48 48
48 48 48 48 48 48 48 48 48 48 48 48 48 48 48 48 48 48 48 48 48 48 48
48 48 48 48 48 48 48 48 48 48 48 48 48 48 48 48 48 48 48 48 48 48 48
48 48 47 47 47 47 47 47 47 47 47
52 52 52 52 52 52 52 52 52 52 52 52 52 52 52 52 52 52 51 51 51 51 51
51 51 51 51 51 51 51 51 51 51 51 51 51 51 51 51 51 51 51 51 51 51 51
51 51 51 51 51 51 51 51 51 51 51 51 51 51 51 51 51 51 51 51 51 51 51
51 51 51 51 51 51 51 51 51 51 51 51 51 51 51 51 51 51 51 51 51 50 50
50 50 50 50 50 50 50 50 50 50 50 50 50 50 50 50 20 20 20 20 20 20 20
20 20 20 20 20 20 20 20 20 20 20 20 20 20 20 20 20 20 20 20 20 20 20
20 20 20 20 20 20 20 20 20 20 20 20 20 20 20 20 20 20 20 20 20 19 19
19 19 19 19 19 19 19 19 19 19 19 19 19 19 19 19 19 19 19 19 19 19 19
19 19 19 19 19 19 19 19 171 171 17 171 171 17 171 171 17 171 171 17
171 171 17 171 171 17 171 171 17 171 171 17 171 171 17 171 171 17 171
171 17 171 171 17 171 171 17 171 171 17 171 171 17 171 171 17 12 12
12 48 48 48 48 48 48 48 48 48 48 48 48 48 48 48 48 48 48 48 48 48 48
48 48 48 48 48 48 48 48 48 48 48 48 48 48 48 48 48 48 48 48 48 48 48
48 48 48 48 48 48 48 48 48 48 48 48
52 52 52 52 52 52 52 52 52 52 52 52 52 52 52 52 52 52 52 52 52 52 52
52 51 51 51 51 51 51 51 51 51 51 51 51 51 51 51 51 51 51 51 51 51 51
51 51 51 51 51 51 51 51 51 51 51 51 51 51 51 51 51 51 51 51 51 51 51
51 51 51 51 51 51 51 51 51 51 51 51 51 51 51 51 51 51 51 51 51 51 51
51 51 51 51 50 50 50 20 20 20 20 20 20 20 20 20 20 20 20 20 20 20 20
20 20 20 20 20 20 20 20 20 20 20 20 20 20 20 20 20 20 20 20 20 20 20
20 20 20 20 20 20 20 20 20 20 20 20 20 20 20 20 20 20 20 20 20 20 20
20 20 20 20 20 20 20 19 19 19 19 19 19 19 19 19 19 19 19 19 19 19 19
19 19 19 19 19 19 19 19 19 19 19 19 19 19 19 19 19 171 171 17 171 171
17 171 171 17 171 171 17 171 171 17 171 171 17 171 171 17 171 171 17
171 171 17 171 171 17 171 171 17 171 171 17 171 171 17 171 171 17 12
12 12 48 48 48 48 48 48 48 48 48 48 48 48 48 48 48 48 48 48 48 48 48
48 48 48 48 48 48 48 48 48 48 48 48 48 48 48 48 48 48 48 48 48 48 48
48 48 48 48 48 48 48 48 48 48
52 52 52 52 52 52 52 52 52 52 52 52 52 52 52 52 52 52 52 52 52 52 52
52 52 52 52 51 51 51 51 51 51 51 51 51 51 51 51 51 51 51 51 51 51 51
51 51 51 51 51 51 51 51 51 51 51 51 51 51 51 51 51 51 51 51 51 51 51
51 51 51 51 51 51 51 51 51 51 51 51 51 51 51 51 51 51 20 20 20 20 20
20 20 20 20 20 20 20 20 20 20 20 20 20 20 20 20 20 20 20 20 20 20 20
20 20 20 20 20 20 20 20 20 20 20 20 20 20 20 20 20 20 20 20 20 20 20
20 20 20 20 20 20 20 20 20 20 20 20 20 20 20 20 20 20 20 20 20 20 20
20 20 20 20 20 20 20 20 20 20 20 20 20 19 19 19 19 19 19 19 19 19 19
19 19 19 19 19 19 19 19 19 19 19 19 19 19 19 19 19 19 19 19 19 19 19
19 19 19 19 19 19 171 171 17 171 171 17 171 171 17 171 171 17 171 171
17 171 171 17 171 171 17 171 171 17 171 171 17 171 171 17 171 171 17
12 12 12 48 48 48 48 48 48 48 48 48 48 48 48 48 48 48 48 48 48 48 48
48 48 48 48 48 48 48 48 48 48 48 48 48 48 48 48 48 48 48 48 48 48 48
48 48 48 48 48 48 48 48
52 52 52 52 52 52 52 52 52 52 52 52 52 52 52 52 52 52 52 52 52 52 52
52 52 52 52 52 52 52 52 52 52 51 51 51 51 51 51 51 51 51 51 51 51 51
51 51 51 51 51 51 51 51 51 51 51 51 51 51 51 51 51 51 51 51 51 51 51
51 51 51 51 51 51 51 51 51 20 20 20 20 20 20 20 20 20 20 20 20 20 20
20 20 20 20 20 20 20 20 20 20 20 20 20 20 20 20 20 20 20 20 20 20 20
20 20 20 20 20 20 20 20 20 20 20 20 20 20 20 20 20 20 20 20 20 20 20
20 20 20 20 20 20 20 20 20 20 20 20 20 20 20 20 20 20 20 20 20 20 20
20 20 20 20 20 20 20 20 20 20 20 20 20 20 20 20 20 20 20 20 20 20 19
19 19 19 19 19 19 19 19 19 19 19 19 19 19 19 19 19 19 19 19 19 19 19
19 19 19 19 19 19 19 19 19 19 19 19 49 49 49 171 171 17 171 171 17 171
171 17 171 171 17 171 171 17 171 171 17 171 171 17 171 171 17 171 171
17 12 12 12 49 49 49 49 49 49 48 48 48 48 48 48 48 48 48 48 48 48 48
48 48 48 48 48 48 48 48 48 48 48 48 48 48 48 48 48 48 48 48 48 48 48
48 48 48 48 48 48
52 52 52 52 52 52 52 52 52 52 52 52 52 52 52 52 52 52 52 52 52 52 52
52 52 52 52 52 52 52 52 52 52 52 52 52 51 51 51 51 51 51 51 51 51 51
51 51 51 51 51 51 51 51 51 51 51 51 51 51 51 51 51 51 51 51 51 51 51
20 20 20 20 20 20 20 20 20 20 20 20 20 20 20 20 20 20 20 20 20 20 20
20 20 20 20 20 20 20 20 20 20 20 20 20 20 20 20 20 20 20 20 20 20 20
20 20 20 20 20 20 20 20 20 20 20 20 20 20 20 20 20 20 20 20 20 20 20
20 20 20 20 20 20 20 20 20 20 20 20 20 20 20 20 20 20 20 20 20 20 20
20 20 20 20 20 20 20 20 20 20 20 20 20 20 20 20 20 20 20 20 20 20 20
20 20 20 20 20 19 19 19 19 19 19 19 19 19 19 19 19 19 19 19 19 19 19
19 19 19 19 19 19 49 49 49 49 49 49 49 49 49 49 49 49 49 49 49 49 49
49 170 170 17 170 170 17 171 171 17 171 171 17 171 171 17 171 171 17
171 171 17 49 49 49 49 49 49 49 49 49 49 49 49 49 49 49 48 48 48 48
48 48 48 48 48 48 48 48 48 48 48 48 48 48 48 48 48 48 48 48 48 48 48
48 48 48 48 48 48
52 52 52 52 52 52 52 52 52 52 52 52 52 52 52 52 52 52 52 52 52 52 52
52 52 52 52 52 52 52 52 52 52 52 52 52 52 52 52 52 52 52 51 51 51 51
51 51 51 51 51 51 51 51 51 51 51 51 51 51 20 20 20 20 20 20 20 20 20
20 20 20 20 20 20 20 20 20 20 20 20 20 20 20 20 20 20 20 20 20 20 20
20 20 20 20 20 20 20 20 20 20 20 20 20 20 20 20 20 20 20 20 20 20 20
20 20 20 20 20 20 20 20 20 20 20 20 20 20 20 20 20 20 20 20 20 20 20
20 20 20 20 20 20 20 20 20 20 20 20 20 20 20 20 20 20 20 20 20 20 20
20 20 20 20 20 20 20 20 20 20 20 20 20 20 20 20 20 20 20 20 20 20 20
20 20 20 20 20 20 20 20 20 20 20 20 20 20 19 19 19 19 19 19 19 19 19
49 49 49 49 49 49 49 49 49 49 49 49 49 49 49 49 49 49 49 49 49 49 49
49 49 49 49 49 49 49 49 49 49 170 170 17 170 170 17 170 170 17 170 170
17 171 171 17 49 49 49 49 49 49 49 49 49 49 49 49 49 49 49 49 49 49
49 49 49 48 48 48 48 48 48 48 48 48 48 48 48 48 48 48 48 48 48 48 48
48 48 48 48
52 52 52 52 52 52 52 52 52 52 52 52 52 52 52 52 52 52 52 52 52 52 52
52 52 52 52 52 52 52 52 52 52 52 52 52 52 52 52 52 52 52 52 52 52 51
51 51 51 51 51 20 20 20 20 20 20 20 20 20 20 20 20 20 20 20 20 20 20
20 20 20 20 20 20 20 20 20 20 20 20 20 20 20 20 20 20 20 20 20 20 20
20 20 20 20 20 20 20 20 20 20 20 20 20 20 20 20 20 20 20 20 20 20 20
20 20 20 20 20 20 20 20 20 20 20 20 20 20 20 20 20 20 20 20 20 20 20
20 20 20 20 20 20 20 20 20 20 20 20 20 20 20 20 20 20 20 20 20 20 20
20 20 20 20 20 20 20 20 20 20 20 20 20 20 20 20 20 20 20 20 20 20 20
20 20 20 20 20 20 20 20 20 20 20 20 20 20 20 20 20 20 20 20 49 49 49
49 49 49 49 49 49 49 49 49 49 49 49 49 49 49 49 49 49 49 49 49 49 49
49 49 49 49 49 49 49 49 49 49 49 49 49 49 49 49 49 49 49 170 170 17
170 170 17 170 170 17 49 49 49 49 49 49 49 49 49 49 49 49 49 49 49 49
49 49 49 49 49 49 49 49 49 49 49 48 48 48 48 48 48 48 48 48 48 48 48
48 48 48
52 52 52 52 52 52 52 52 52 52 52 52 52 52 52 52 52 52 52 52 52 52 52
52 52 52 52 52 52 52 52 52 52 52 52 52 52 52 52 52 52 52 20 20 20 20
20 20 20 20 20 20 20 20 20 20 20 20 20 20 20 20 20 20 20 20 20 20 20
20 20 20 20 20 20 20 20 20 20 20 20 20 20 20 20 20 20 20 20 20 20 20
20 20 20 20 20 20 20 20 20 20 20 20 20 20 20 20 20 20 20 20 20 20 20
20 20 20 20 20 20 20 20 20 20 20 20 20 20 20 20 20 20 20 20 20 20 20
20 20 20 20 20 20 20 20 20 20 20 20 20 20 20 20 20 20 20 20 20 20 20
20 20 20 20 20 20 20 20 20 20 20 20 20 20 20 20 20 20 20 20 20 20 20
20 20 20 20 20 20 20 20 20 20 20 20 20 20 50 50 50 50 50 50 50 50 50
50 50 50 50 50 50 49 49 49 49 49 49 49 49 49 49 49 49 49 49 49 49 49
49 49 49 49 49 49 49 49 49 49 49 49 49 49 49 49 49 49 49 49 49 49 49
49 49 49 49 49 170 170 17 49 49 49 49 49 49 49 49 49 49 49 49 49 49
49 49 49 49 49 49 49 49 49 49 49 49 49 49 49 49 49 49 49 48 48 48 48
48 48
52 52 52 52 52 52 52 52 52 52 52 52 52 52 52 52 52 52 52 52 52 52 52
52 52 52 52 52 52 52 20 20 20 20 20 20 20 20 20 20 20 20 20 20 20 20
20 20 20 20 20 20 20 20 20 20 20 20 20 20 20 20 20 20 20 20 20 20 20
20 20 20 20 20 20 20 20 20 20 20 20 20 20 20 20 20 20 20 20 20 20 20
20 20 20 20 20 20 20 20 20 20 20 20 20 20 20 20 20 20 20 20 20 20 20
20 20 20 20 20 20 20 20 20 20 20 20 20 20 20 20 20 20 20 20 20 20 20
20 20 20 20 20 20 20 20 20 20 20 20 20 20 20 20 20 20 20 20 20 20 20
20 20 20 20 20 20 20 20 20 20 20 20 20 20 20 20 20 20 20 20 20 20 20
20 20 20 20 20 20 20 20 50 50 50 50 50 50 50 50 50 50 50 50 50 50 50
50 50 50 50 50 50 50 50 50 50 50 50 49 49 49 49 49 49 49 49 49 49 49
49 49 49 49 49 49 49 49 49 49 49 49 49 49 49 49 49 49 49 49 49 49 49
49 49 49 49 49 49 49 49 49 49 49 49 49 49 49 49 49 49 49 49 49 49 49
49 49 49 49 49 49 49 49 49 49 49 49 49 49 49 49 49 49 49 49 49 49 49
49
52 52 52 52 52 52 52 52 52 52 52 52 52 52 52 52 52 52 52 52 52 20 20
20 20 20 20 20 20 20 20 20 20 20 20 20 20 20 20 20 20 20 20 20 20 20
20 20 20 20 20 20 20 20 20 20 20 20 20 20 20 20 20 20 20 20 20 20 20
20 20 20 20 20 20 20 20 20 20 20 20 20 20 20 20 20 20 20 20 20 20 20
20 20 20 20 20 20 20 20 20 20 20 20 20 20 20 20 20 20 20 20 20 20 20
20 20 20 20 20 20 20 20 20 20 20 20 20 20 20 20 20 20 20 20 20 20 20
20 20 20 20 20 20 20 20 20 20 20 20 20 20 20 20 20 20 20 20 20 20 20
20 20 20 20 20 20 20 20 20 20 20 20 20 20 20 20 20 20 20 20 20 20 20
20 20 50 50 50 50 50 50 50 50 50 50 50 50 50 50 50 50 50 50 50 50 50
50 50 50 50 50 50 50 50 50 50 50 50 50 50 50 50 50 50 50 50 50 49 49
49 49 49 49 49 49 49 49 49 49 49 49 49 49 49 49 49 49 49 49 49 49 49
49 49 49 49 49 49 49 49 49 49 49 49 49 49 49 49 49 49 49 49 49 49 49
49 49 49 49 49 49 49 49 49 49 49 49 49 49 49 49 49 49 49 49 49 49 49
49
52 52 52 52 52 52 52 52 52 52 52 52 21 21 21 21 21 21 20 20 20 20 20
20 20 20 20 20 20 20 20 20 20 20 20 20 20 20 20 20 20 20 20 20 20 20
20 20 20 20 20 20 20 20 20 20 20 20 20 20 20 20 20 20 20 20 20 20 20
20 20 20 20 20 20 20 20 20 20 20 20 20 20 20 20 20 20 20 20 20 20 20
20 20 20 20 20 20 20 20 20 20 20 20 20 20 20 20 20 20 20 20 20 20 20
20 20 20 20 20 20 20 20 20 20 20 20 20 20 20 20 20 20 20 20 20 20 20
20 20 20 20 20 20 20 20 20 20 20 20 20 20 20 20 20 20 20 20 20 20 20
20 20 20 20 20 20 20 20 20 20 20 20 20 20 20 20 20 20 20 50 50 50 50
50 50 50 50 50 50 50 50 50 50 50 50 50 50 50 50 50 50 50 50 50 50 50
50 50 50 50 50 50 50 50 50 50 50 50 50 50 50 50 50 50 50 50 50 50 50
50 50 50 50 49 49 49 49 49 49 49 49 49 49 49 49 49 49 49 49 49 49 49
49 49 49 49 49 49 49 49 49 49 49 49 49 49 49 49 49 49 49 49 49 49 49
49 49 49 49 49 49 49 49 49 49 49 49 49 49 49 49 49 49 49 49 49 49 49
49
52 52 52 21 21 21 21 21 21 21 21 21 21 21 21 21 21 21 21 21 21 20 20
20 20 20 20 20 20 20 20 20 20 20 20 20 20 20 20 20 20 20 20 20 20 20
20 20 20 20 20 20 20 20 20 20 20 20 20 20 20 20 20 20 20 20 20 20 20
20 20 20 20 20 20 20 20 20 20 20 20 20 20 20 20 20 20 20 20 20 20 20
20 20 20 20 20 20 20 20 20 20 20 20 20 20 20 20 20 20 20 20 20 20 20
20 20 20 20 20 20 20 20 20 20 20 20 20 20 20 20 20 20 20 20 20 20 20
20 20 20 20 20 20 20 20 20 20 20 20 20 20 20 20 20 20 20 20 20 20 20
20 20 20 20 20 20 20 20 20 20 20 20 20 20 20 20 50 50 50 50 50 50 50
50 50 50 50 50 50 50 50 50 50 50 50 50 50 50 50 50 50 50 50 50 50 50
50 50 50 50 50 50 50 50 50 50 50 50 50 50 50 50 50 50 50 50 50 50 50
50 50 50 50 50 50 50 50 50 50 49 49 49 49 49 49 49 49 49 49 49 49 49
49 49 49 49 49 49 49 49 49 49 49 49 49 49 49 49 49 49 49 49 49 49 49
49 49 49 49 49 49 49 49 49 49 49 49 49 49 49 49 49 49 49 49 49 49 49
49
21 21 21 21 21 21 21 21 21 21 21 21 21 21 21 21 21 21 21 21 21 21 21
21 20 20 20 20 20 20 20 20 20 20 20 20 20 20 20 20 20 20 20 20 20 20
20 20 20 20 20 20 20 20 20 20 20 20 20 20 20 20 20 20 20 20 20 20 20
20 20 20 20 20 20 20 20 20 20 20 20 20 20 20 20 20 20 20 20 20 20 20
20 20 20 20 20 20 20 20 20 20 20 20 20 20 20 20 20 20 20 20 20 20 20
20 20 20 20 20 20 20 20 20 20 20 20 20 20 20 20 20 20 20 20 20 20 20
20 20 20 20 20 20 20 20 20 20 20 20 20 20 20 20 20 20 20 20 20 20 20
20 20 20 20 20 20 20 20 20 20 50 50 50 50 50 50 50 50 50 50 50 50 50
50 50 50 50 50 50 50 50 50 50 50 50 50 50 50 50 50 50 50 50 50 50 50
50 50 50 50 50 50 50 50 50 50 50 50 50 50 50 50 50 50 50 50 50 50 50
50 50 50 50 50 50 50 50 50 50 50 50 50 50 50 50 50 50 50 49 49 49 49
49 49 49 49 49 49 49 49 49 49 49 49 49 49 49 49 49 49 49 49 49 49 49
49 49 49 49 49 49 49 49 49 49 49 49 49 49 49 49 49 49 49 49 49 49 49
49
21 21 21 21 21 21 21 21 21 21 21 21 21 21 21 21 21 21 21 21 21 21 21
21 21 21 21 20 20 20 20 20 20 20 20 20 20 20 20 20 20 20 20 20 20 20
20 20 20 20 20 20 20 20 20 20 20 20 20 20 20 20 20 20 20 20 20 20 20
20 20 20 20 20 20 20 20 20 20 20 20 20 20 20 20 20 20 20 20 20 20 20
20 20 20 20 20 20 20 20 20 20 20 20 20 20 20 20 20 20 20 20 20 20 20
20 20 20 20 20 20 20 20 20 20 20 20 20 20 20 20 20 20 20 20 20 20 20
20 20 20 20 20 20 20 20 20 20 20 20 20 20 20 20 20 20 20 20 20 20 20
20 20 20 20 50 50 50 50 50 50 50 50 50 50 50 50 50 50 50 50 50 50 50
50 50 50 50 50 50 50 50 50 50 50 50 50 50 50 50 50 50 50 50 50 50 50
50 50 50 50 50 50 50 50 50 50 50 50 50 50 50 50 50 50 50 50 50 50 50
50 50 50 50 50 50 50 50 50 50 50 50 50 50 50 50 50 50 50 50 50 50 50
50 50 49 49 49 49 49 49 49 49 49 49 49 49 49 49 49 49 49 49 49 49 49
49 49 49 49 49 49 49 49 49 49 49 49 49 49 49 49 49 49 49 49 49 49 49
49
21 21 21 21 21 21 21 21 21 21 21 21 21 21 21 21 21 21 21 21 21 21 21
21 21 21 21 21 21 21 20 20 20 20 20 20 20 20 20 20 20 20 20 20 20 20
20 20 20 20 20 20 20 20 20 20 20 20 20 20 20 20 20 20 20 20 20 20 20
20 20 20 20 20 20 20 20 20 20 20 20 20 20 20 20 20 20 20 20 20 20 20
20 20 20 20 20 20 20 20 20 20 20 20 20 20 20 20 20 20 20 20 20 20 20
20 20 20 20 20 20 20 20 20 20 20 20 20 20 20 20 20 20 20 20 20 20 20
20 20 20 20 20 20 20 20 20 20 20 20 20 20 20 20 20 20 20 20 20 51 51
51 51 51 51 51 51 51 50 50 50 50 50 50 50 50 50 50 50 50 50 50 50 50
50 50 50 50 50 50 50 50 50 50 50 50 50 50 50 50 50 50 50 50 50 50 50
50 50 50 50 50 50 50 50 50 50 50 50 50 50 50 50 50 50 50 50 50 50 50
50 50 50 50 50 50 50 50 50 50 50 50 50 50 50 50 50 50 50 50 50 50 50
50 50 50 50 50 50 50 50 49 49 49 49 49 49 49 49 49 49 49 49 49 49 49
49 49 49 49 49 49 49 49 49 49 49 49 49 49 49 49 49 49 49 49 49 49 49
49
21 21 21 21 21 21 21 21 21 21 21 21 21 21 21 21 21 21 21 21 21 21 21
21 21 21 21 21 21 21 20 20 20 20 20 20 20 20 20 20 20 20 20 20 20 20
20 20 20 20 20 20 20 20 20 20 20 20 20 20 20 20 20 20 20 20 20 20 20
20 20 20 20 20 20 20 20 20 20 20 20 20 20 20 20 20 20 20 20 20 20 20
20 20 20 20 20 20 20 20 20 20 20 20 20 20 20 20 20 20 20 20 20 20 20
20 20 20 20 20 20 20 20 20 20 20 20 20 20 20 20 20 20 20 20 20 20 20
20 20 20 20 20 20 20 20 20 20 20 20 20 20 20 51 51 51 51 51 51 51 51
51 51 51 51 51 51 51 51 51 51 51 51 51 50 50 50 50 50 50 50 50 50 50
50 50 50 50 50 50 50 50 50 50 50 50 50 50 50 50 50 50 50 50 50 50 50
50 50 50 50 50 50 50 50 50 50 50 50 50 50 50 50 50 50 50 50 50 50 50
50 50 50 50 50 50 50 50 50 50 50 50 50 50 50 50 50 50 50 50 50 50 50
50 50 50 50 50 50 50 50 50 50 50 50 50 50 50 50 50 49 49 49 49 49 49
49 49 49 49 49 49 49 49 49 49 49 49 49 49 49 49 49 49 49 49 49 49 49
49
21 21 21 21 21 21 21 21 21 21 21 21 21 21 21 21 21 21 21 21 21 21 21
21 21 21 21 21 21 21 21 21 21 20 20 20 20 20 20 20 20 20 20 20 20 20
20 20 20 20 20 20 20 20 20 20 20 20 20 20 20 20 20 20 20 20 20 20 20
20 20 20 20 20 20 20 20 20 20 20 20 20 20 20 20 20 20 20 20 20 20 20
20 20 20 20 20 20 20 20 20 20 20 20 20 20 20 20 20 20 20 20 20 20 20
20 20 20 20 20 20 20 20 20 20 20 20 20 20 20 20 20 20 20 20 20 20 20
20 20 20 20 20 20 20 20 20 51 51 51 51 51 51 51 51 51 51 51 51 51 51
51 51 51 51 51 51 51 51 51 51 51 51 51 51 51 51 51 51 51 50 50 50 50
50 50 50 50 50 50 50 50 50 50 50 50 50 50 50 50 50 50 50 50 50 50 50
50 50 50 50 50 50 50 50 50 50 50 50 50 50 50 50 50 50 50 50 50 50 50
50 50 50 50 50 50 50 50 50 50 50 50 50 50 50 50 50 50 50 50 50 50 50
50 50 50 50 50 50 50 50 50 50 50 50 50 50 50 50 50 50 50 50 50 50 50
49 49 49 49 49 49 49 49 49 49 49 49 49 49 49 49 49 49 49 49 49 49 49
49
21 21 21 21 21 21 21 21 21 21 21 21 21 21 21 21 21 21 21 21 21 21 21
21 21 21 21 21 21 21 21 21 21 21 21 21 20 20 20 20 20 20 20 20 20 20
20 20 20 20 20 20 20 20 20 20 20 20 20 20 20 20 20 20 20 20 20 20 20
20 20 20 20 20 20 20 20 20 20 20 20 20 20 20 20 20 20 20 20 20 20 20
20 20 20 20 20 20 20 20 20 20 20 20 20 20 20 20 20 20 20 20 20 20 20
20 20 20 20 20 20 20 20 20 20 20 20 20 20 20 20 20 20 20 20 20 20 20
20 20 20 20 20 20 51 51 51 51 51 51 51 51 51 51 51 51 51 51 51 51 51
51 51 51 51 51 51 51 51 51 51 51 51 51 51 51 51 51 51 51 51 51 51 50
50 50 50 50 50 50 50 50 50 50 50 50 50 50 50 50 50 50 50 50 50 50 50
50 50 50 50 50 50 50 50 50 50 50 50 50 50 50 50 50 50 50 50 50 50 50
50 50 50 50 50 50 50 50 50 50 50 50 50 50 50 50 50 50 50 50 50 50 50
50 50 50 50 50 50 50 50 50 50 50 50 50 50 50 50 50 50 50 50 50 50 50
50 50 50 50 50 50 49 49 49 49 49 49 49 49 49 49 49 49 49 49 49 49 49
49
21 21 21 21 21 21 21 21 21 21 21 21 21 21 21 21 21 21 21 21 21 21 21
21 21 21 21 21 21 21 21 21 21 21 21 21 21 21 21 20 20 20 20 20 20 20
20 20 20 20 20 20 20 20 20 20 20 20 20 20 20 20 20 20 20 20 20 20 20
20 20 20 20 20 20 20 20 20 20 20 20 20 20 20 20 20 20 20 20 20 20 20
20 20 20 20 20 20 20 20 20 20 20 20 20 20 20 20 20 20 20 20 20 20 20
20 20 20 20 20 20 20 20 20 20 20 20 20 20 20 20 20 20 20 20 20 20 20
51 51 51 51 51 51 51 51 51 51 51 51 51 51 51 51 51 51 51 51 51 51 51
51 51 51 51 51 51 51 51 51 51 51 51 51 51 51 51 51 51 51 51 51 51 51
51 51 51 51 51 50 50 50 50 50 50 50 50 50 50 50 50 50 50 50 50 50 50
50 50 50 50 50 50 50 50 50 50 50 50 50 50 50 50 50 50 50 50 50 50 50
50 50 50 50 50 50 50 50 50 50 50 50 50 50 50 50 50 50 50 50 50 50 50
50 50 50 50 50 50 50 50 50 50 50 50 50 50 50 50 50 50 50 50 50 50 50
50 50 50 50 50 50 50 50 50 50 50 50 50 50 50 49 49 49 49 49 49 49 49
49
21 21 21 21 21 21 21 21 21 21 21 21 21 21 21 21 21 21 21 21 21 21 21
21 21 21 21 21 21 21 21 21 21 21 21 21 21 21 21 21 21 21 20 20 20 20
20 20 20 20 20 20 20 20 20 20 20 20 20 20 20 20 20 20 20 20 20 20 20
20 20 20 20 20 20 20 20 20 20 20 20 20 20 20 20 20 20 20 20 20 20 20
20 20 20 20 20 20 20 20 20 20 20 20 20 20 20 20 20 20 20 20 20 20 20
20 20 20 20 20 20 20 20 20 20 20 20 20 20 20 20 20 51 51 51 51 51 51
51 51 51 51 51 51 51 51 51 51 51 51 51 51 51 51 51 51 51 51 51 51 51
51 51 51 51 51 51 51 51 51 51 51 51 51 51 51 51 51 51 51 51 51 51 51
51 51 51 51 51 51 51 51 51 51 51 50 50 50 50 50 50 50 50 50 50 50 50
50 50 50 50 50 50 50 50 50 50 50 50 50 50 50 50 50 50 50 50 50 50 50
50 50 50 50 50 50 50 50 50 50 50 50 50 50 50 50 50 50 50 50 50 50 50
50 50 50 50 50 50 50 50 50 50 50 50 50 50 50 50 50 50 50 50 50 50 50
50 50 50 50 50 50 50 50 50 50 50 50 50 50 50 50 50 50 50 50 50 49 49
49
21 21 21 21 21 21 21 21 21 21 21 21 21 21 21 21 21 21 21 21 21 21 21
21 21 21 21 21 21 21 21 21 21 21 21 21 21 21 21 21 21 21 21 21 21 20
20 20 20 20 20 20 20 20 20 20 20 20 20 20 20 20 20 20 20 20 20 20 20
20 20 20 20 20 20 20 20 20 20 20 20 20 20 20 20 20 20 20 20 20 20 20
20 20 20 20 20 20 20 20 20 20 20 20 20 20 20 20 20 20 20 20 20 20 20
20 20 20 20 20 20 20 20 20 20 20 51 51 51 51 51 51 51 51 51 51 51 51
51 51 51 51 51 51 51 51 51 51 51 51 51 51 51 51 51 51 51 51 51 51 51
51 51 51 51 51 51 51 51 51 51 51 51 51 51 51 51 51 51 51 51 51 51 51
51 51 51 51 51 51 51 51 51 51 51 51 51 51 50 50 50 50 50 50 50 50 50
50 50 50 50 50 50 50 50 50 50 50 50 50 50 50 50 50 50 50 50 50 50 50
50 50 50 50 50 50 50 50 50 50 50 50 50 50 50 50 50 50 50 50 50 50 50
50 50 50 50 50 50 50 50 50 50 50 50 50 50 50 50 50 50 50 50 50 50 50
50 50 50 50 50 50 50 50 50 50 50 50 50 50 50 50 50 50 50 50 50 50 50
50

